<svg xmlns="http://www.w3.org/2000/svg" width="24" height="24" viewBox="0 0 24 24"><g transform="translate(-130 -131)"><path d="M7.744,4.243a.814.814,0,0,0,0,1.164l4.865,4.765.086.073a.847.847,0,0,0,1.1-.077.812.812,0,0,0,0-1.163L8.928,4.24l-.086-.073A.847.847,0,0,0,7.744,4.243ZM7.671,18.678a.814.814,0,0,0,.073,1.08.847.847,0,0,0,1.183,0l7.326-7.177.075-.084a.812.812,0,0,0-.073-1.079.846.846,0,0,0-1.183,0L7.746,18.594Z" transform="translate(130.5 131)" fill="#6f7980" fill-rule="evenodd"/><rect width="24" height="24" transform="translate(130 131)" fill="none"/></g></svg>