<svg xmlns="http://www.w3.org/2000/svg" width="16" height="16" viewBox="0 0 16 16"><g transform="translate(0 0)"><rect width="16" height="16" transform="translate(0 0)" fill="none"/><path d="M4.162,13.364a.545.545,0,0,0,.78,0L9.748,8.456a.566.566,0,0,0,0-.793.544.544,0,0,0-.779,0L4.161,12.571A.567.567,0,0,0,4.162,13.364Zm9.611,0a.545.545,0,0,0,.78,0,.567.567,0,0,0,0-.793L11.363,9.313a.544.544,0,0,0-.779,0,.567.567,0,0,0,0,.793Z" transform="translate(-1.358 -2.848)" fill="#7bb928" fill-rule="evenodd"/></g></svg>