<svg xmlns="http://www.w3.org/2000/svg" xmlns:xlink="http://www.w3.org/1999/xlink" width="56" height="56" viewBox="0 0 56 56"><defs><clipPath id="a"><circle cx="28" cy="28" r="28" fill="#c0dd98"/></clipPath></defs><g clip-path="url(#a)"><circle cx="28" cy="28" r="28" fill="#fff"/></g><circle cx="28" cy="28" r="28" fill="none"/><g transform="translate(-1666.82 -848.82)"><rect width="32" height="32" transform="translate(1678.82 860.82)" fill="none"/><path d="M24.941,8.836A3.417,3.417,0,1,0,21.515,5.43,3.426,3.426,0,0,0,24.941,8.836Zm0-4.883a1.476,1.476,0,1,1-1.48,1.476A1.478,1.478,0,0,1,24.941,3.953Zm-21,16.5c0,3.86,2.132,5.975,5.989,5.975a.989.989,0,0,1,.979.977.978.978,0,0,1-.979.965C5.041,28.366,2,25.332,2,20.449v-9.5C2,6.057,5.041,3.023,9.934,3.023H18.51A.978.978,0,0,1,19.477,4a.966.966,0,0,1-.979.965H9.934c-3.856,0-5.989,2.127-5.989,5.987Zm13.7-2.534a1.037,1.037,0,0,1-.653.372.98.98,0,0,1-.711-.209l-3.577-2.8L9.492,19.45a.964.964,0,1,1-1.538-1.163l3.81-4.952a.98.98,0,0,1,1.375-.174l3.577,2.8,3.146-4.011a.966.966,0,0,1,1.515,1.163Zm8.82-6.964a.966.966,0,0,0-.967.965v8.533c-.035,3.86-2.167,5.975-6.024,5.975H15.585a.989.989,0,0,0-.979.977.978.978,0,0,0,.979.965h3.891c4.893,0,7.946-3.034,7.946-7.917V11.917A.966.966,0,0,0,26.467,10.952Z" transform="translate(1679.637 861.637)" fill="#7bb928" fill-rule="evenodd"/></g></svg>