<svg xmlns="http://www.w3.org/2000/svg" width="36" height="36" viewBox="0 0 36 36"><path d="M33.938,37.922H2.062A2.064,2.064,0,0,1,0,35.856V4.066A2.064,2.064,0,0,1,2.062,2H33.938A2.064,2.064,0,0,1,36,4.066V35.856A2.064,2.064,0,0,1,33.938,37.922Z" transform="translate(0 -2)" fill="#0f1f2b"/><path d="M314.113,203.442h2.094v-4.115A25.363,25.363,0,0,0,312.49,199c-3.793,0-6.273,2.315-6.273,6.506v3.684H302v4.834h4.217v11.685h0v-.087h3.208v0h1.982v-11.6h3.87l.736-4.834h-4.606v-3.137A2.409,2.409,0,0,1,314.113,203.442Z" transform="translate(-291.15 -189.709)" fill="#fff"/></svg>