<svg xmlns="http://www.w3.org/2000/svg" width="1920" height="515.18" viewBox="0 0 1920 515.18"><g transform="translate(475 -1165.82)"><path d="M1445,1478v203H-475V1508a61.905,61.905,0,0,1,8.828-6.28,86.369,86.369,0,0,1,10.934-5.05q10.5-4.86,21.026-9.71l42.041-19.44q21.021-9.72,42.041-19.43c11.757-5.43,23.544-12.03,36.013-16.6,1.445-.54,2.909-1.05,4.374-1.52,9.55-3.06,18.678-4.14,27.546-8.72,12.248-6.34,24.386-12.82,36.755-19.02q37.091-18.585,75.466-35.53,76.71-33.84,157.934-60.8,72.527-24.075,147.912-42.32c25.871-6.26,52.464-12.04,79.529-11.44,60.73,1.38,111.829,33.8,164.825,57.17,8.426,3.72,17.314,7.3,26.944,7.83,18.749,1.03,34.869-9.4,50.1-18.05,105.44-59.93,253.693-55.13,359.835-114.28,13.934-7.77,27.867-16.87,44.8-18.66,1.595-.17,3.17-.27,4.725-.31.481-.02.973-.02,1.445-.02s.963,0,1.434.01c.431.01.863.02,1.294.04,27.065,1.19,49.284,20.51,69.266,36.35,84.845,67.28,208.321,95.34,301.031,155.87,35.19,22.98,65.886,50.6,105.089,69.15,6.982,3.3,8.988,4.06,8.988,4.06,45.893,20.16,66.157,20.55,84.815,40.7C1441.168,1473.28,1442.974,1475.32,1445,1478Z" transform="translate(0)" fill="#fdfdfa"/><path d="M1445,1478q-4.965,1.575-10.031,3c-61.633,17.27-164.625,24.91-310.219-53.85l120.888-27.93c-11.9-29.88-55.7-42.45-93.683-51.83A2485.886,2485.886,0,0,1,867.7,1259.01c23.544,64.23,173.843,46.93,199.413,110.69q-115.8-16.575-231.624-33.15c5.036-8.55,13.2-15.95,23.273-21.07-33.435-1.48-65.455-16.35-83.26-38.66-3.21-4.01-6.28-8.47-11.646-10.63-13.512-5.43-26.854,6.94-35.481,16.76-75.265,85.63-254.405,86.6-319,177.47-9.169-41.85,39.072-77.43,86.44-97.84s102.631-37.66,126.937-75.59c-63.6-4.07-114.147,38.11-162.408,70.93-87.8,59.7-197.718,96.88-310.892,117.16s-230.039,24.4-346.112,23.8c92.68-24.97,191.92-29.44,288.271-43.39s195.19-39.83,260.855-97c-63.9-25.63-138.021-51.8-204.619-30.82-74.463,23.45-107.817,97.07-182.179,120.74q2.122-13.32,4.243-26.63c-48.361,18.46-102.731,27.09-156.419,24.8q82.518-37.6,165.026-75.21c12.108-5.51,24.6-19.87,12.258-25.05C-329.124,1453.71-474.87,1510.26-475,1508a61.905,61.905,0,0,1,8.828-6.28,86.369,86.369,0,0,1,10.934-5.05q10.5-4.86,21.026-9.71l42.041-19.44q21.021-9.72,42.041-19.43c11.757-5.43,23.544-12.03,36.013-16.6,1.445-.54,2.909-1.05,4.374-1.52,9.55-3.06,18.678-4.14,27.546-8.72,12.248-6.34,24.386-12.82,36.755-19.02q37.091-18.585,75.466-35.53,76.71-33.84,157.934-60.8,72.527-24.075,147.912-42.32c25.871-6.26,52.464-12.04,79.529-11.44,60.73,1.38,111.829,33.8,164.825,57.17,8.426,3.72,17.314,7.3,26.944,7.83,18.749,1.03,34.869-9.4,50.1-18.05,105.44-59.93,253.693-55.13,359.835-114.28,13.934-7.77,27.867-16.87,44.8-18.66,1.595-.17,3.17-.27,4.725-.31.481-.02.973-.02,1.445-.02s.963,0,1.434.01c.431.01.863.02,1.294.04,27.065,1.19,49.284,20.51,69.266,36.35,84.845,67.28,208.321,95.34,301.031,155.87,35.19,22.98,65.886,50.6,105.089,69.15,6.982,3.3,8.988,4.06,8.988,4.06,45.893,20.16,66.157,20.55,84.815,40.7C1441.168,1473.28,1442.974,1475.32,1445,1478Z" transform="translate(0)" fill="#f6faef"/></g></svg>