<svg xmlns="http://www.w3.org/2000/svg" xmlns:xlink="http://www.w3.org/1999/xlink" width="56" height="56" viewBox="0 0 56 56"><defs><clipPath id="a"><circle cx="28" cy="28" r="28" fill="none" stroke="#7bb928" stroke-width="1"/></clipPath></defs><g clip-path="url(#a)"><circle cx="28" cy="28" r="28" fill="#fff"/></g><circle cx="28" cy="28" r="28" fill="none"/><g transform="translate(-1620.577 -889.577)"><rect width="34" height="34" transform="translate(1631.577 900.577)" fill="none"/><path d="M13.708,26.839a1.146,1.146,0,0,0,2.282-.142V6.861l7.243,7.167.117.1a1.159,1.159,0,0,0,1.5-.1,1.117,1.117,0,0,0,0-1.595l-9.2-9.1-.115-.1a1.157,1.157,0,0,0-1.132-.146A1.127,1.127,0,0,0,13.7,4.128V26.7ZM4.837,14.031a1.158,1.158,0,0,0,1.62,0l5.074-5.021.1-.116a1.113,1.113,0,0,0-.106-1.479,1.157,1.157,0,0,0-1.62,0L4.833,12.434l-.1.116A1.118,1.118,0,0,0,4.837,14.031Z" transform="translate(1634.423 902.164)" fill="#7bb928" fill-rule="evenodd"/></g></svg>