<svg xmlns="http://www.w3.org/2000/svg" width="24" height="24" viewBox="0 0 24 24"><g transform="translate(-982 -801)"><rect width="24" height="24" transform="translate(982 801)" fill="none"/><path d="M12,2h.033A8.5,8.5,0,0,1,20.5,10.522v.093c-.063,3.345-2.074,6.12-3.75,7.859a20.558,20.558,0,0,1-1.508,1.42.746.746,0,1,1-.968-1.134c.485-.413.956-.857,1.4-1.319,1.491-1.547,3.279-3.993,3.333-6.854a7.028,7.028,0,0,0-6.98-7.1H12a7.011,7.011,0,0,0-7.007,6.971,9.119,9.119,0,0,0,1.86,5.225,22.375,22.375,0,0,0,5.319,4.944.746.746,0,0,1-.815,1.249,23.958,23.958,0,0,1-5.7-5.3A10.607,10.607,0,0,1,3.5,10.513,8.517,8.517,0,0,1,12,2Zm-1.745,8.614A1.742,1.742,0,1,0,12,8.873a.745.745,0,1,1,0-1.49,3.23,3.23,0,1,1-3.235,3.231.746.746,0,0,1,1.493,0Z" transform="translate(982.5 801)" fill="#0f1f2b" fill-rule="evenodd"/></g></svg>