<svg xmlns="http://www.w3.org/2000/svg" width="24" height="24" viewBox="0 0 24 24"><g transform="translate(-5114 -135)"><rect width="24" height="24" transform="translate(5114 135)" fill="none"/><path d="M3.87,5.448c-.515.708-.479,1.614.074,2.829A.75.75,0,0,1,2.579,8.9c-.787-1.726-.772-3.167.044-4.28C2.927,4.109,4.838,1.9,6.479,2a2.308,2.308,0,0,1,1.431.715,15.6,15.6,0,0,1,2.613,3.634,2.645,2.645,0,0,1-.466,1.928h0c-.265.461-.357.658-.266.907a8.893,8.893,0,0,0,3.064,3.945.75.75,0,0,1-.873,1.22A10.415,10.415,0,0,1,8.39,9.727a2.429,2.429,0,0,1,.366-2.193c.226-.392.351-.626.3-.876A18.956,18.956,0,0,0,6.862,3.793a.909.909,0,0,0-.48-.294C5.666,3.482,4.2,4.9,3.87,5.448Zm13.777,8.025a15.569,15.569,0,0,1,3.636,2.611,2.3,2.3,0,0,1,.715,1.4c.065,1.842-2.4,3.767-2.685,3.929A3.141,3.141,0,0,1,17.435,22a5.6,5.6,0,0,1-2.339-.59c-3.265-1.355-8.2-5.75-10.981-9.783a.749.749,0,1,1,1.235-.85c2.6,3.767,7.335,8.008,10.351,9.261,1.22.567,2.128.6,2.8.117.527-.319,2.024-1.806,2-2.58a.985.985,0,0,0-.29-.443,18.051,18.051,0,0,0-2.913-2.2c-.319-.068-.651.126-1.157.445l-.256.159a.75.75,0,1,1-.774-1.284l.231-.143A3.061,3.061,0,0,1,17.648,13.473Z" transform="translate(5114 135)" fill="#0f1f2b" fill-rule="evenodd"/></g></svg>