<?xml version="1.0" standalone="no"?>
<!DOCTYPE svg PUBLIC "-//W3C//DTD SVG 20010904//EN"
 "http://www.w3.org/TR/2001/REC-SVG-20010904/DTD/svg10.dtd">
<svg version="1.0" xmlns="http://www.w3.org/2000/svg"
 width="656.000000pt" height="656.000000pt" viewBox="0 0 656.000000 656.000000"
 preserveAspectRatio="xMidYMid meet">
<metadata>
Created by potrace 1.11, written by Peter Selinger 2001-2013
</metadata>
<g transform="translate(0.000000,656.000000) scale(0.100000,-0.100000)"
fill="#000000" stroke="none">
<path d="M3319 6551 c-35 -14 -68 -51 -132 -151 -74 -114 -191 -346 -227 -450
-12 -36 -26 -74 -31 -85 -5 -11 -11 -29 -13 -40 -3 -11 -13 -58 -24 -105 -11
-47 -23 -105 -27 -130 -3 -25 -8 -56 -10 -70 -14 -97 -26 -366 -17 -383 2 -4
5 -40 7 -80 5 -119 46 -334 91 -482 81 -265 280 -622 375 -671 62 -32 124 -12
180 58 167 207 329 577 375 858 3 19 7 37 9 40 26 42 26 595 0 706 -2 12 -7
39 -11 60 -3 21 -10 59 -16 84 -5 25 -11 53 -13 63 -9 41 -85 258 -114 322
-98 216 -223 413 -284 447 -25 13 -94 19 -118 9z"/>
<path d="M959 5121 c-39 -21 -69 -73 -69 -121 0 -19 9 -73 21 -120 11 -47 22
-95 25 -106 7 -35 70 -224 99 -294 31 -76 115 -253 124 -260 3 -3 17 -25 30
-50 22 -42 126 -201 156 -239 129 -162 303 -340 423 -430 40 -30 72 -59 72
-63 0 -4 6 -8 14 -8 8 0 21 -6 28 -12 27 -27 160 -109 247 -155 24 -12 48 -27
55 -32 6 -5 14 -10 18 -11 7 -1 53 -20 143 -60 185 -82 497 -159 662 -163 74
-1 104 13 130 62 28 50 21 115 -33 316 -3 11 -7 29 -9 41 -3 12 -11 40 -20 63
-8 23 -15 43 -15 46 -7 48 -146 359 -190 425 -10 14 -37 57 -61 95 -114 182
-304 400 -458 525 -23 19 -55 45 -69 58 -15 12 -61 46 -102 74 -41 29 -77 54
-80 57 -13 15 -248 143 -254 139 -2 -2 -12 4 -22 13 -41 35 -346 145 -484 174
-8 2 -37 9 -65 15 -27 6 -59 13 -70 15 -11 1 -34 5 -51 9 -83 16 -162 15 -195
-3z"/>
<path d="M5805 4802 c-2 -2 -27 -6 -56 -9 -30 -3 -110 -19 -179 -35 -69 -16
-136 -31 -150 -34 -87 -18 -310 -94 -435 -149 -113 -49 -295 -144 -396 -207
-88 -55 -293 -201 -325 -232 -6 -6 -36 -31 -65 -56 -145 -122 -345 -343 -483
-535 -82 -114 -267 -431 -271 -465 0 -3 -8 -21 -17 -40 -47 -100 -123 -304
-144 -385 -2 -5 -10 -35 -19 -65 -8 -30 -18 -71 -21 -90 -3 -19 -11 -44 -17
-55 -6 -11 -9 -22 -8 -25 2 -5 -4 -52 -14 -113 -3 -15 -7 -38 -9 -50 -2 -13
-1 -29 3 -36 8 -13 41 -5 41 10 0 5 21 35 46 67 66 83 67 84 94 122 13 19 29
40 36 45 6 6 33 39 59 75 27 36 57 74 66 85 10 11 28 32 41 46 13 15 37 44 53
65 187 239 582 642 905 925 52 46 100 88 107 93 6 6 30 24 52 40 23 17 41 33
41 38 0 4 5 8 11 8 6 0 16 6 23 13 7 6 25 21 40 32 16 11 33 25 40 30 14 13
106 79 125 90 8 5 -20 -25 -64 -66 -179 -170 -382 -378 -525 -539 -36 -40 -80
-88 -97 -106 -18 -19 -33 -36 -33 -39 0 -2 -12 -17 -26 -32 -14 -15 -40 -45
-58 -66 -17 -22 -38 -48 -48 -58 -9 -11 -31 -38 -50 -61 -18 -23 -37 -46 -43
-52 -5 -6 -32 -40 -60 -76 -27 -36 -53 -69 -58 -75 -90 -114 -317 -432 -317
-445 0 -5 -5 -10 -10 -10 -6 0 -14 -8 -18 -17 -4 -10 -34 -58 -67 -108 -33
-49 -68 -103 -79 -119 l-18 -29 33 6 c19 3 45 8 59 11 14 2 43 7 65 10 22 3
51 8 65 11 14 3 41 8 60 11 19 3 69 15 110 26 94 24 92 24 110 30 8 4 49 16
90 29 165 50 428 164 550 238 19 11 42 24 50 28 39 17 265 174 349 241 555
444 931 1058 1082 1767 35 164 34 203 -4 246 -32 36 -73 49 -150 46 -38 -1
-70 -3 -72 -5z"/>
<path d="M2045 2035 c-103 -22 -207 -49 -417 -108 -49 -14 -88 -23 -88 -20 0
3 -6 0 -13 -6 -8 -6 -16 -8 -20 -5 -3 3 -14 1 -24 -4 -10 -6 -31 -12 -48 -16
-16 -3 -39 -7 -50 -10 -77 -20 -205 -49 -230 -53 -16 -2 -37 -6 -45 -10 -15
-5 -130 -32 -165 -38 -11 -1 -75 -14 -143 -28 -123 -26 -167 -44 -208 -83 -25
-24 -77 -104 -68 -104 4 0 2 -6 -4 -13 -10 -12 -10 -122 1 -162 9 -36 83 -343
92 -385 2 -8 9 -37 15 -65 6 -27 13 -57 15 -65 2 -8 10 -42 19 -75 9 -33 19
-73 21 -90 4 -23 52 -208 68 -260 26 -82 89 -151 158 -173 92 -29 151 -18 357
66 67 28 122 48 122 46 0 -3 9 0 21 6 11 6 28 13 37 16 9 2 51 12 93 22 99 24
167 20 290 -18 56 -18 107 -33 113 -34 6 -1 36 -11 66 -21 30 -11 57 -20 60
-20 3 -1 37 -11 75 -24 39 -12 77 -24 85 -26 8 -2 67 -20 130 -40 63 -20 123
-38 133 -40 10 -2 27 -7 37 -10 10 -3 27 -8 37 -10 10 -2 37 -10 61 -19 23 -8
42 -13 42 -11 0 3 11 0 25 -5 14 -5 36 -12 48 -15 12 -2 67 -16 122 -30 55
-14 114 -27 130 -30 30 -4 37 -6 113 -23 23 -5 42 -8 42 -5 0 3 6 0 13 -6 8
-6 16 -8 19 -6 3 3 27 1 54 -6 100 -23 216 -21 341 6 64 14 139 32 168 40 29
9 61 17 71 19 34 7 263 87 319 111 17 7 41 16 55 20 26 8 84 32 156 66 23 10
44 19 47 19 20 0 407 189 562 275 109 60 323 187 490 290 142 88 188 115 196
115 5 0 9 5 9 10 0 6 4 10 10 10 9 0 84 44 129 77 102 74 137 213 82 327 -28
58 -97 119 -153 135 -50 16 -130 16 -158 1 -11 -6 -20 -8 -20 -5 0 3 -12 -1
-27 -9 -16 -8 -68 -32 -118 -51 -49 -20 -103 -43 -120 -50 -16 -7 -66 -27
-110 -45 -44 -18 -125 -52 -180 -76 -123 -53 -175 -68 -175 -50 0 7 71 46 158
87 86 40 168 81 181 91 13 10 29 18 35 18 6 0 33 20 60 45 27 25 46 45 42 45
-4 0 1 12 12 28 10 15 20 34 20 42 8 85 6 115 -10 157 -38 101 -135 170 -239
168 -38 -1 -96 -17 -199 -54 -80 -30 -181 -67 -225 -83 -44 -16 -169 -61 -277
-100 -109 -40 -198 -76 -198 -80 0 -4 8 -16 18 -26 63 -64 105 -170 108 -274
5 -134 -40 -241 -143 -339 -61 -58 -144 -119 -162 -119 -6 0 -11 -5 -11 -11 0
-5 -4 -8 -9 -4 -5 3 -12 1 -16 -5 -3 -5 -15 -10 -26 -10 -10 0 -19 -4 -19 -8
0 -8 -104 -36 -170 -46 -245 -37 -657 -23 -846 30 -28 8 -60 16 -70 19 -30 6
-185 70 -229 95 -98 55 -136 78 -220 134 -49 33 -99 68 -109 78 -11 10 -23 18
-27 18 -3 0 -12 13 -18 28 -26 63 23 127 88 117 37 -6 192 -81 292 -141 49
-29 124 -66 239 -117 183 -81 725 -105 940 -42 3 1 26 8 53 15 26 8 47 17 47
21 0 4 10 9 23 13 13 3 34 15 48 26 145 121 175 235 96 365 -19 32 -114 104
-144 110 -10 2 -30 8 -45 14 -16 6 -72 13 -125 16 -299 17 -342 20 -403 29
-19 3 -55 8 -78 10 -80 9 -205 53 -246 87 -134 112 -292 232 -300 227 -2 -2
-12 4 -22 13 -29 26 -163 83 -219 94 -16 4 -41 9 -55 11 -14 3 -77 7 -140 9
-91 2 -138 -2 -225 -20z"/>
</g>
</svg>
