<svg xmlns="http://www.w3.org/2000/svg" width="24" height="24" viewBox="0 0 24 24"><g transform="translate(-46 -14)"><rect width="24" height="24" transform="translate(46 14)" fill="none"/><path d="M.768,7.012A.766.766,0,0,1,0,6.247C0,2.392,2.392,0,6.244,0h7.5C17.608,0,20,2.392,20,6.244v7.5C20,17.607,17.608,20,13.747,20h-7.5C2.41,20,0,17.607,0,13.747V11.178a.757.757,0,0,1,.756-.756H.765v.017a.765.765,0,0,1,.765.764v2.544c0,3.053,1.67,4.723,4.714,4.723h7.5c3.046,0,4.726-1.68,4.726-4.723v-7.5c0-3.034-1.68-4.714-4.723-4.714h-7.5c-3.043,0-4.714,1.68-4.714,4.714A.766.766,0,0,1,.768,7.012ZM5.914,10.75H12.27L9.793,13.217a.75.75,0,1,0,1.058,1.062l3.764-3.748s0,0,0,0a.734.734,0,0,0,.162-.243A.742.742,0,0,0,14.836,10h0a.065.065,0,0,0,0-.019.073.073,0,0,1,0-.016.754.754,0,0,0-.051-.251.782.782,0,0,0-.144-.22.046.046,0,0,1-.008-.011.048.048,0,0,0-.009-.012.742.742,0,0,0-.243-.163.756.756,0,0,0-.288-.058H5.914a.75.75,0,1,0,0,1.5ZM12.136,7,10.852,5.721A.75.75,0,1,0,9.793,6.783l1.284,1.278A.75.75,0,1,0,12.136,7Z" transform="translate(48 16)" fill="#0f1f2b" fill-rule="evenodd"/></g></svg>