<svg xmlns="http://www.w3.org/2000/svg" width="24" height="24" viewBox="0 0 24 24"><g transform="translate(-1623 -950)"><rect width="24" height="24" transform="translate(1623 950)" fill="none"/><path d="M5.322,16.329a.814.814,0,0,1-1.08-.073.847.847,0,0,1,0-1.184l7.177-7.326.084-.075a.812.812,0,0,1,1.079.073.846.846,0,0,1,0,1.183L5.406,16.254Zm14.436-.073a.814.814,0,0,1-1.164,0l-4.765-4.866-.073-.086a.847.847,0,0,1,.077-1.1.812.812,0,0,1,1.163,0l4.766,4.865.073.086A.847.847,0,0,1,19.757,16.256Z" transform="translate(1623 950.5)" fill="#0f1f2b" fill-rule="evenodd"/></g></svg>