<svg xmlns="http://www.w3.org/2000/svg" width="24" height="24" viewBox="0 0 24 24"><g transform="translate(-1635 -966)"><rect width="24" height="24" transform="translate(1635 966)" fill="none"/><path d="M4.242,7.744a.814.814,0,0,1,1.164,0l7.177,7.326a.846.846,0,0,1,0,1.183.812.812,0,0,1-1.163,0L4.241,8.927A.847.847,0,0,1,4.242,7.744Zm14.351,0a.814.814,0,0,1,1.164,0,.847.847,0,0,1,0,1.183l-4.766,4.865a.812.812,0,0,1-1.163,0,.847.847,0,0,1,0-1.183Z" transform="translate(1635 966.5)" fill="#0f1f2b" fill-rule="evenodd"/></g></svg>