<svg xmlns="http://www.w3.org/2000/svg" width="24" height="24" viewBox="0 0 24 24"><g transform="translate(-1383 -642)"><rect width="24" height="24" transform="translate(1383 642)" fill="none"/><path d="M20.284,12.824a.831.831,0,0,0-.1-1.654H5.8L11,5.919l.073-.085A.84.84,0,0,0,11,4.744a.81.81,0,0,0-1.156,0l-6.6,6.671-.073.083a.839.839,0,0,0-.106.821.817.817,0,0,0,.756.514H20.182ZM11,19.256a.839.839,0,0,0,0-1.175L7.355,14.4l-.084-.074A.807.807,0,0,0,6.2,14.4a.839.839,0,0,0,0,1.175L9.84,19.258l.084.074A.811.811,0,0,0,11,19.256Z" transform="translate(1383 642.5)" fill="#0f1f2b" fill-rule="evenodd"/></g></svg>