<svg xmlns="http://www.w3.org/2000/svg" width="75" height="77" viewBox="0 0 75 77"><rect width="68.657" height="47" transform="translate(2.671 26.473)" fill="#fff"/><path d="M958.19,318.354h-75V251.02h9.92c0,1.092-.013,2.2,0,3.3.061,4.382,3.041,7.612,7,7.605,3.985-.007,6.923-3.238,6.929-7.623,0-1.058,0-2.116,0-3.292h27.044c0,1.178-.017,2.293,0,3.407.077,4.3,3.2,7.584,7.128,7.506s6.829-3.281,6.844-7.539c0-1.064,0-2.128,0-3.342H958.19Zm-71.172-4.123c.576.059,1.007.142,1.438.142q24.763.01,49.528-.037a3.667,3.667,0,0,0,2.267-1.009c4.278-4.111,8.461-8.321,12.73-12.441a3.72,3.72,0,0,0,1.241-2.961c-.046-9.323-.023-18.645-.029-27.968,0-.6-.062-1.208-.094-1.778H887.018Z" transform="translate(-883.19 -241.354)" fill="#7bb928"/><path d="M1033.526,234.21c0,1.653.029,3.307-.008,4.96a3.226,3.226,0,0,1-2.933,3.383,3.092,3.092,0,0,1-3.482-2.807c-.168-3.742-.17-7.5-.011-11.243a3.049,3.049,0,0,1,3.491-2.772,3.089,3.089,0,0,1,2.934,3.328C1033.555,230.775,1033.526,232.493,1033.526,234.21Z" transform="translate(-972.389 -225.72)" fill="#7bb928"/><path d="M925.633,234.244c0,1.712.047,3.427-.011,5.137a3.188,3.188,0,0,1-3.091,3.216,3.065,3.065,0,0,1-3.276-2.815c-.152-3.734-.159-7.482-.008-11.215a3.2,3.2,0,0,1,6.372.351C925.676,230.691,925.631,232.469,925.633,234.244Z" transform="translate(-905.49 -225.761)" fill="#7bb928"/></svg>