<svg xmlns="http://www.w3.org/2000/svg" xmlns:xlink="http://www.w3.org/1999/xlink" width="56" height="56" viewBox="0 0 56 56"><defs><clipPath id="a"><circle cx="28" cy="28" r="28" fill="#c0dd98"/></clipPath></defs><g clip-path="url(#a)"><circle cx="28" cy="28" r="28" transform="translate(0 56)" fill="#fff"/></g><circle cx="28" cy="28" r="28" fill="#c0dd98"/><g transform="translate(0 2)"><rect width="31" height="31" transform="translate(13 11)" fill="none"/><path d="M16.5,2.825a.916.916,0,0,1,1.016-.817,10.665,10.665,0,0,1,9.441,9.5.922.922,0,0,1-.81,1.023.992.992,0,0,1-.1.006.922.922,0,0,1-.912-.822A8.835,8.835,0,0,0,17.31,3.847.925.925,0,0,1,16.5,2.825ZM4.292,6.52c-.631.874-.587,1.995.091,3.494a.929.929,0,0,1-.456,1.226.916.916,0,0,1-1.217-.459c-.963-2.132-.946-3.911.054-5.286.211-.358,2.543-3.372,4.726-3.228a2.816,2.816,0,0,1,1.754.884c.577.567,3.008,3.542,3.2,4.488a3.286,3.286,0,0,1-.571,2.381v0c-.325.569-.438.812-.326,1.119a10.977,10.977,0,0,0,3.754,4.87.931.931,0,0,1,.213,1.292.914.914,0,0,1-1.282.215,12.836,12.836,0,0,1-4.4-5.712A3.018,3.018,0,0,1,10.28,9.1c.277-.484.43-.773.365-1.081a23.415,23.415,0,0,0-2.687-3.54,1.112,1.112,0,0,0-.588-.363C6.544,4.075,4.7,5.841,4.292,6.52ZM18.356,17.209a3.73,3.73,0,0,1,2.823-.778c.938.195,3.891,2.643,4.455,3.225a2.835,2.835,0,0,1,.876,1.733c.08,2.272-2.945,4.649-3.291,4.849a3.834,3.834,0,0,1-2.3.721,6.85,6.85,0,0,1-2.867-.726c-4-1.676-10.056-7.1-13.458-12.084a.93.93,0,0,1,.235-1.287A.916.916,0,0,1,6.1,13.1c3.178,4.65,8.987,9.888,12.685,11.437,1.5.7,2.611.742,3.438.144.645-.395,2.481-2.23,2.448-3.186a1.227,1.227,0,0,0-.355-.548,22.132,22.132,0,0,0-3.569-2.72c-.395-.08-.8.154-1.416.546l-.319.2a.917.917,0,0,1-1.261-.316.929.929,0,0,1,.314-1.271ZM20.8,11.795a.921.921,0,0,0,.9.748.961.961,0,0,0,.178-.016.926.926,0,0,0,.727-1.086,6.343,6.343,0,0,0-5.015-5.049.926.926,0,0,0-.352,1.818A4.5,4.5,0,0,1,20.8,11.795Z" transform="translate(14 12)" fill="#fff" fill-rule="evenodd"/></g></svg>