<svg xmlns="http://www.w3.org/2000/svg" width="24" height="24" viewBox="0 0 24 24"><g transform="translate(-864.088 -786.088)"><rect width="24" height="24" transform="translate(864.088 786.088)" fill="none"/><path d="M2,12.116a10.113,10.113,0,1,1,2.1,6.169.736.736,0,0,1,1.165-.9,8.647,8.647,0,1,0-1.791-5.271,8.719,8.719,0,0,0,.1,1.314.735.735,0,0,1-1.454.223A10.218,10.218,0,0,1,2,12.116Zm9.038-4.211a.735.735,0,1,1,1.471,0v4.5l3.464,2.066a.735.735,0,0,1-.753,1.264L11.4,13.452a.739.739,0,0,1-.358-.632Z" transform="translate(863.972 785.972)" fill="#fff" fill-rule="evenodd"/></g></svg>