<svg xmlns="http://www.w3.org/2000/svg" width="24" height="24" viewBox="0 0 24 24"><g transform="translate(-1033 -785)"><rect width="24" height="24" transform="translate(1033 785)" fill="none"/><path d="M22,10.307a.71.71,0,0,1-.708.713L21.284,11a.7.7,0,0,1-.5-.209.716.716,0,0,1-.207-.5V8.846A4.439,4.439,0,0,0,16.2,4.435H7.8A4.439,4.439,0,0,0,3.424,8.846v6.309A4.439,4.439,0,0,0,7.8,19.565H16.2a4.439,4.439,0,0,0,4.379-4.411.716.716,0,0,1,1.424,0A5.842,5.842,0,0,1,16.2,21H7.8A5.833,5.833,0,0,1,2,15.155V8.846A5.824,5.824,0,0,1,7.8,3H16.2A5.842,5.842,0,0,1,22,8.846Zm-9.261,1.55,4.113-3.315h.009a.711.711,0,1,1,.884,1.114L13.632,12.98a2.841,2.841,0,0,1-3.582,0L5.927,9.656a.725.725,0,0,1-.106-1.007.7.7,0,0,1,.991-.107l4.157,3.315A1.425,1.425,0,0,0,12.739,11.857Z" transform="translate(1033 785)" fill="#0f1f2b" fill-rule="evenodd"/></g></svg>