<svg xmlns="http://www.w3.org/2000/svg" xmlns:xlink="http://www.w3.org/1999/xlink" width="229.995" height="135.998" viewBox="0 0 229.995 135.998"><defs><linearGradient id="a" y1="0.5" x2="1" y2="0.5" gradientUnits="objectBoundingBox"><stop offset="0" stop-color="#7dba29"/><stop offset="0.08" stop-color="#81ba31"/><stop offset="0.2" stop-color="#8bbc47"/><stop offset="0.36" stop-color="#9cbe6a"/><stop offset="0.53" stop-color="#b3c19b"/><stop offset="0.54" stop-color="#b5c19f"/><stop offset="0.63" stop-color="#a4bf7b"/><stop offset="0.74" stop-color="#93bd58"/><stop offset="0.84" stop-color="#87bb3e"/><stop offset="0.93" stop-color="#80ba2e"/><stop offset="1" stop-color="#7dba29"/></linearGradient></defs><g transform="translate(0.5 0.498)"><path d="M226.648,123.063c1.419-.524,2.727-1.011,4.039-1.488,1.887-.686,3.784-1.354,5.662-2.063a3.093,3.093,0,0,1,2.958,5.393,25.083,25.083,0,0,1-3.19,1.614c-.492.25-1,.464-1.5.709a.339.339,0,0,0-.213.39,4.968,4.968,0,0,0,1.855-.645c2.318-.927,4.572-1.9,6.863-2.829a3.121,3.121,0,0,1,4.029,1.465,3.162,3.162,0,0,1-1.145,4.15c-3.89,2.318-7.688,4.836-11.736,6.914a77.489,77.489,0,0,1-9.849,4.257,40.5,40.5,0,0,1-5.829,1.544,7.271,7.271,0,0,1-2.43-.046,63.717,63.717,0,0,1-8.017-1.776q-3.749-1.043-7.419-2.258c-.992-.325-2-.626-3-.927a4.414,4.414,0,0,0-2.17-.037,21,21,0,0,0-3.57,1.131,17.648,17.648,0,0,1-2.615.978,3.1,3.1,0,0,1-3.552-1.855,36.33,36.33,0,0,1-1.015-3.89c-.51-1.915-.927-3.858-1.363-5.787-.185-.793-.4-1.586-.575-2.379a3.155,3.155,0,0,1,2.263-3.71c1.688-.315,3.366-.682,5.045-1.062s3.464-.8,5.184-1.238,3.533-1.015,5.323-1.414a11.9,11.9,0,0,1,5.722-.088,11.165,11.165,0,0,1,3.932,2.045c.6.464,1.2.927,1.753,1.437a6.914,6.914,0,0,0,3.988,1.6c2.026.306,4.062.357,6.1.464a4.544,4.544,0,0,1,2.611,1.1,2.782,2.782,0,0,1,.58,3.631,4.957,4.957,0,0,1-2.842,2.054,11.152,11.152,0,0,1-3.009.519,26.343,26.343,0,0,1-8-.607,17.912,17.912,0,0,1-3.858-1.827c-.844-.464-1.7-.9-2.555-1.34a2.146,2.146,0,0,0-.58-.19,1.02,1.02,0,0,0-.876,1.813,29.82,29.82,0,0,0,3.19,2.138,16.572,16.572,0,0,0,7.669,2.416,30.405,30.405,0,0,0,6.728-.093,8.653,8.653,0,0,0,6.1-3.348,5.179,5.179,0,0,0-.236-6.334A5.4,5.4,0,0,1,226.648,123.063Z" transform="translate(-98.436 -63.627)" fill="#3b4552" stroke="#707070" stroke-width="1"/><path d="M255.361,78.333A114.9,114.9,0,0,1,274.642,55.2a68.924,68.924,0,0,0-7.938,6.492,96.666,96.666,0,0,0-7.22,7.419c-2.267,2.611-4.382,5.342-6.492,8.129-.3-.306-.181-.6-.144-.867a33.121,33.121,0,0,1,1.484-6.093,36.372,36.372,0,0,1,22.216-22.5,41.464,41.464,0,0,1,6.492-1.669,24.366,24.366,0,0,1,2.434-.246,1.614,1.614,0,0,1,1.73,1.716c-.037.38-.139.742-.209,1.113a36.679,36.679,0,0,1-2.986,9.172,37.753,37.753,0,0,1-5.5,8.346,35.792,35.792,0,0,1-7.493,6.492,33.386,33.386,0,0,1-7.159,3.561,41.5,41.5,0,0,1-4.6,1.391C258.023,77.92,256.766,78.082,255.361,78.333Z" transform="translate(-136.045 -24.783)" fill="#7bb928" stroke="#707070" stroke-width="1"/><path d="M313.3,209.487V196.341a4.313,4.313,0,0,0,0-.524c-.06-.464.172-.584.607-.584h6.747c.654,0,.663,0,.663.7v9.112a.322.322,0,0,0,.362.357c.255-.009.524,0,.788,0h7.711c.927,0,.821.083.825-.858v-8.959a.345.345,0,0,1,.371-.371h7.011c.621,0,.635,0,.635.635v26.737a4.842,4.842,0,0,0,0,.612c.065.492-.181.58-.612.58h-6.747c-.658,0-.668.042-.668-.672V211.972a.325.325,0,0,0-.366-.357c-.255.009-.645,0-.964,0h-7.516c-.927,0-.821-.093-.821.858V222.99c0,.774,0,.784-.742.784H314c-.7,0-.7,0-.7-.723Z" transform="translate(-168.577 -105.596)" fill="#18032d" stroke="#707070" stroke-width="1"/><path d="M251.649,217.741v-3.153c0-.385.139-.5.51-.5a2.036,2.036,0,0,1,1.368.417,16.313,16.313,0,0,0,8.606,3.352,11.782,11.782,0,0,0,3.654-.274,3.709,3.709,0,0,0,1.488-.7,1.753,1.753,0,0,0,.023-2.856,4.734,4.734,0,0,0-1.989-.862c-1.822-.4-3.649-.779-5.462-1.215a16.489,16.489,0,0,1-4.136-1.637c-4.7-2.606-5.05-9.329-1.618-12.575a12.478,12.478,0,0,1,6.459-3.283,26.43,26.43,0,0,1,14.027,1.391.686.686,0,0,1,.547.751c-.028,1.985,0,3.974,0,5.958,0,.464-.121.621-.594.621a2.045,2.045,0,0,1-1.28-.422,14.212,14.212,0,0,0-8.741-2.856,7.989,7.989,0,0,0-2.745.464,3.171,3.171,0,0,0-1.243.793,1.628,1.628,0,0,0,.417,2.657,9.274,9.274,0,0,0,2.407.784c1.989.464,4.006.779,5.954,1.391a14.894,14.894,0,0,1,3.5,1.563,7.057,7.057,0,0,1,3.39,5.986,8.4,8.4,0,0,1-3.645,7.54,13.4,13.4,0,0,1-6.39,2.425,27.154,27.154,0,0,1-13.739-1.743c-.89-.357-.756-.218-.765-1.118S251.649,218.705,251.649,217.741Z" transform="translate(-135.405 -104.97)" fill="#18032d" stroke="#707070" stroke-width="1"/><path d="M219.408,60.952a1.442,1.442,0,0,1-1.665,1.637,15.552,15.552,0,0,1-2.847-.371,28.967,28.967,0,0,1-20.171-15.733,31.205,31.205,0,0,1-2.012-5.467c-.185-.7-.329-1.414-.464-2.128a1.641,1.641,0,0,1,1.892-2.054,27.071,27.071,0,0,1,3.1.524,29.3,29.3,0,0,1,6.867,2.485A29.885,29.885,0,0,1,209.94,43.8a28.146,28.146,0,0,1,6.492,8.119,24.9,24.9,0,0,1,2.509,6.575A9.524,9.524,0,0,1,219.408,60.952Z" transform="translate(-103.416 -19.742)" fill="#7bb928" stroke="#707070" stroke-width="1"/><path d="M141.782,195.31h12.177c.292,0,.427.107.422.408v5.43c0,.464-.352.376-.621.38h-7.53c-.394,0-.5.144-.464.51v20.848c0,1.094.116.974-.992.974h-6.241c-.881,0-.793.042-.793-.807v-20.4c0-1.108,0-1.108-1.094-1.108h-6.835c-.7,0-.709,0-.709-.728V196c0-.658,0-.668.677-.672Z" transform="translate(-69.466 -105.65)" fill="#18032d" stroke="#707070" stroke-width="1"/><path d="M452.69,195.294h11.565a4.124,4.124,0,0,0,.524,0c.487-.065.612.19.58.617v4.642c0,1.113,0,.96-.927.964h-6.747c-1.155,0-.992-.116-.992.96v20.4c0,1.08.125.927-.927.927h-6.223c-.927,0-.825.107-.825-.858v-20.4c0-1.182.167-1.048-1.085-1.053h-6.914c-.663,0-.672,0-.677-.682v-4.818c0-.7,0-.714.728-.714Z" transform="translate(-236.779 -105.634)" fill="#18032d" stroke="#707070" stroke-width="1"/><path d="M255.863,16.232a23.556,23.556,0,0,1-1.34,8.231,24.844,24.844,0,0,1-3.436,6.635,4.892,4.892,0,0,1-.464.533,1.572,1.572,0,0,1-2.254,0,14.968,14.968,0,0,1-2.133-3.181,26.552,26.552,0,0,1-2.128-5.142,30.1,30.1,0,0,1-.96-5.564,25.647,25.647,0,0,1,.274-5.907,20.76,20.76,0,0,1,1.257-4.795A27.357,27.357,0,0,1,247.916,1a1.751,1.751,0,0,1,1.7-.983,1.577,1.577,0,0,1,1.127.556,17.157,17.157,0,0,1,2.091,3.2,26.429,26.429,0,0,1,1.883,4.493,25.251,25.251,0,0,1,1.145,7.966Z" transform="translate(-130.776 -0.005)" fill="#7bb928" stroke="#707070" stroke-width="1"/><path d="M400.268,162.346H372.576c-1.113,0-1.164-.07-1.053-1.187.032-.315.172-.4.464-.389s.408,0,.612,0h55.365c1.08,0,1.1.042,1.016,1.141-.028.348-.176.464-.5.441h-.7Z" transform="translate(-200.011 -86.724)" fill="#7cb92a" stroke="#707070" stroke-width="1"/><path d="M114.869,289.69h109.89c4.238,0,4.621.13,4.048,1.215-.134.25-.522.366-1.52.362H4.368c-4,0-4.926-.311-4-1.308.157-.167.462-.255,1.123-.26H4.627Z" transform="translate(-0.02 -156.267)" stroke="#707070" stroke-width="1" fill="url(#a)"/><path d="M28.887,162.47H56.495c1.062,0,1.164.13,1.015,1.215-.032.25-.13.366-.38.362H1.121c-1.006,0-1.238-.311-1.006-1.308.037-.167.116-.255.283-.26h.788Z" transform="translate(-0.017 -87.642)" fill="#7bb929" stroke="#707070" stroke-width="1"/><path d="M405.019,223.125q-5.013-13.591-10.034-27.135c-.25-.682-.255-.686-.992-.686h-7.271c-.9,0-.77-.121-1.1.774q-4.952,13.359-9.886,26.723a2.782,2.782,0,0,0-.292.988.821.821,0,0,0,.185.051h7.359c.4,0,.547-.167.663-.519.505-1.521,1.053-3.028,1.553-4.549a.756.756,0,0,1,.862-.621q4.173.042,8.323,0a.747.747,0,0,1,.858.626c.464,1.47,1.006,2.921,1.512,4.377.278.811.209.672.974.677h7.405C405.255,223.538,405.1,223.339,405.019,223.125Zm-17.583-10.846,2.782-8.124L393,212.279Z" transform="translate(-202.134 -105.644)" fill="#18032d" stroke="#707070" stroke-width="1"/><path d="M98.15,223.109q-4.085-5.258-8.184-10.5c-.668-.858-.668-.853.264-1.451a8.554,8.554,0,0,0,4.016-5.2,10.952,10.952,0,0,0,.223-3.83,6.538,6.538,0,0,0-2.008-4.076,8.973,8.973,0,0,0-4.173-2.272,20.722,20.722,0,0,0-4.869-.464c-3.914-.028-7.827,0-11.745,0h-.524c-.25,0-.385.1-.394.352s0,.464,0,.7V223.1c0,.756,0,.76.765.76h6.492c.714,0,.719,0,.719-.7v-7.535c0-.607-.26-1.391.1-1.776s1.215-.079,1.855-.153a1.145,1.145,0,0,1,1.15.58c2.212,3.014,4.451,6,6.663,9.019a1.252,1.252,0,0,0,1.15.589c2.745-.023,5.49,0,8.24,0,.218,0,.464.074.677-.083C98.53,223.448,98.3,223.3,98.15,223.109ZM83.386,207.682a25.714,25.714,0,0,1-4.285.2c-.4,0-.4-.227-.4-.505v-5.7c0-.376.107-.51.492-.5,1.312.032,2.629,0,3.941.065,1.961.093,3.023,1.034,3.144,2.62A3.27,3.27,0,0,1,83.386,207.682Z" transform="translate(-37.944 -105.646)" fill="#18032d" stroke="#707070" stroke-width="1"/><path d="M27.265,216.889q-3.849-10.41-7.707-20.82c-.292-.784-.079-.765-1.108-.765H11.267c-.9,0-.765-.116-1.1.779q-4.98,13.452-9.942,26.9a1.651,1.651,0,0,0-.227.872H7.618c.394,0,.464-.232.57-.524.515-1.516,1.057-3.023,1.553-4.549a.756.756,0,0,1,.867-.617q4.173.042,8.323,0a.747.747,0,0,1,.858.645c.464,1.47,1.006,2.921,1.512,4.377.278.8.195.672.978.672h7.4a.8.8,0,0,0-.088-.649Q28.429,220.047,27.265,216.889ZM12,212.252l2.782-8.1,2.782,8.1Z" transform="translate(0.001 -105.644)" fill="#18032d" stroke="#707070" stroke-width="1"/><path d="M213.948,223.214q-5.036-13.6-10.081-27.209c-.26-.7-.264-.7-.974-.7H195.71c-1.039,0-.858-.121-1.22.853q-4.948,13.378-9.9,26.723c-.107.292-.315.57-.223.927a.6.6,0,0,0,.167.051H191.9c.431,0,.543-.223.649-.543q.728-2.152,1.47-4.3c.287-.844.287-.844,1.22-.844h7.883c.788,0,.793,0,1.039.719.505,1.461,1.025,2.912,1.5,4.382a.7.7,0,0,0,.784.589c1.224-.032,2.453,0,3.677,0h3.923A.955.955,0,0,0,213.948,223.214Zm-17.62-10.948,2.717-7.883.158.023,2.7,7.883Z" transform="translate(-99.202 -105.644)" fill="#18032d" stroke="#707070" stroke-width="1"/></g></svg>