<svg xmlns="http://www.w3.org/2000/svg" width="36" height="35.922" viewBox="0 0 36 35.922"><rect width="36" height="35.922" rx="2" fill="#0f1f2b"/><g transform="translate(6.77 6.525)"><path d="M11.714,5.838a5.868,5.868,0,1,0,5.868,5.868,5.868,5.868,0,0,0-5.868-5.868Zm0,9.677a3.809,3.809,0,1,1,3.809-3.809A3.808,3.808,0,0,1,11.714,15.515Z" transform="translate(-0.275 -0.275)" fill="#fff"/><path d="M16.15.072c-2.1-.1-7.316-.093-9.422,0a6.834,6.834,0,0,0-4.8,1.85C-.27,4.121.011,7.085.011,11.431c0,4.448-.248,7.343,1.918,9.509,2.208,2.207,5.214,1.918,9.509,1.918,4.406,0,5.927,0,7.485-.6,2.118-.822,3.717-2.716,3.874-6.117.1-2.105.093-7.316,0-9.422C22.609,2.705,20.455.271,16.15.072Zm3.33,19.413c-1.442,1.442-3.442,1.313-8.069,1.313-4.765,0-6.675.071-8.069-1.327-1.606-1.6-1.315-4.164-1.315-8.055,0-5.265-.54-9.057,4.744-9.327,1.214-.043,1.571-.057,4.627-.057l.043.029c5.078,0,9.062-.532,9.3,4.751.054,1.205.067,1.568.067,4.619,0,4.709.089,6.631-1.328,8.055Z" transform="translate(0 -0.001)" fill="#fff"/><circle cx="1.371" cy="1.371" r="1.371" transform="translate(16.169 3.96)" fill="#fff"/></g></svg>