<svg xmlns="http://www.w3.org/2000/svg" xmlns:xlink="http://www.w3.org/1999/xlink" width="118" height="70" viewBox="0 0 118 70"><defs><linearGradient id="a" y1="0.5" x2="1" y2="0.5" gradientUnits="objectBoundingBox"><stop offset="0" stop-color="#7dba29"/><stop offset="0.08" stop-color="#81ba31"/><stop offset="0.2" stop-color="#8bbc47"/><stop offset="0.36" stop-color="#9cbe6a"/><stop offset="0.53" stop-color="#b3c19b"/><stop offset="0.54" stop-color="#b5c19f"/><stop offset="0.63" stop-color="#a4bf7b"/><stop offset="0.74" stop-color="#93bd58"/><stop offset="0.84" stop-color="#87bb3e"/><stop offset="0.93" stop-color="#80ba2e"/><stop offset="1" stop-color="#7dba29"/></linearGradient></defs><g transform="translate(0.001 -0.005)"><g transform="translate(-0.001 0.005)"><path d="M205.56,120.536c.737-.272,1.415-.525,2.1-.773.98-.356,1.964-.7,2.939-1.071a1.606,1.606,0,0,1,1.536,2.8,13.024,13.024,0,0,1-1.656.838c-.255.13-.52.241-.777.368a.176.176,0,0,0-.111.2,2.579,2.579,0,0,0,.963-.335c1.2-.481,2.373-.984,3.562-1.468a1.62,1.62,0,0,1,2.092.761,1.642,1.642,0,0,1-.595,2.154c-2.02,1.2-3.991,2.511-6.092,3.589a40.223,40.223,0,0,1-5.113,2.21,21.023,21.023,0,0,1-3.026.8,3.774,3.774,0,0,1-1.261-.024,33.076,33.076,0,0,1-4.162-.922q-1.946-.542-3.851-1.172c-.515-.169-1.037-.325-1.557-.481a2.292,2.292,0,0,0-1.127-.019,10.9,10.9,0,0,0-1.853.587,9.164,9.164,0,0,1-1.358.508,1.608,1.608,0,0,1-1.844-.963,18.859,18.859,0,0,1-.527-2.02c-.265-.994-.481-2-.708-3-.1-.412-.207-.823-.3-1.235a1.638,1.638,0,0,1,1.175-1.926c.876-.164,1.748-.354,2.619-.551s1.8-.416,2.691-.643,1.834-.527,2.763-.734a6.177,6.177,0,0,1,2.97-.046,5.8,5.8,0,0,1,2.041,1.062c.311.241.623.481.91.746a3.589,3.589,0,0,0,2.07.828c1.052.159,2.109.185,3.168.241a2.359,2.359,0,0,1,1.355.573,1.444,1.444,0,0,1,.3,1.885,2.573,2.573,0,0,1-1.476,1.066,5.789,5.789,0,0,1-1.562.27,13.675,13.675,0,0,1-4.152-.315,9.3,9.3,0,0,1-2-.948c-.438-.241-.881-.467-1.326-.7a1.115,1.115,0,0,0-.3-.1.53.53,0,0,0-.455.941,15.48,15.48,0,0,0,1.656,1.11,8.6,8.6,0,0,0,3.981,1.254,15.784,15.784,0,0,0,3.493-.048,4.492,4.492,0,0,0,3.168-1.738,2.689,2.689,0,0,0-.123-3.288A2.811,2.811,0,0,1,205.56,120.536Z" transform="translate(-139.453 -89.722)" fill="#3b4552"/><path d="M254.127,62.717a59.645,59.645,0,0,1,10.009-12.009,35.776,35.776,0,0,0-4.121,3.37,50.173,50.173,0,0,0-3.748,3.851c-1.177,1.355-2.275,2.773-3.37,4.22-.154-.159-.094-.311-.075-.45a17.2,17.2,0,0,1,.77-3.163,18.881,18.881,0,0,1,11.532-11.679,21.525,21.525,0,0,1,3.37-.867,12.648,12.648,0,0,1,1.264-.128.838.838,0,0,1,.9.891c-.019.2-.072.385-.108.578A19.039,19.039,0,0,1,269,52.092a19.6,19.6,0,0,1-2.857,4.333,18.578,18.578,0,0,1-3.89,3.37,17.331,17.331,0,0,1-3.717,1.849,21.537,21.537,0,0,1-2.385.722C255.509,62.5,254.856,62.587,254.127,62.717Z" transform="translate(-192.714 -34.935)" fill="#7bb928"/><path d="M313.295,202.621V195.8a2.247,2.247,0,0,0,0-.272c-.031-.241.089-.3.315-.3h3.5c.339,0,.344,0,.344.361v4.73a.167.167,0,0,0,.188.185c.132,0,.272,0,.409,0h4c.481,0,.426.043.428-.445V195.4a.179.179,0,0,1,.193-.193h3.639c.323,0,.33,0,.33.33v13.879a2.509,2.509,0,0,0,0,.318c.034.255-.094.3-.318.3h-3.5c-.342,0-.347.022-.347-.349v-5.777a.169.169,0,0,0-.19-.185c-.132,0-.335,0-.5,0h-3.9c-.481,0-.426-.048-.426.445v5.459c0,.4,0,.407-.385.407H313.66c-.361,0-.363,0-.366-.376Z" transform="translate(-238.791 -148.77)" fill="#18032d"/><path d="M251.648,206.345v-1.637c0-.2.072-.26.265-.26a1.057,1.057,0,0,1,.71.217,8.468,8.468,0,0,0,4.468,1.74,6.117,6.117,0,0,0,1.9-.142,1.926,1.926,0,0,0,.773-.366.91.91,0,0,0,.012-1.483,2.457,2.457,0,0,0-1.033-.448c-.946-.209-1.894-.4-2.836-.631a8.558,8.558,0,0,1-2.147-.85,4.207,4.207,0,0,1-.84-6.528,6.477,6.477,0,0,1,3.353-1.7,13.72,13.72,0,0,1,7.281.722.356.356,0,0,1,.284.39c-.014,1.03,0,2.063,0,3.093,0,.241-.063.323-.308.323a1.061,1.061,0,0,1-.664-.219,7.378,7.378,0,0,0-4.537-1.483,4.148,4.148,0,0,0-1.425.241,1.646,1.646,0,0,0-.645.412.845.845,0,0,0,.217,1.379,4.816,4.816,0,0,0,1.249.407c1.033.241,2.08.4,3.091.722a7.732,7.732,0,0,1,1.817.811,3.663,3.663,0,0,1,1.76,3.108,4.362,4.362,0,0,1-1.892,3.914,6.956,6.956,0,0,1-3.317,1.259,14.1,14.1,0,0,1-7.132-.905c-.462-.185-.392-.113-.4-.58S251.648,206.845,251.648,206.345Z" transform="translate(-191.803 -147.884)" fill="#18032d"/><path d="M206.319,49.34a.749.749,0,0,1-.864.85A8.073,8.073,0,0,1,203.977,50a15.037,15.037,0,0,1-10.471-8.167,16.2,16.2,0,0,1-1.045-2.838c-.1-.363-.171-.734-.241-1.1a.852.852,0,0,1,.982-1.066,14.053,14.053,0,0,1,1.608.272,15.207,15.207,0,0,1,3.565,1.29,15.514,15.514,0,0,1,3.028,2.051,14.611,14.611,0,0,1,3.37,4.215,12.923,12.923,0,0,1,1.3,3.413A4.944,4.944,0,0,1,206.319,49.34Z" transform="translate(-146.492 -27.948)" fill="#7bb928"/><path d="M135.683,195.31H142c.152,0,.221.055.219.212v2.819c0,.241-.183.195-.323.2h-3.909c-.2,0-.258.075-.241.265v10.822c0,.568.06.505-.515.505H134c-.457,0-.412.022-.412-.419V199.12c0-.575,0-.575-.568-.575h-3.548c-.363,0-.368,0-.368-.378v-2.5c0-.342,0-.347.351-.349Z" transform="translate(-98.4 -148.846)" fill="#18032d"/><path d="M446.607,195.287h6a2.134,2.134,0,0,0,.272,0c.253-.034.318.1.3.32v2.409c0,.578,0,.5-.481.5h-3.5c-.6,0-.515-.06-.515.5v10.591c0,.561.065.481-.481.481h-3.23c-.481,0-.428.055-.428-.445V199.052c0-.614.087-.544-.563-.546h-3.589c-.344,0-.349,0-.352-.354v-2.5c0-.366,0-.371.378-.371Z" transform="translate(-335.401 -148.824)" fill="#18032d"/><path d="M249.719,8.429a12.228,12.228,0,0,1-.7,4.273,12.9,12.9,0,0,1-1.784,3.445,2.541,2.541,0,0,1-.241.277.816.816,0,0,1-1.17,0,7.77,7.77,0,0,1-1.107-1.651,13.784,13.784,0,0,1-1.1-2.669,15.621,15.621,0,0,1-.5-2.888,13.313,13.313,0,0,1,.142-3.067,10.777,10.777,0,0,1,.652-2.489,14.2,14.2,0,0,1,1.68-3.136.909.909,0,0,1,.883-.51.818.818,0,0,1,.585.289,8.9,8.9,0,0,1,1.086,1.661,13.717,13.717,0,0,1,.977,2.332,13.108,13.108,0,0,1,.595,4.135Z" transform="translate(-185.24 -0.005)" fill="#7bb928"/><path d="M386.425,161.587H372.05c-.578,0-.6-.036-.546-.616.017-.164.089-.207.241-.2s.212,0,.318,0H400.8c.561,0,.573.022.527.592-.014.181-.091.241-.258.229h-.364Z" transform="translate(-283.347 -122.376)" fill="#7cb92a"/><path d="M59.208,289.69h56.625c2.184,0,2.381.067,2.086.631-.069.13-.269.19-.783.188H2.269c-2.062,0-2.538-.161-2.062-.679.081-.087.238-.132.579-.135H2.4Z" transform="translate(-0.028 -220.508)" fill="url(#a)"/><path d="M15.011,162.47H29.342c.551,0,.6.067.527.631-.017.13-.067.19-.2.188H.6c-.522,0-.643-.161-.522-.679.019-.087.06-.132.147-.135H.631Z" transform="translate(-0.024 -123.671)" fill="#7bb929"/><path d="M390.795,209.744q-2.6-7.055-5.209-14.086c-.13-.354-.132-.356-.515-.356H381.3c-.467,0-.4-.063-.573.4q-2.571,6.935-5.132,13.872a1.445,1.445,0,0,0-.152.513.425.425,0,0,0,.1.026h3.82c.209,0,.284-.087.344-.27.262-.79.546-1.572.806-2.361a.392.392,0,0,1,.448-.323q2.166.022,4.321,0a.388.388,0,0,1,.445.325c.241.763.522,1.516.785,2.272.144.421.108.349.505.351h3.844C390.917,209.958,390.836,209.854,390.795,209.744Zm-9.128-5.63,1.444-4.217,1.444,4.217Z" transform="translate(-286.351 -148.838)" fill="#18032d"/><path d="M84.974,209.738q-2.121-2.73-4.248-5.452c-.347-.445-.347-.443.137-.753a4.44,4.44,0,0,0,2.085-2.7,5.686,5.686,0,0,0,.116-1.988,3.394,3.394,0,0,0-1.042-2.116,4.658,4.658,0,0,0-2.166-1.179,10.758,10.758,0,0,0-2.527-.241c-2.032-.014-4.063,0-6.1,0h-.272c-.13,0-.2.053-.2.183s0,.241,0,.363v13.874c0,.392,0,.395.4.395h3.37c.371,0,.373,0,.373-.366v-3.911c0-.315-.135-.722.053-.922s.631-.041.963-.079a.6.6,0,0,1,.6.3c1.148,1.565,2.311,3.117,3.459,4.682a.65.65,0,0,0,.6.306c1.425-.012,2.85,0,4.277,0,.113,0,.241.039.351-.043C85.172,209.913,85.054,209.839,84.974,209.738Zm-7.664-8.008a13.352,13.352,0,0,1-2.224.1c-.207,0-.207-.118-.207-.262v-2.958c0-.195.055-.265.255-.258.681.017,1.365,0,2.046.034,1.018.048,1.569.537,1.632,1.36A1.7,1.7,0,0,1,77.31,201.729Z" transform="translate(-53.721 -148.841)" fill="#18032d"/><path d="M14.153,206.507q-2-5.4-4-10.808c-.152-.407-.041-.4-.575-.4H5.849c-.469,0-.4-.06-.57.4Q2.693,202.689.117,209.67a.857.857,0,0,0-.118.453H3.954c.2,0,.241-.12.3-.272.267-.787.549-1.569.806-2.361a.392.392,0,0,1,.45-.32q2.166.022,4.321,0a.388.388,0,0,1,.445.335c.241.763.522,1.516.785,2.272.144.416.1.349.508.349H15.4a.416.416,0,0,0-.046-.337Q14.757,208.146,14.153,206.507ZM6.226,204.1l1.444-4.205L9.115,204.1Z" transform="translate(0.001 -148.838)" fill="#18032d"/><path d="M199.714,209.79q-2.614-7.062-5.233-14.125c-.135-.361-.137-.363-.505-.363h-3.729c-.539,0-.445-.063-.633.443q-2.568,6.944-5.137,13.872c-.055.152-.164.3-.116.481a.31.31,0,0,0,.087.026h3.82c.224,0,.282-.116.337-.282q.378-1.117.763-2.231c.149-.438.149-.438.633-.438h4.092c.409,0,.412,0,.539.373.262.758.532,1.512.78,2.275a.361.361,0,0,0,.407.306c.635-.017,1.273,0,1.909,0h2.036A.5.5,0,0,0,199.714,209.79Zm-9.147-5.683,1.411-4.092.082.012,1.4,4.092Z" transform="translate(-140.523 -148.839)" fill="#18032d"/></g></g></svg>