<?xml version="1.0" standalone="no"?>
<!DOCTYPE svg PUBLIC "-//W3C//DTD SVG 1.1//EN" "http://www.w3.org/Graphics/SVG/1.1/DTD/svg11.dtd" >
<svg>
<metadata>
Created by FontForge 20090914 at Thu Jan 21 22:30:03 2021
 By www-data
Copyright 2017 The Mardoto Project Authors (https://github.com/vahanhovh/mardoto)
</metadata>
<defs>
<font id="Mardoto-Light" horiz-adv-x="1136" >
  <font-face 
    font-family="Mardoto Light"
    font-weight="400"
    font-stretch="normal"
    units-per-em="2048"
    panose-1="0 0 5 0 0 0 0 0 0 0"
    ascent="1536"
    descent="-512"
    x-height="1082"
    cap-height="1456"
    bbox="-435 -555 3124 2146"
    underline-thickness="100"
    underline-position="-100"
    unicode-range="U+000D-U+2212"
  />
<missing-glyph horiz-adv-x="1351" 
d="M1107 -555h-856v2701h856v-2701zM454 1965v-89h175v-100h-178v-89h448v89h-178v100h178v89h-445zM451 1617v-281h448v92h-178v189h-270zM629 1428h-89v97h89v-97zM451 1263v-89h178v-100h-178v-89h270v189h178v89h-448zM810 1101v-179h-359v-91h448v270h-89zM629 771
v-151h92v62h89v-127h-270v216h-89v-305h448v305h-270zM451 304v-305h448v305h-448zM810 88h-270v127h270v-127zM451 -63v-90h189l-189 -126v-90h448v90h-275l189 126h86v90h-448z" />
    <glyph glyph-name="uni0535054E.liga" unicode="&#x535;&#x54e;" horiz-adv-x="2893" 
d="M2833 105v-104.999h-435v539c-47.333 -56.667 -104.5 -101.334 -171.5 -134.001s-139.167 -49 -216.5 -49c-96.667 0 -183.834 18.5 -261.501 55.5s-139 92.167 -184 165.5s-67.5 163 -67.5 269v131h-1202v-507c0 -82.667 16.5 -153 49.5 -211
s78.833 -101.667 137.5 -131s126 -44 202 -44c76.667 0 144.334 14.667 203.001 44s104.5 73 137.5 131s49.5 128.333 49.5 211v160h123v-160c0 -106 -22.5 -195.667 -67.5 -269s-106.333 -128.5 -184 -165.5s-164.834 -55.5 -261.501 -55.5
c-98.667 0 -186.5 18.333 -263.5 55s-137.5 91.834 -181.5 165.501s-66 163.5 -66 269.5v1066h122v-454h1325v-236c0 -82.667 16.5 -153 49.5 -211s78.833 -101.667 137.5 -131s126.334 -44 203.001 -44c71.333 0 135.5 16.333 192.5 49s102.667 78.667 137 138
s53.833 127.666 58.5 204.999v684h123v-1431h312z" />
    <glyph glyph-name="uni05390545.liga" unicode="&#x539;&#x545;" horiz-adv-x="3240" 
d="M3045.5 655c52.333 -61.333 78.5 -139.673 78.5 -235.006c0 -91.333 -24 -170.166 -72 -236.499s-115.167 -116.833 -201.5 -151.5s-186.166 -52 -299.5 -52c-106 0 -201 18 -285 54s-149.833 87.833 -197.5 155.5s-71.5 147.167 -71.5 238.5h123
c0 -63.333 18.167 -121.166 54.5 -173.499s87.333 -93.833 153 -124.5s140.167 -46 223.5 -46c94 0 174.833 13.833 242.5 41.5s119.167 66.334 154.5 116.001s53 107.5 53 173.5c0 107.333 -38.333 187 -115 239s-187 78 -331 78h-1026v-312
c0 -134 -34.333 -240.833 -103 -320.5s-178 -119.5 -328 -119.5c-90.667 0 -169.334 17 -236.001 51s-117.667 82.167 -153 144.5s-53 135.5 -53 219.5v28c0 84 17.667 157 53 219s86.333 110 153 144s145.334 51 236.001 51h308v204c0 82.667 -24.833 155.167 -74.5 217.5
s-116.667 110.166 -201 143.499s-177.166 50 -278.499 50c-102.667 0 -196.334 -16.667 -281.001 -50s-151.667 -81.166 -201 -143.499s-74 -134.833 -74 -217.5v-1041h-123v1041c0 106.667 29.667 198.834 89 276.501s140.5 136.834 243.5 177.501s218.5 61 346.5 61
c130 0 246.333 -20.333 349 -61s183 -99.834 241 -177.501s87 -169.834 87 -276.501v-204h1033c135.333 0 236.5 26.833 303.5 80.5s100.5 126.5 100.5 218.5c0 60.667 -15.167 114.834 -45.5 162.501s-76.5 85.334 -138.5 113.001s-139 41.5 -231 41.5
c-72 0 -138.5 -13.5 -199.5 -40.5s-109.5 -64.833 -145.5 -113.5s-54 -104 -54 -166h-123c0 84.667 23.333 159.167 70 223.5s109.834 113.833 189.5 148.5c79.667 34.667 167.167 52 262.5 52c110 0 205.333 -16.167 286 -48.5s142.834 -80.333 186.5 -144
c43.667 -63.667 65.5 -141.167 65.5 -232.5c0 -76 -23.833 -144.5 -71.5 -205.5s-115.5 -107.167 -203.5 -138.5c102 -27.333 179.167 -71.666 231.5 -132.999zM1406 731.993h-308c-70.667 0 -129.834 -14.5 -177.501 -43.5s-83.167 -68.333 -106.5 -118
s-35 -105.834 -35 -168.501c0 -60.667 11.833 -115 35.5 -163s59.334 -85.833 107.001 -113.5s106.5 -41.5 176.5 -41.5c104 0 181.333 30.333 232 91s76 142.334 76 245.001v312z" />
    <glyph glyph-name="uni0544053E.liga" unicode="&#x544;&#x53e;" horiz-adv-x="2920" 
d="M2980 1196h-377c70 -51.333 124 -118.666 162 -201.999s57 -178.333 57 -285v-138c0 -118.667 -23.167 -222.667 -69.5 -312s-112.166 -158.166 -197.499 -206.499s-185 -72.5 -299 -72.5c-110.667 0 -208.667 23.667 -294 71s-152 114.666 -200 201.999
s-72.667 189 -74 305v151c0 106 19.167 200.667 57.5 284s92.5 151 162.5 203h-66c-95.333 0 -176.333 20.833 -243 62.5s-111.334 99.167 -134.001 172.5h-268v-961c0 -106 -22 -195.833 -66 -269.5s-104.5 -128.834 -181.5 -165.501s-164.833 -55 -263.5 -55
c-96.667 0 -183.834 18.5 -261.501 55.5s-139 92.167 -184 165.5s-67.5 163 -67.5 269v1066h123v-1066c0 -82.667 16.5 -153 49.5 -211s78.833 -101.667 137.5 -131s126.334 -44 203.001 -44c76 0 143.333 14.667 202 44s104.5 73 137.5 131s49.5 128.333 49.5 211v1066h498
c0 -44 12.167 -84 36.5 -120s58.833 -64.167 103.5 -84.5s96 -30.5 154 -30.5h1113v-105zM2647.5 967c-35 72.667 -85.998 128.501 -152.998 167.501s-147.167 58.5 -240.5 58.5c-90.667 0 -169.334 -19.667 -236.001 -59s-117.834 -95.333 -153.501 -168
s-53.5 -158.334 -53.5 -257.001v-137c0 -98.667 18 -184.5 54 -257.5s87.5 -129 154.5 -168s145.833 -58.5 236.5 -58.5c93.333 0 173.333 19.5 240 58.5s117.334 94.833 152 167.5c34.667 72.667 52 158.667 52 258v137c0 99.333 -17.5 185.333 -52.5 258z" />
    <glyph glyph-name="uni05440546.liga" unicode="&#x544;&#x546;" horiz-adv-x="3069" 
d="M2926 880l0.00195312 -409.998c0 -106 -22 -195.833 -66 -269.5s-104.5 -128.834 -181.5 -165.501s-164.833 -55 -263.5 -55c-96.667 0 -183.834 18.5 -261.501 55.5s-139 92.167 -184 165.5s-67.5 163 -67.5 269v899c-8 -0.666992 -20 -1 -36 -1
c-35.333 0 -66.666 2 -93.999 6s-63 10.333 -107 19c-56.667 12 -110.834 21.333 -162.501 28s-116.167 10 -193.5 10c-32.667 0 -59.5 -10.5 -80.5 -31.5s-31.5 -47.833 -31.5 -80.5v-849c0 -106 -22 -195.833 -66 -269.5s-104.5 -128.834 -181.5 -165.501
s-164.833 -55 -263.5 -55c-96.667 0 -183.834 18.5 -261.501 55.5s-139 92.167 -184 165.5s-67.5 163 -67.5 269v1066h123v-1066c0 -82.667 16.5 -153 49.5 -211s78.833 -101.667 137.5 -131s126.334 -44 203.001 -44c76 0 143.333 14.667 202 44s104.5 73 137.5 131
s49.5 128.333 49.5 211v862c0 42 8.66699 78.333 26 109s41.5 54.167 72.5 70.5s66.167 24.5 105.5 24.5c82 0 150.333 -2.83301 205 -8.5s114 -14.167 178 -25.5c47.333 -8 87.166 -13.833 119.499 -17.5s68.833 -5.5 109.5 -5.5c42 0 86.667 2.33301 134 7v-1016
c0 -82.667 16.5 -153 49.5 -211s78.833 -101.667 137.5 -131s126.334 -44 203 -44c76 0 143.333 14.667 202 44s104.5 73 137.5 131s49.5 128.333 49.5 211v410h122z" />
    <glyph glyph-name="uni05440576.liga" unicode="&#x544;&#x576;" horiz-adv-x="2709" 
d="M2543 1082l-0.000976562 -1082h-115l-3 137c-72 -104.667 -186.667 -157 -344 -157c-111.333 0 -198.5 32.5 -261.5 97.5s-94.5 167.5 -94.5 307.5v984c-8 -0.666992 -19.667 -1 -35 -1c-40 0 -74.167 2.83301 -102.5 8.5s-61.5 13.834 -99.5 24.501
c-35.333 10 -65.5 17.5 -90.5 22.5s-54.5 7.5 -88.5 7.5c-32.667 0 -59.5 -10.5 -80.5 -31.5s-31.5 -47.833 -31.5 -80.5v-849c0 -106 -22 -195.833 -66 -269.5s-104.5 -128.834 -181.5 -165.501s-164.833 -55 -263.5 -55c-96.667 0 -183.834 18.5 -261.501 55.5
s-139 92.167 -184 165.5s-67.5 163 -67.5 269v1066h123v-1066c0 -82.667 16.5 -153 49.5 -211s78.833 -101.667 137.5 -131s126.334 -44 203.001 -44c76 0 143.333 14.667 202 44s104.5 73 137.5 131s49.5 128.333 49.5 211v862c0 42 8.66699 78.333 26 109
s41.5 54.167 72.5 70.5s66.167 24.5 105.5 24.5c38.667 0 71.834 -2.16699 99.501 -6.5s63.167 -11.166 106.5 -20.499c42 -10 79.333 -17.5 112 -22.5s72 -7.5 118 -7.5c40.667 0 84 2.33301 130 7v-1098c0 -108 22.833 -185.667 68.5 -233s106.167 -71 181.5 -71
c90.667 0 162.667 19 216 57s90.666 90 112 156v785h120z" />
    <glyph glyph-name="uni0574056F.liga" unicode="&#x574;&#x56f;" horiz-adv-x="2270" 
d="M2104 1082l0.00292969 -1498h-120v553c-70 -104.667 -184 -157 -342 -157c-111.333 0 -198.5 32.5 -261.5 97.5s-94.5 167.5 -94.5 307.5v986c-14.667 2.66699 -29.167 6.66699 -43.5 12s-23.833 8.66602 -28.5 9.99902c-26.667 10.667 -50.167 18.5 -70.5 23.5
s-44.833 7.5 -73.5 7.5c-29.333 0 -53.666 -9.66699 -72.999 -29s-29 -43.666 -29 -72.999v-1322h-115l-3 137c-72 -104.667 -186.667 -157 -344 -157c-111.333 0 -198.333 32.5 -261 97.5s-94.334 167.5 -95.001 307.5v697h120v-694c0 -108 22.833 -185.667 68.5 -233
s106.167 -71 181.5 -71c90.667 0 162.667 19 216 57s90.666 90 111.999 156v1035c0 68 17.667 119 53 153s85.666 51 150.999 51c30 0 55.833 -2.66699 77.5 -8s46.5 -13 74.5 -23c24.667 -9.33301 46 -16.166 64 -20.499s39 -6.5 63 -6.5c19.333 0 44.333 2.66699 75 8
v-1098c0 -108 22.833 -185.667 68.5 -233s106.167 -71 181.5 -71c90.667 0 162.667 19 216 57s90.666 90 111.999 156v785h120z" />
    <glyph glyph-name="uni0578055B0582.liga" unicode="&#x578;&#x55b;&#x582;" horiz-adv-x="1610" 
d="M1036 1772h147l-282 -497h-97zM893 1008c59.333 -62.667 89.332 -161.999 89.999 -297.999v-710h-120v710c-0.666992 104.667 -22.667 179 -66 223s-106.333 66 -189 66c-78.667 0 -145.5 -24.333 -200.5 -73s-95.5 -109.334 -121.5 -182.001v-744h-120v1082h115l4 -183
c38.667 63.333 88.334 113 149.001 149s128.667 54 204 54c110.667 0 195.667 -31.333 255 -94zM1620 102.001v-102h-393v1082h119v-980h274z" />
    <glyph glyph-name="uni0578055C0582.liga" unicode="&#x578;&#x55c;&#x582;" horiz-adv-x="1610" 
d="M1092 1795h119.999v-25c0 -128.667 -62.667 -216.667 -188 -264c-51.333 -19.333 -84.5 -51 -99.5 -95s-22.5 -93.333 -22.5 -148v-9h-110v57c0 30 7.33301 64 22 102s36 73.667 64 107s61 58 99 74c34 14.667 59.333 32 76 52s27.334 40.833 32.001 62.5s7 47.5 7 77.5
v9zM892.999 1008c59.333 -62.667 89.332 -161.999 89.999 -297.999v-710h-120v710c-0.666992 104.667 -22.667 179 -66 223s-106.333 66 -189 66c-78.667 0 -145.5 -24.333 -200.5 -73s-95.5 -109.334 -121.5 -182.001v-744h-120v1082h115l4 -183
c38.667 63.333 88.334 113 149.001 149s128.667 54 204 54c110.667 0 195.667 -31.333 255 -94zM1620 102.001v-102h-393v1082h119v-980h274z" />
    <glyph glyph-name="uni0578055E0582.liga" unicode="&#x578;&#x55e;&#x582;" horiz-adv-x="1610" 
d="M1116.5 1870c46.333 -26 81.502 -61.166 105.502 -105.499s36 -93.5 36 -147.5c0 -94.667 -26.833 -168 -80.5 -220s-128.5 -78 -224.5 -78v88c57.333 0 105.833 16.667 145.5 50s59.5 86.666 59.5 159.999c0 32 -7.83301 63.167 -23.5 93.5s-39 55.5 -70 75.5
s-68.5 30 -112.5 30c-74.667 0 -133.334 -21 -176.001 -63s-64 -113.667 -64 -215v-283h-100v296c0 124 31 214.667 93 272s144.333 86 247 86c63.333 0 118.166 -13 164.499 -39zM893.002 1008c59.333 -62.667 89.332 -161.999 89.999 -297.999v-710h-120v710
c-0.666992 104.667 -22.667 179 -66 223s-106.333 66 -189 66c-78.667 0 -145.5 -24.333 -200.5 -73s-95.5 -109.334 -121.5 -182.001v-744h-120v1082h115l4 -183c38.667 63.333 88.334 113 149.001 149s128.667 54 204 54c110.667 0 195.667 -31.333 255 -94zM1620 102.002
v-102h-393v1082h119v-980h274z" />
    <glyph glyph-name="uniFB13.liga" unicode="&#x574;&#x576;" horiz-adv-x="2295" 
d="M2129 1082l0.00488281 -1082h-115l-3 137c-72 -104.667 -186.667 -157 -344 -157c-111.333 0 -198.5 32.5 -261.5 97.5s-94.5 167.5 -94.5 307.5v985c-22.667 4 -51.334 12 -86.001 24c-28.667 10 -54.334 17.5 -77.001 22.5s-48.667 7.5 -78 7.5
s-53.666 -9.66699 -72.999 -29s-29 -43.666 -29 -72.999v-1322h-115l-3 137c-72 -104.667 -186.667 -157 -344 -157c-111.333 0 -198.333 32.5 -261 97.5s-94.334 167.5 -95.001 307.5v697h120v-694c0 -108 22.833 -185.667 68.5 -233s106.167 -71 181.5 -71
c90.667 0 162.667 19 216 57s90.666 90 111.999 156v1035c0 68 17.667 119 53 153s85.666 51 150.999 51c30 0 57 -2.5 81 -7.5s51 -12.5 81 -22.5c30 -9.33301 55 -16.333 75 -21s42.333 -7 67 -7c20 0 45 2.66699 75 8v-1098c0 -108 22.833 -185.667 68.5 -233
s106.167 -71 181.5 -71c90.667 0 162.667 19 216 57s90.666 90 111.999 156v785h120z" />
    <glyph glyph-name="uniFB14.liga" unicode="&#x574;&#x565;" horiz-adv-x="2237" 
d="M1406 980l0.00292969 -592.001c0 -108 22.833 -185.667 68.5 -233s106.167 -71 181.5 -71c90.667 0 162.667 19 216 57s90.666 90 111.999 156v385h120v-682h-115l-3 137c-72 -104.667 -186.667 -157 -344 -157c-111.333 0 -198.5 32.5 -261.5 97.5
s-94.5 167.5 -94.5 307.5v986c-14.667 2.66699 -29.167 6.66699 -43.5 12s-23.833 8.66602 -28.5 9.99902c-26.667 10.667 -50.167 18.5 -70.5 23.5s-44.833 7.5 -73.5 7.5c-29.333 0 -53.666 -9.66699 -72.999 -29s-29 -43.666 -29 -72.999v-1322h-115l-3 137
c-72 -104.667 -186.667 -157 -344 -157c-111.333 0 -198.333 32.5 -261 97.5s-94.334 167.5 -95.001 307.5v697h120v-694c0 -108 22.833 -185.667 68.5 -233s106.167 -71 181.5 -71c90.667 0 162.667 19 216 57s90.666 90 111.999 156v1035c0 68 17.667 119 53 153
s85.666 51 150.999 51c30 0 55.833 -2.66699 77.5 -8s46.5 -13 74.5 -23c24.667 -9.33301 46 -16.166 64 -20.499s39 -6.5 63 -6.5c19.333 0 44.333 2.66699 75 8v-404h781v-102h-781z" />
    <glyph glyph-name=".notdef" horiz-adv-x="1351" 
d="M1107 -555h-856v2701h856v-2701zM454 1965v-89h175v-100h-178v-89h448v89h-178v100h178v89h-445zM451 1617v-281h448v92h-178v189h-270zM629 1428h-89v97h89v-97zM451 1263v-89h178v-100h-178v-89h270v189h178v89h-448zM810 1101v-179h-359v-91h448v270h-89zM629 771
v-151h92v62h89v-127h-270v216h-89v-305h448v305h-270zM451 304v-305h448v305h-448zM810 88h-270v127h270v-127zM451 -63v-90h189l-189 -126v-90h448v90h-275l189 126h86v90h-448z" />
    <glyph glyph-name="NULL" horiz-adv-x="0" 
 />
    <glyph glyph-name="NULL" horiz-adv-x="0" 
 />
    <glyph glyph-name="nonmarkingreturn" unicode="&#xd;" horiz-adv-x="499" 
 />
    <glyph glyph-name="space" unicode=" " horiz-adv-x="499" 
 />
    <glyph glyph-name="exclam" unicode="!" horiz-adv-x="462" 
d="M291 1456l-7 -1050h-110l-7 1050h124zM236 151c55.333 0 83 -26.667 83 -80s-27.667 -80 -83 -80c-54.667 0 -82 26.667 -82 80s27.333 80 82 80z" />
    <glyph glyph-name="quotedbl" unicode="&#x22;" horiz-adv-x="589" 
d="M244 1536v-139l-20 -314h-81l3 453h98zM479 1536v-139l-19 -314h-81l3 453h97z" />
    <glyph glyph-name="numbersign" unicode="#" horiz-adv-x="1191" 
d="M676 0l77 410h-313l-77 -410h-100l77 410h-255v94h273l83 441h-280v95h298l78 416h100l-78 -416h313l79 416h100l-79 -416h229v-95h-247l-83 -441h255v-94h-273l-77 -410h-100zM458 504h313l83 441h-313z" />
    <glyph glyph-name="dollar" unicode="$" 
d="M974 169c-31.333 -54.667 -75.668 -98 -133.001 -130s-125 -51.333 -203 -58v-189h-102v188c-76.667 5.33301 -146.5 23.666 -209.5 54.999s-113.833 78.833 -152.5 142.5s-58 144.167 -58 241.5h119c0 -81.333 16.833 -147.166 50.5 -197.499
s78.834 -85.833 135.501 -106.5c53.333 -20 106.666 -30 159.999 -30c65.333 0 122.166 12.167 170.499 36.5s85.5 57.166 111.5 98.499s39 87.666 39 138.999s-10.667 95.333 -32 132s-56.666 70 -105.999 100s-117.666 59.667 -204.999 89
c-91.333 30.667 -165.166 63.5 -221.499 98.5s-98.833 78 -127.5 129s-43 113.5 -43 187.5c0 72 15.167 135.5 45.5 190.5s73.5 99 129.5 132s121.667 52.167 197 57.5v202h102v-202c117.333 -10 208.333 -53.5 273 -130.5s97 -182.5 97 -316.5h-119
c0 66.667 -11.833 125.834 -35.5 177.501s-58.334 92.167 -104.001 121.5s-100.5 44 -164.5 44c-66 0 -121.5 -12.167 -166.5 -36.5s-78.667 -57.166 -101 -98.499s-33.5 -87.333 -33.5 -138s9 -93.667 27 -129s50.333 -67.833 97 -97.5s113.667 -59.167 201 -88.5
c94.667 -32 171.167 -65.5 229.5 -100.5s102.833 -78.167 133.5 -129.5s46 -115.333 46 -192c0 -73.333 -15.667 -137.333 -47 -192z" />
    <glyph glyph-name="percent" unicode="%" horiz-adv-x="1514" 
d="M110 1176c0 55.333 11.668 105.833 35.001 151.5s56.666 82 99.999 109s93.333 40.5 150 40.5s106.667 -13.5 150 -40.5s76.666 -63.333 99.999 -109s35 -96.167 35 -151.5v-77c0 -54.667 -11.667 -104.834 -35 -150.501s-56.5 -81.834 -99.5 -108.501
s-92.5 -40 -148.5 -40c-57.333 0 -107.666 13.333 -150.999 40s-76.833 62.834 -100.5 108.501s-35.5 95.834 -35.5 150.501v77zM206.001 1099c0 -37.333 7.16602 -71.999 21.499 -103.999s35.833 -58 64.5 -78s63.667 -30 105 -30c40.667 0 75 9.83301 103 29.5
s48.833 45.667 62.5 78s20.5 67.166 20.5 104.499v77c0 38 -7 73.167 -21 105.5s-35.167 58.5 -63.5 78.5s-62.833 30 -103.5 30s-75.167 -10 -103.5 -30s-49.666 -46.333 -63.999 -79s-21.5 -67.667 -21.5 -105v-77zM1146 1259l-711 -1138l-75 48l711 1138zM842 357.001
c0 54.667 11.668 105 35.001 151s56.666 82.333 99.999 109s93.333 40 150 40s106.667 -13.333 150 -40s76.666 -63 99.999 -109s35 -96.333 35 -151v-78c0 -54.667 -11.667 -104.834 -35 -150.501s-56.5 -82 -99.5 -109s-92.5 -40.5 -148.5 -40.5
c-57.333 0 -107.666 13.5 -150.999 40.5s-76.833 63.333 -100.5 109s-35.5 95.834 -35.5 150.501v78zM939.001 279.001c0 -37.333 7.16797 -72.167 21.501 -104.5s35.666 -58.5 63.999 -78.5s63.166 -30 104.499 -30c40.667 0 75 9.83301 103 29.5s48.833 45.667 62.5 78
s20.5 67.5 20.5 105.5v78c0 38.667 -7 74.167 -21 106.5s-35.167 58.166 -63.5 77.499s-62.833 29 -103.5 29c-40 0 -74.167 -9.66699 -102.5 -29s-49.666 -45.166 -63.999 -77.499s-21.5 -67.833 -21.5 -106.5v-78z" />
    <glyph glyph-name="ampersand" unicode="&#x26;" horiz-adv-x="1261" 
d="M1087 0l-125.999 146.004c-53.333 -52 -114.666 -92.667 -183.999 -122s-141.333 -44 -216 -44c-92 0 -172.167 16.333 -240.5 49s-120.833 78.5 -157.5 137.5s-55 127.167 -55 204.5c0 52 9.5 99.167 28.5 141.5s49.333 85.166 91 128.499s100.5 95 176.5 155
c-56 67.333 -97.5 128.166 -124.5 182.499s-40.5 109.833 -40.5 166.5c0 67.333 13.667 126 41 176s66.166 88.5 116.499 115.5s109.166 40.5 176.499 40.5c63.333 0 118.5 -12.833 165.5 -38.5s83 -60.334 108 -104.001s37.5 -91.5 37.5 -143.5
c0 -60 -18.333 -115.167 -55 -165.5s-84.667 -98.166 -144 -143.499l-127 -97l401 -467c60.667 97.333 91 208.666 91 333.999h111c0 -166.667 -43 -306.334 -129 -419.001l200 -233h-145zM493.001 862.004l132.001 98.999c47.333 35.333 83.5 71 108.5 107
s37.5 77 37.5 123c0 32.667 -7.83301 63 -23.5 91s-38.334 50.5 -68.001 67.5s-65.167 25.5 -106.5 25.5c-45.333 0 -84 -10.167 -116 -30.5s-56.333 -47.666 -73 -81.999s-25 -72.166 -25 -113.499c0 -80.667 44.667 -176.334 134 -287.001zM265.502 226.503
c25 -43.667 62.5 -78.666 112.5 -104.999s111 -39.5 183 -39.5c125.333 0 235 49 329 147l-406 472l-14 16l-47 -36c-85.333 -70 -139 -130.667 -161 -182c-22.667 -51.333 -34 -94 -34 -128c0 -52.667 12.5 -100.834 37.5 -144.501z" />
    <glyph glyph-name="quotesingle" unicode="'" horiz-adv-x="349" 
d="M227 1536v-140l-18 -305h-89c3.33301 218.667 5 367 5 445h102z" />
    <glyph glyph-name="parenleft" unicode="(" horiz-adv-x="654" 
d="M208 1052.5c44.667 143 104.003 266.832 178.003 371.499c69.333 98.667 138.333 168.334 207 209.001l29 -82c-61.333 -42.667 -119.333 -110.167 -174 -202.5s-99.334 -201.5 -134.001 -327.5c-35.333 -130 -53 -279.667 -53 -449c0 -150 17 -290.5 51 -421.5
s80 -244.5 138 -340.5c54.667 -92 112 -159.667 172 -203l-29 -77c-72.667 44 -143.334 115 -212.001 213s-125.334 215 -170.001 351c-46.667 140 -70 305 -70 495c0 166 22.333 320.5 67 463.5z" />
    <glyph glyph-name="parenright" unicode=")" horiz-adv-x="668" 
d="M447.5 104.5c-44.333 -143 -103.502 -265.498 -177.502 -367.498c-68.667 -96 -138 -165 -208 -207l-29 77c61.333 43.333 119.333 111.5 174 204.5s99.334 203.167 134.001 330.5c35.333 131.333 53 281.333 53 450c0 149.333 -17.333 289.666 -52 420.999
s-81.334 245.666 -140.001 342.999c-56.667 93.333 -113 160 -169 200l29 77c72.667 -43.333 143.334 -114.833 212.001 -214.5s125.334 -218.167 170.001 -355.5c46.667 -140.667 70 -303.667 70 -489c0 -170 -22.167 -326.5 -66.5 -469.5z" />
    <glyph glyph-name="asterisk" unicode="*" horiz-adv-x="869" 
d="M144 700l218 301l-333 107l33 101l331 -122l-4 369h105l-9 -372l325 127l33 -102l-334 -114l224 -295l-86 -63l-214 306l-204 -304z" />
    <glyph glyph-name="plus" unicode="+" horiz-adv-x="1156" 
d="M1074 628h-444v-482h-120v482h-434v113h434v465h120v-465h444v-113z" />
    <glyph glyph-name="comma" unicode="," horiz-adv-x="393" 
d="M272 189v-140c0 -129.333 -46.667 -236.666 -140 -321.999l-71 52c60 81.333 91 165.666 93 252.999v157h118z" />
    <glyph glyph-name="hyphen" unicode="-" horiz-adv-x="586" 
d="M528 694v-102h-479v102h479z" />
    <glyph glyph-name="period" unicode="." horiz-adv-x="489" 
d="M230 156c57.333 0 86 -27.667 86 -83c0 -54.667 -28.667 -82 -86 -82c-56 0 -84 27.333 -84 82c0 55.333 28 83 84 83z" />
    <glyph glyph-name="slash" unicode="/" horiz-adv-x="814" 
d="M747 1456l-608 -1581h-109l608 1581h109z" />
    <glyph glyph-name="zero" unicode="0" 
d="M1015 608c0 -210 -38.5 -367.169 -115.5 -471.502s-187.167 -156.5 -330.5 -156.5c-140.667 0 -250 50.667 -328 152s-118.333 253 -121 455v266c0 208.667 38.833 364.834 116.5 468.501s187.834 155.5 330.501 155.5c141.333 0 250.666 -50.167 327.999 -150.5
s117.333 -251.166 120 -452.499v-266zM896 867.998c0 338 -109.668 507 -329.001 507c-214.667 0 -323.667 -165 -327 -495v-286c0 -164.667 28 -291.167 84 -379.5s137.667 -132.5 245 -132.5c108.667 0 190.334 43.833 245.001 131.5s82 214.5 82 380.5v274z" />
    <glyph glyph-name="one" unicode="1" 
d="M694 1462v-1462h-120v1312l-395 -147v112l495 185h20z" />
    <glyph glyph-name="two" unicode="2" 
d="M1050 102l0.000976562 -101.998h-913v93l477 540c89.333 101.333 152.166 185.166 188.499 251.499s54.5 129.833 54.5 190.5c0 59.333 -11.833 111.5 -35.5 156.5s-58.334 80 -104.001 105s-100.5 37.5 -164.5 37.5c-66.667 0 -124.667 -14.5 -174 -43.5
s-87.333 -69 -114 -120s-40 -109.167 -40 -174.5h-120c0 80.667 18.167 154.5 54.5 221.5s88.333 120.167 156 159.5s146.834 59 237.501 59c87.333 0 162.833 -15.5 226.5 -46.5s112.5 -75.833 146.5 -134.5s51 -128.334 51 -209.001c0 -80 -25.667 -162.833 -77 -248.5
s-121 -178.167 -209 -277.5l-407 -458h766z" />
    <glyph glyph-name="three" unicode="3" 
d="M404 691l-0.00195312 102.997h125c71.333 0 132.333 12.667 183 38s89 59.333 115 102s39 90.334 39 143.001c0 91.333 -25.667 163.666 -77 216.999s-127.666 80 -228.999 80c-61.333 0 -116.166 -12.167 -164.499 -36.5s-86.333 -59.166 -114 -104.499
s-41.5 -98.333 -41.5 -159h-119c0 77.333 19 146.5 57 207.5s90.333 108.667 157 143s141.667 51.5 225 51.5c85.333 0 160 -15.833 224 -47.5s113.5 -77.667 148.5 -138s52.5 -132.833 52.5 -217.5c0 -44.667 -9.5 -88.167 -28.5 -130.5s-47.167 -80.666 -84.5 -114.999
s-82.666 -61.5 -135.999 -81.5c92.667 -25.333 161.834 -68.666 207.501 -129.999s68.5 -134.666 68.5 -219.999c0 -86 -19.167 -160.333 -57.5 -223s-91.333 -110.5 -159 -143.5s-144.5 -49.5 -230.5 -49.5c-80.667 0 -156.167 15.667 -226.5 47s-127.5 77 -171.5 137
c-45.333 61.333 -68 138.333 -68 231h120c0 -60.667 14.667 -114.834 44 -162.501s70.166 -84.667 122.499 -111s112.166 -39.5 179.499 -39.5c104 0 184.667 26.833 242 80.5s86 130.167 86 229.5c0 101.333 -32.667 176.5 -98 225.5s-155.333 73.5 -270 73.5h-121z" />
    <glyph glyph-name="four" unicode="4" 
d="M68 437l673 1019h131v-986h227v-102h-227v-368h-120v368h-684v69zM215 470h537v831l-53 -92z" />
    <glyph glyph-name="five" unicode="5" 
d="M219 747l71.002 708.998h728v-111h-625l-52 -492c28.667 21.333 67.667 40.166 117 56.499s101.666 24.5 156.999 24.5c86 0 161.667 -19 227 -57s115.833 -92.333 151.5 -163s53.5 -154 53.5 -250s-15.667 -180.167 -47 -252.5s-79.5 -129 -144.5 -170
s-146.5 -61.5 -244.5 -61.5c-78.667 0 -150 14.833 -214 44.5s-116.167 74.834 -156.5 135.501s-64.5 135 -72.5 223h115c22.667 -200.667 132 -301 328 -301c102.667 0 181 32.833 235 98.5s81 159.5 81 281.5c0 69.333 -13.167 131.333 -39.5 186
s-64.5 97.834 -114.5 129.501s-109.667 47.5 -179 47.5c-64.667 0 -117.834 -8.66699 -159.501 -26s-82.167 -43.666 -121.5 -78.999z" />
    <glyph glyph-name="six" unicode="6" 
d="M980.5 224c-35 -75.333 -84.999 -134.833 -149.999 -178.5s-141.167 -65.5 -228.5 -65.5c-94.667 0 -177.834 23.833 -249.501 71.5s-126.667 112.334 -165 194.001s-57.5 171.5 -57.5 269.5v128c0 166 25.167 310.333 75.5 433s126.333 218 228 286s227.5 103 377.5 105
h33v-104h-25c-113.333 -0.666992 -211 -24.334 -293 -71.001s-146.167 -113.5 -192.5 -200.5s-73.5 -190.5 -81.5 -310.5c82.667 116.667 203.334 175 362.001 175c89.333 0 165.666 -21.5 228.999 -64.5s110.833 -100.667 142.5 -173s47.5 -152.5 47.5 -240.5
c0 -94 -17.5 -178.667 -52.5 -254zM250.001 513c0 -87.333 15.499 -163.669 46.499 -229.002s73.167 -115.333 126.5 -150s113 -52 179 -52c63.333 0 118.5 17.333 165.5 52s83.167 81.834 108.5 141.501s38 125.5 38 197.5c0 70.667 -12 134.834 -36 192.501
s-59.833 103.5 -107.5 137.5s-106.167 51 -175.5 51c-52 0 -102 -10.667 -150 -32s-89.167 -50.333 -123.5 -87s-58.166 -77.667 -71.499 -123v-99z" />
    <glyph glyph-name="seven" unicode="7" 
d="M1034 1456v-68l-622 -1388h-124l617 1354h-828v102h957z" />
    <glyph glyph-name="eight" unicode="8" 
d="M971.5 165.5c-40.333 -61 -95.5 -107.167 -165.5 -138.5s-149 -47 -237 -47s-167.167 15.667 -237.5 47s-125.666 77.5 -165.999 138.5s-60.5 134.5 -60.5 220.5c0 84.667 24.667 159 74 223s115.666 110.333 198.999 139c-72 28.667 -129.167 72.5 -171.5 131.5
s-63.5 126.5 -63.5 202.5c0 82 18.167 152.667 54.5 212s86.5 104.5 150.5 135.5s137 46.5 219 46.5s155.167 -15.5 219.5 -46.5s115 -76.167 152 -135.5s55.5 -130 55.5 -212c0 -76 -21.5 -143.333 -64.5 -202s-100.833 -102.667 -173.5 -132c84 -29.333 151 -76 201 -140
s75 -138 75 -222c0 -86 -20.167 -159.5 -60.5 -220.5zM834.5 1232.5c-27 44.333 -63.833 79 -110.5 104s-99 37.5 -157 37.5c-58.667 0 -111.167 -11.833 -157.5 -35.5s-82.5 -57.5 -108.5 -101.5s-39 -95.667 -39 -155c0 -56.667 13.167 -106.5 39.5 -149.5
s62.666 -76.167 108.999 -99.5s98.833 -35 157.5 -35s111.334 11.667 158.001 35s83.167 56.5 109.5 99.5s39.5 92.833 39.5 149.5c0 56 -13.5 106.167 -40.5 150.5zM867 548.5c-30 47 -71.168 83.334 -123.501 109.001s-111.166 38.5 -176.499 38.5
c-66 0 -125 -12.833 -177 -38.5s-92.5 -62 -121.5 -109s-43.5 -101.167 -43.5 -162.5c0 -64 14.333 -118.833 43 -164.5s69 -80.334 121 -104.001s112 -35.5 180 -35.5c67.333 0 126.833 11.833 178.5 35.5s92 58.5 121 104.5s43.5 100.667 43.5 164
c0 61.333 -15 115.5 -45 162.5z" />
    <glyph glyph-name="nine" unicode="9" 
d="M1005 779c0 -325.333 -88.665 -552.669 -265.998 -682.002c-98.667 -72 -235.667 -108 -411 -108h-26l1 104h36c354.667 3.33301 536.667 197.333 546 582c-41.333 -61.333 -93.666 -109.666 -156.999 -144.999s-133 -53 -209 -53c-87.333 0 -162.5 22.667 -225.5 68
s-110.833 106.666 -143.5 183.999c-32 74 -48 152.667 -48 236c0 94 17.667 179.833 53 257.5s86.166 139.334 152.499 185.001s144.166 68.5 233.499 68.5c102 0 187.667 -24.333 257 -73s121.166 -116.667 155.499 -204s51.5 -188.666 51.5 -303.999v-116z
M257.002 778.497c24.667 -59.667 60.666 -107.667 107.999 -144s103.666 -54.5 168.999 -54.5c57.333 0 109.833 12 157.5 36s87.834 55.333 120.501 94s57 80.667 73 126v71c0 99.333 -14.333 184 -43 254s-68.667 122.833 -120 158.5s-110.666 53.5 -177.999 53.5
c-65.333 0 -122.5 -18.333 -171.5 -55s-86.667 -85.667 -113 -147s-39.5 -128.333 -39.5 -201c0 -68 12.333 -131.833 37 -191.5z" />
    <glyph glyph-name="colon" unicode=":" horiz-adv-x="430" 
d="M213 1079c57.333 0 86 -27.667 86 -83c0 -54.667 -28.667 -82 -86 -82c-56 0 -84 27.333 -84 82c0 55.333 28 83 84 83zM211 156c57.333 0 86 -27.667 86 -83c0 -54.667 -28.667 -82 -86 -82c-56 0 -84 27.333 -84 82c0 55.333 28 83 84 83z" />
    <glyph glyph-name="semicolon" unicode=";" horiz-adv-x="399" 
d="M202 1079c57.333 0 86 -27.667 86 -83c0 -54.667 -28.667 -82 -86 -82c-56 0 -84 27.333 -84 82c0 55.333 28 83 84 83zM272 189v-140c0 -129.333 -46.667 -236.666 -140 -321.999l-71 52c60 81.333 91 165.666 93 252.999v157h118z" />
    <glyph glyph-name="less" unicode="&#x3c;" horiz-adv-x="1047" 
d="M905 230l-828 379v96l828 378v-125l-696 -302l696 -300v-126z" />
    <glyph glyph-name="equal" unicode="=" horiz-adv-x="1133" 
d="M984 935v-106h-834v106h834zM984 524v-106h-834v106h834z" />
    <glyph glyph-name="greater" unicode="&#x3e;" horiz-adv-x="1062" 
d="M124 1086l845 -378v-97l-845 -379v124l711 304l-711 302v124z" />
    <glyph glyph-name="question" unicode="?" horiz-adv-x="930" 
d="M376 405c1.33301 56 6.83203 102.833 16.499 140.5s25.667 73 48 106s54.5 70.167 96.5 111.5c49.333 49.333 85.5 87.333 108.5 114s41.833 58.167 56.5 94.5s22 79.833 22 130.5c0 81.333 -21.833 146.333 -65.5 195s-105.834 73 -186.501 73
c-52 0 -98 -10.167 -138 -30.5s-71.5 -49.666 -94.5 -87.999s-34.833 -83.5 -35.5 -135.5h-120c0.666992 74 18.334 138.167 53.001 192.5s81.167 95.833 139.5 124.5s123.5 43 195.5 43c78 0 145 -15.5 201 -46.5s98.5 -74.667 127.5 -131s43.5 -121.5 43.5 -195.5
c0 -56.667 -9.66699 -108.834 -29 -156.501s-45.666 -92 -78.999 -133s-76 -85.167 -128 -132.5c-74.667 -64 -112 -156 -112 -276h-120zM441.999 151c55.333 0 83 -26.667 83 -80s-27.667 -80 -83 -80c-54.667 0 -82 26.667 -82 80s27.333 80 82 80z" />
    <glyph glyph-name="at" unicode="@" horiz-adv-x="1871" 
d="M1263 -364c-42.667 -28 -97.9971 -49.834 -165.997 -65.501s-134.333 -23.5 -199 -23.5c-161.333 0 -300.333 35 -417 105s-206 170.333 -268 301s-93 285 -93 463c0 27.333 0.333008 48 1 62c8 185.333 48.5 349 121.5 491s173.167 253 300.5 333
c127.333 79.333 274.333 119 441 119c167.333 0 308.333 -33.833 423 -101.5s200.667 -164.334 258 -290.001s86 -275.5 86 -449.5c0 -29.333 -0.333008 -51.666 -1 -66.999c-4 -89.333 -20 -174.166 -48 -254.499s-68.667 -146.166 -122 -197.499
c-56 -54 -129 -81 -219 -81c-132.667 0 -212.334 65.333 -239.001 196c-72.667 -130.667 -172.334 -196 -299.001 -196c-56 0 -103.833 15 -143.5 45s-69.667 72.667 -90 128s-30.5 120.333 -30.5 195c0 16.667 1.33301 43 4 79c10 112 35.667 210.5 77 295.5
s93.333 150.667 156 197s130 69.5 202 69.5c42 0 78.833 -4.66699 110.5 -14s58.667 -21.333 81 -36s48.166 -34 77.499 -58l-50 -570c-1.33301 -22.667 -2 -38.334 -2 -47.001c0 -52 7.83301 -92.5 23.5 -121.5s36.5 -48.833 62.5 -59.5c28 -11.333 52 -17 72 -17
c57.333 0 106.666 19.333 147.999 58s73.333 91.667 96 159s36 144 40 230c1.33301 36 2 62.667 2 80c0 234.667 -56 415.667 -168 543s-282.333 191 -511 191c-142.667 0 -269.834 -35 -381.501 -105s-200.5 -169 -266.5 -297s-103 -277 -111 -447
c-1.33301 -29.333 -2 -51 -2 -65c0 -154.667 26.833 -290.5 80.5 -407.5s131.834 -207.833 234.501 -272.5s225.334 -97 368.001 -97c130 0 240.333 26.333 331 79zM665.003 344.999c0 -82 15.5 -146.999 46.5 -194.999s75.5 -72 133.5 -72
c55.333 0 106.833 19.333 154.5 58s87.167 104 118.5 196l45 516c-44.667 33.333 -97.667 50 -159 50c-54.667 0 -105.5 -17.5 -152.5 -52.5s-86.5 -87.833 -118.5 -158.5s-53 -157.334 -63 -260.001c-3.33301 -32 -5 -59.333 -5 -82z" />
    <glyph glyph-name="A" unicode="A" horiz-adv-x="1280" 
d="M31 0l550 1456h117l551 -1456h-128l-150 408h-662l-150 -408h-128zM348 513h584l-292 794z" />
    <glyph glyph-name="B" unicode="B" horiz-adv-x="1255" 
d="M1085 187.5c-38.667 -61.667 -93.001 -108.332 -163.001 -139.999s-151.667 -47.5 -245 -47.5h-492v1456h430c152 0 269.167 -31.167 351.5 -93.5s123.5 -157.833 123.5 -286.5c0 -74.667 -20.333 -140 -61 -196s-97 -96 -169 -120
c56.667 -12 106.334 -34.833 149.001 -68.5s75.667 -75 99 -124s35 -101.5 35 -157.5c0 -86.667 -19.333 -160.834 -58 -222.501zM307.999 1351l-0.000976562 -547h319c108.667 0 192.334 23.333 251.001 70s88 114.667 88 204c0 177.333 -111.333 268.333 -334 273h-324z
M982.498 559.002c-24.333 44 -61.499 78.666 -111.499 103.999s-111.667 38 -185 38h-378v-597h369c71.333 0 132.666 12.167 183.999 36.5s90.5 59.333 117.5 105s40.5 99.834 40.5 162.501c0 56.667 -12.167 107 -36.5 151z" />
    <glyph glyph-name="C" unicode="C" horiz-adv-x="1330" 
d="M1215 454c-16 -150 -69.666 -266.501 -160.999 -349.501s-216 -124.5 -374 -124.5c-108.667 0 -204 26.833 -286 80.5s-145.833 129.334 -191.5 227.001s-69.167 210.5 -70.5 338.5v193c0 130 22.667 244.667 68 344s110 176.333 194 231s182 82 294 82
c154 0 276.5 -41.5 367.5 -124.5s144.167 -199.833 159.5 -350.5h-123c-30.667 246.667 -165.334 370 -404.001 370c-88.667 0 -165.5 -22.833 -230.5 -68.5s-115 -110 -150 -193s-52.5 -179.167 -52.5 -288.5v-184c0 -107.333 16.667 -202.833 50 -286.5s82 -149 146 -196
s140.333 -70.5 229 -70.5c126.667 0 223 30.5 289 91.5s107 153.833 123 278.5h123z" />
    <glyph glyph-name="D" unicode="D" horiz-adv-x="1342" 
d="M185 0v1456h407c120 0 227.167 -27.333 321.5 -82s167.833 -132.167 220.5 -232.5s79 -215.833 79 -346.5v-134c0 -132 -26.333 -247.833 -79 -347.5s-126.667 -176.834 -222 -231.501s-205 -82 -329 -82h-398zM308 1351l-0.00292969 -1247h275
c102.667 0 192.334 23.333 269.001 70s135.667 112 177 196s62 181 62 291v136c0 110.667 -20.667 207.834 -62 291.501s-99.666 148.334 -174.999 194.001s-162.666 68.5 -261.999 68.5h-284z" />
    <glyph glyph-name="E" unicode="E" horiz-adv-x="1165" 
d="M185 0v1456h900v-105h-777v-548h680v-105h-680v-594h782v-104h-905z" />
    <glyph glyph-name="F" unicode="F" horiz-adv-x="1152" 
d="M185 0v1456h902v-105h-779v-565h678v-106h-678v-680h-123z" />
    <glyph glyph-name="G" unicode="G" horiz-adv-x="1401" 
d="M1235 692l-0.00292969 -517.998c-24 -36 -76.333 -77.333 -157 -124c-79.333 -46.667 -195.666 -70 -348.999 -70c-114 0 -215.167 27.167 -303.5 81.5s-157.166 131.833 -206.499 232.5s-74 217.667 -74 351v177c0 132.667 22.833 248.167 68.5 346.5
s111 174.166 196 227.499s185.167 80 300.5 80c104.667 0 194.334 -18.333 269.001 -55s133.167 -87.334 175.5 -152.001s68.833 -139 79.5 -223h-123c-16 96.667 -56.167 175 -120.5 235s-157.833 90 -280.5 90c-93.333 0 -173 -22.667 -239 -68s-116.167 -109 -150.5 -191
s-51.5 -178 -51.5 -288v-179c0 -112 19.167 -210.333 57.5 -295s92.333 -150.167 162 -196.5s150.167 -69.5 241.5 -69.5c110.667 0 197 15 259 45c60.667 28 102 55.333 124 82v376h-391v105h513z" />
    <glyph glyph-name="H" unicode="H" horiz-adv-x="1449" 
d="M1140 0v698h-832v-698h-123v1456h123v-653h832v653h123v-1456h-123z" />
    <glyph glyph-name="I" unicode="I" horiz-adv-x="546" 
d="M335 1456v-1456h-123v1456h123z" />
    <glyph glyph-name="J" unicode="J" horiz-adv-x="1128" 
d="M828 1456l122.999 -0.00195312v-1022c0 -95.333 -18.833 -177.166 -56.5 -245.499s-89.667 -120.166 -156 -155.499s-142.166 -53 -227.499 -53c-89.333 0 -166.833 15.667 -232.5 47s-116.5 78.5 -152.5 141.5s-54 140.833 -54 233.5h123c0 -104 27.5 -183 82.5 -237
s132.833 -81 233.5 -81c60 0 114 13.5 162 40.5s85.833 66.833 113.5 119.5s41.5 116 41.5 190v1022z" />
    <glyph glyph-name="K" unicode="K" horiz-adv-x="1292" 
d="M1106 0l-593 723l-205 -201v-522h-123v1456h123v-783l198 206l547 577h155l-610 -648l658 -808h-150z" />
    <glyph glyph-name="L" unicode="L" horiz-adv-x="1080" 
d="M1027 104v-104h-842v1456h124v-1352h718z" />
    <glyph glyph-name="M" unicode="M" horiz-adv-x="1772" 
d="M885 172l538 1284h164v-1456h-123v635l11 651l-543 -1286h-95l-540 1281l11 -642v-639h-123v1456h162z" />
    <glyph glyph-name="N" unicode="N" horiz-adv-x="1455" 
d="M1269 1456v-1456h-124l-836 1246v-1246h-124v1456h124l837 -1246v1246h123z" />
    <glyph glyph-name="O" unicode="O" horiz-adv-x="1387" 
d="M1260 650c0 -134.667 -23.1689 -252.5 -69.502 -353.5s-112.166 -179 -197.499 -234s-185 -82.5 -299 -82.5c-110.667 0 -208.667 26.833 -294 80.5s-152 130 -200 229s-72.667 214.167 -74 345.5v171c0 134 23.5 251.667 70.5 353s113.333 179.5 199 234.5
s184.5 82.5 296.5 82.5c114 0 213.833 -27.5 299.5 -82.5s151.834 -133 198.501 -234s70 -218.833 70 -353.5v-156zM1138 808c0 114.667 -17.499 214.002 -52.499 298.002s-86 148.667 -153 194s-147.167 68 -240.5 68c-90.667 0 -169.334 -22.667 -236.001 -68
s-117.834 -110.166 -153.501 -194.499s-53.5 -183.5 -53.5 -297.5v-158c0 -114.667 18 -214.334 54 -299.001s87.5 -149.667 154.5 -195s145.833 -68 236.5 -68c93.333 0 173.333 22.667 240 68s117.334 110.166 152.001 194.499s52 184.166 52 299.499v158z" />
    <glyph glyph-name="P" unicode="P" horiz-adv-x="1261" 
d="M308 593l-0.00195312 -593h-123v1456h496c104.667 0 193.667 -18.167 267 -54.5s128.833 -87 166.5 -152s56.5 -140.833 56.5 -227.5c0 -90 -18.667 -167 -56 -231s-92.666 -113 -165.999 -147s-162.666 -51 -267.999 -51h-373zM307.998 1351v-653h373
c83.333 0 152.333 13.833 207 41.5s95 65.667 121 114s39 103.833 39 166.5c0 62 -13 118 -39 168s-66.5 89.667 -121.5 119s-123.833 44 -206.5 44h-373z" />
    <glyph glyph-name="Q" unicode="Q" horiz-adv-x="1387" 
d="M1239 -178l-85.0029 -77l-296 258c-54 -15.333 -110 -23 -168 -23c-112.667 0 -212 27.5 -298 82.5s-152.667 133.167 -200 234.5s-71 219 -71 353v156c0 134 23.5 251.667 70.5 353s113.333 179.5 199 234.5s184.834 82.5 297.501 82.5c114 0 213.833 -27.5 299.5 -82.5
s151.834 -133 198.501 -234s70 -218.833 70 -353.5v-156c0 -138.667 -24.667 -259.667 -74 -363s-118.666 -181.333 -207.999 -234zM1133 808c0 114.667 -17.4971 214.002 -52.4971 298.002s-85.833 148.667 -152.5 194s-146.667 68 -240 68
c-90.667 0 -169.334 -22.667 -236.001 -68s-117.834 -110.166 -153.501 -194.499s-53.5 -183.5 -53.5 -297.5v-158c0 -114.667 18 -214.334 54 -299.001s87.5 -149.667 154.5 -195s145.833 -68 236.5 -68c93.333 0 173.166 22.667 239.499 68s116.833 110.166 151.5 194.499
s52 184.166 52 299.499v158z" />
    <glyph glyph-name="R" unicode="R" horiz-adv-x="1301" 
d="M1080 0l-351 607.001h-424v-607h-123v1456h473c101.333 0 189 -16.5 263 -49.5s131 -81.5 171 -145.5s60 -142 60 -234c0 -63.333 -12.5 -121.833 -37.5 -175.5s-60.333 -99.334 -106 -137.001s-98.167 -65.167 -157.5 -82.5l364 -619v-13h-132zM305 1351
l-0.000976562 -640.001h377c73.333 0 136 14.333 188 43s91 67 117 115s39 100.667 39 158c0 66.667 -14.333 124.334 -43 173.001s-70.667 86 -126 112s-122.666 39 -201.999 39h-350z" />
    <glyph glyph-name="S" unicode="S" horiz-adv-x="1213" 
d="M971 498c-25.333 38 -66.498 71.667 -123.498 101s-135.833 58 -236.5 86c-106 30 -193.333 62.5 -262 97.5s-121.5 78.167 -158.5 129.5s-55.5 114 -55.5 188s20.667 139.333 62 196s99.166 100.834 173.499 132.501s158.833 47.5 253.5 47.5
c100 0 187.667 -19.167 263 -57.5s133.5 -90.5 174.5 -156.5s61.5 -139.667 61.5 -221h-123c0 64 -15 121 -45 171s-73.333 89 -130 117s-123.667 42 -201 42s-143.5 -12 -198.5 -36s-96.5 -56.333 -124.5 -97s-42 -85.667 -42 -135c0 -68.667 27.333 -127 82 -175
c53.333 -48.667 157.333 -94 312 -136c108 -29.333 196.833 -62.666 266.5 -99.999s122.667 -82.833 159 -136.5s54.5 -118.834 54.5 -195.501c0 -77.333 -21.333 -144.666 -64 -201.999s-101.834 -101.333 -177.501 -132s-162.167 -46 -259.5 -46
c-91.333 0 -178.166 15.667 -260.499 47s-149.5 77.666 -201.5 138.999c-54.667 63.333 -82 146.666 -82 249.999h124c0 -78 20.167 -141.833 60.5 -191.5s94.833 -85.834 163.5 -108.501c65.333 -21.333 130.666 -32 195.999 -32c75.333 0 141.5 11.333 198.5 34
s101 54.834 132 96.501s46.5 89.5 46.5 143.5c0 55.333 -12.667 102 -38 140z" />
    <glyph glyph-name="T" unicode="T" horiz-adv-x="1223" 
d="M52 1351v105h1120v-105h-499v-1351h-122v1351h-499z" />
    <glyph glyph-name="U" unicode="U" horiz-adv-x="1347" 
d="M1064 1456l123 -0.000976562v-986c0 -106 -22.5 -195.667 -67.5 -269s-106.333 -128.5 -184 -165.5s-164.834 -55.5 -261.501 -55.5c-98.667 0 -186.5 18.333 -263.5 55s-137.5 91.834 -181.5 165.501s-66 163.5 -66 269.5v986h122v-986c0 -82.667 16.5 -153 49.5 -211
s78.833 -101.667 137.5 -131s126 -44 202 -44c76.667 0 144.334 14.667 203.001 44s104.5 73 137.5 131s49.5 128.333 49.5 211v986z" />
    <glyph glyph-name="V" unicode="V" horiz-adv-x="1264" 
d="M1233 1456l-542 -1456h-118l-541 1456h134l457 -1275l9 -31l8 31l459 1275h134z" />
    <glyph glyph-name="W" unicode="W" horiz-adv-x="1836" 
d="M1783 1456l-372 -1456h-118l-331 1139l-36 145l-37 -145l-337 -1139h-118l-373 1456h126l266 -1063l46 -226l55 217l316 1072h111l311 -1072l55 -218l47 228l263 1062h126z" />
    <glyph glyph-name="X" unicode="X" horiz-adv-x="1254" 
d="M218 1456l410 -616l409 616h147l-482 -717l497 -739h-147l-424 636l-426 -636h-146l497 739l-482 717h147z" />
    <glyph glyph-name="Y" unicode="Y" horiz-adv-x="1227" 
d="M170 1456l441 -794l445 794h143l-526 -907v-549h-123v549l-526 907h146z" />
    <glyph glyph-name="Z" unicode="Z" horiz-adv-x="1225" 
d="M117 1352v104h989v-88l-867 -1264h899v-104h-1048v93l866 1259h-839z" />
    <glyph glyph-name="bracketleft" unicode="[" horiz-adv-x="491" 
d="M494 1664v-102h-210v-1772h210v-102h-330v1976h330z" />
    <glyph glyph-name="backslash" unicode="\" horiz-adv-x="807" 
d="M657 -125l-608 1581h117l608 -1581h-117z" />
    <glyph glyph-name="bracketright" unicode="]" horiz-adv-x="491" 
d="M1 1562v102h330v-1976h-330v102h210v1772h-210z" />
    <glyph glyph-name="asciicircum" unicode="^" horiz-adv-x="853" 
d="M78 729l299 727h89l299 -727h-116l-228 569l-228 -569h-115z" />
    <glyph glyph-name="underscore" unicode="_" horiz-adv-x="885" 
d="M883 0v-102h-881v102h881z" />
    <glyph glyph-name="grave" unicode="`" horiz-adv-x="585" 
d="M248 1536l191 -279h-109l-227 279h145z" />
    <glyph glyph-name="a" unicode="a" horiz-adv-x="1098" 
d="M840 0c-13.333 36 -21.333 86.333 -24 151c-39.333 -50.667 -90.166 -91.834 -152.499 -123.501s-133.5 -47.5 -213.5 -47.5c-69.333 0 -130.333 13.167 -183 39.5s-93.5 62.833 -122.5 109.5s-43.5 99.334 -43.5 158.001c0 70 19.833 130.833 59.5 182.5
s96.667 91.334 171 119.001s161.833 41.5 262.5 41.5h221v122c0 78 -24.167 139.167 -72.5 183.5s-117.166 66.5 -206.499 66.5c-54.667 0 -104.167 -9.83301 -148.5 -29.5s-79 -46.167 -104 -79.5s-37.5 -70 -37.5 -110l-120 1c0 54.667 17.667 106.5 53 155.5
s84.666 88.333 147.999 118s134.666 44.5 213.999 44.5c78 0 146.667 -13.167 206 -39.5s105.5 -65.833 138.5 -118.5s49.5 -117.334 49.5 -194.001v-500c0 -106.667 11 -185.667 33 -237v-13h-128zM681 145.5c62 39.667 106.666 90.833 133.999 153.5v239h-211
c-80 0 -148.667 -9.83301 -206 -29.5s-101.333 -47.5 -132 -83.5s-46 -78.667 -46 -128c0 -39.333 9.83301 -75 29.5 -107s47.834 -57.333 84.501 -76s79.667 -28 129 -28c83.333 0 156 19.833 218 59.5z" />
    <glyph glyph-name="b" unicode="b" horiz-adv-x="1135" 
d="M1028 530c0 -108 -16.334 -203.5 -49.001 -286.5s-80.167 -147.667 -142.5 -194s-136.166 -69.5 -221.499 -69.5c-151.333 0 -265.333 56.333 -342 169l-6 -149h-112v1536h120v-610c77.333 117.333 190 176 338 176c86.667 0 161.167 -22.5 223.5 -67.5
s109.833 -108.833 142.5 -191.5s49 -180 49 -292v-21zM388.999 936.5c-50.667 -41 -88.668 -94.167 -114.001 -159.5v-489c26 -61.333 65.667 -110.666 119 -147.999s119.333 -56 198 -56c70 0 128.5 19 175.5 57s81.833 90.167 104.5 156.5s34.334 142.166 35.001 227.499
v26c0 134 -26.167 242 -78.5 324s-131.833 123 -238.5 123c-83.333 0 -150.333 -20.5 -201 -61.5z" />
    <glyph glyph-name="c" unicode="c" horiz-adv-x="1056" 
d="M700.5 111.5c44.333 19.667 80.6709 48.499 109.004 86.499s44.5 83.667 48.5 137h114c-3.33301 -67.333 -24.166 -128.166 -62.499 -182.499s-88.5 -96.666 -150.5 -126.999s-129.333 -45.5 -202 -45.5c-97.333 0 -180.5 23.167 -249.5 69.5
s-121.333 109.666 -157 189.999s-54.167 171.5 -55.5 273.5v49c0 102.667 17.667 194.834 53 276.501s87.666 146 156.999 193s152.666 70.5 249.999 70.5c77.333 0 146.833 -15.667 208.5 -47s111 -76.166 148 -134.499s57.167 -125.833 60.5 -202.5h-114
c-3.33301 57.333 -18.666 107.166 -45.999 149.499s-63.333 75 -108 98s-94.334 34.5 -149.001 34.5c-78.667 0 -143.5 -19.833 -194.5 -59.5s-88.167 -92.5 -111.5 -158.5s-35 -139.333 -35 -220v-42c0 -81.333 11.667 -154.833 35 -220.5
s60.666 -118.334 111.999 -158.001s116.666 -59.5 195.999 -59.5c51.333 0 99.166 9.83301 143.499 29.5z" />
    <glyph glyph-name="d" unicode="d" horiz-adv-x="1138" 
d="M868 0l-6 145.002c-76 -110 -188.667 -165 -338 -165c-83.333 0 -156.333 23.167 -219 69.5s-111 111.166 -145 194.499s-51 178.666 -51 285.999v21c0 111.333 16.833 208.5 50.5 291.5s82 147 145 192s136.833 67.5 221.5 67.5c146.667 0 258 -57 334 -171v605h120
v-1536h-112zM229 530.002c0 -86 11.668 -162.668 35.001 -230.001s58.833 -120.166 106.5 -158.499s106.5 -57.5 176.5 -57.5c77.333 0 141.666 17.5 192.999 52.5s91.333 82.5 120 142.5v511c-26.667 62 -65.167 112.167 -115.5 150.5s-115.5 57.5 -195.5 57.5
c-70.667 0 -130 -19.333 -178 -58s-83.667 -91.5 -107 -158.5s-35 -143.833 -35 -230.5v-21z" />
    <glyph glyph-name="e" unicode="e" horiz-adv-x="1059" 
d="M959 172c-39.333 -58 -90.665 -104.498 -153.998 -139.498s-140 -52.5 -230 -52.5c-92.667 0 -175.834 22.667 -249.501 68s-131.334 108.333 -173.001 189s-62.5 172 -62.5 274v43c0 107.333 21.167 202.666 63.5 285.999s99 147.833 170 193.5s147.833 68.5 230.5 68.5
c89.333 0 166.333 -21 231 -63s113.667 -100.333 147 -175s50 -160.334 50 -257.001v-73h-772v-23c0 -79.333 15.667 -151.833 47 -217.5s75 -117.5 131 -155.5s120 -57 192 -57c127.333 0 228.333 49.333 303 148zM391.501 955.002
c-48.333 -30 -87.833 -72.499 -118.5 -127.499s-50 -118.833 -58 -191.5h647v13c-1.33301 62.667 -13.833 120.667 -37.5 174s-58.5 96.166 -104.5 128.499s-101.333 48.5 -166 48.5c-60 0 -114.167 -15 -162.5 -45z" />
    <glyph glyph-name="f" unicode="f" horiz-adv-x="678" 
d="M621 984l-259.002 -0.000976562v-984h-119v984h-180v98h180v139c0.666992 106.667 29.334 189.334 86.001 248.001s134.334 88 233.001 88c44 0 86.667 -5.66699 128 -17l-9 -100c-33.333 8 -70 12 -110 12c-65.333 0 -116.5 -20.5 -153.5 -61.5
s-55.5 -98.833 -55.5 -173.5v-135h259v-98z" />
    <glyph glyph-name="g" unicode="g" horiz-adv-x="1137" 
d="M335.5 -384c-69 32 -124.502 77.6689 -166.502 137.002l67 73c83.333 -104 184.333 -156 303 -156c102 0 181 30.333 237 91s84 145.334 84 254.001v126c-77.333 -107.333 -189.333 -161 -336 -161c-83.333 0 -156.166 22.667 -218.499 68s-110.333 108.666 -144 189.999
s-51.167 174.666 -52.5 279.999v33c0 111.333 16.667 208.5 50 291.5s81.333 147 144 192s137 67.5 223 67.5c148 0 260.333 -58.333 337 -175l5 155h112v-1063c0 -92.667 -17.833 -172.834 -53.5 -240.501s-86.167 -119.667 -151.5 -156s-141.666 -54.5 -228.999 -54.5
c-71.333 0 -141.5 16 -210.5 48zM228.998 530.002c0 -86 11.667 -162.668 35 -230.001s58.833 -120.166 106.5 -158.499s106.5 -57.5 176.5 -57.5c78 0 142.667 17.833 194 53.5s91 84.5 119 146.5v500c-26 63.333 -64 114.833 -114 154.5s-115.667 59.5 -197 59.5
c-70.667 0 -130 -19.333 -178 -58s-83.667 -91.5 -107 -158.5s-35 -143.833 -35 -230.5v-21z" />
    <glyph glyph-name="h" unicode="h" horiz-adv-x="1125" 
d="M397.5 926c-55 -48.667 -95.499 -109.334 -121.499 -182.001v-744h-120v1536h120v-635c38.667 62.667 88.167 111.834 148.5 147.501s128.166 53.5 203.499 53.5c110.667 0 195.667 -31.333 255 -94s89.333 -162 90 -298v-710h-120v710
c-0.666992 104.667 -22.667 179 -66 223s-106.333 66 -189 66c-78.667 0 -145.5 -24.333 -200.5 -73z" />
    <glyph glyph-name="i" unicode="i" horiz-adv-x="460" 
d="M231 1476c55.333 0 83 -27 83 -81c0 -52.667 -27.667 -79 -83 -79c-54.667 0 -82 26.333 -82 79c0 54 27.333 81 82 81zM290 1082v-1082h-119v1082h119z" />
    <glyph glyph-name="j" unicode="j" horiz-adv-x="468" 
d="M227 1476c24.667 0 44.667 -7.66797 60 -23.001s23 -34.666 23 -57.999c0 -52.667 -27.667 -79 -83 -79c-54.667 0 -82 26.333 -82 79c0 54 27.333 81 82 81zM166 1082h120v-1211c0 -205.333 -94.667 -308 -284 -308c-38.667 0 -74 6.33301 -106 19l1 99
c34 -9.33301 64 -14 90 -14c119.333 0 179 68 179 204v1211z" />
    <glyph glyph-name="k" unicode="k" horiz-adv-x="1004" 
d="M851 0l-438 545l-137 -132v-413h-119v1536h119v-982l113 122l415 406h151l-459 -456l499 -626h-144z" />
    <glyph glyph-name="l" unicode="l" horiz-adv-x="460" 
d="M290 1536v-1536h-119v1536h119z" />
    <glyph glyph-name="m" unicode="m" horiz-adv-x="1816" 
d="M381 926.5c-52 -48.333 -88.998 -109.168 -110.998 -182.501v-744h-120v1082h116l3 -176c37.333 61.333 85.666 109.333 144.999 144s128 52 206 52c171.333 0 279.333 -70 324 -210c36 64 85.833 115 149.5 153s137.167 57 220.5 57c115.333 0 203 -31.5 263 -94.5
s90.333 -162.167 91 -297.5v-710h-119v711c-0.666992 105.333 -23.334 179.666 -68.001 222.999s-108.667 65 -192 65c-64 0 -119.5 -14.167 -166.5 -42.5s-83.5 -64.166 -109.5 -107.499s-41 -87.666 -45 -132.999v-716h-120v716c0 102 -22.833 174.667 -68.5 218
s-110.5 65 -194.5 65s-152 -24.167 -204 -72.5z" />
    <glyph glyph-name="n" unicode="n" horiz-adv-x="1126" 
d="M397.5 926c-55 -48.667 -95.501 -109.333 -121.501 -182v-744h-120v1082h115l4 -183c38.667 63.333 88.334 113 149.001 149s128.667 54 204 54c110.667 0 195.667 -31.333 255 -94s89.333 -162 90 -298v-710h-120v710c-0.666992 104.667 -22.667 179 -66 223
s-106.333 66 -189 66c-78.667 0 -145.5 -24.333 -200.5 -73z" />
    <glyph glyph-name="o" unicode="o" horiz-adv-x="1148" 
d="M91 557c0 104.667 20 198.332 60 280.999s96.5 147.334 169.5 194.001s157.167 70 252.5 70s179.5 -23 252.5 -69s129.5 -109.5 169.5 -190.5s60.667 -172.833 62 -275.5v-42c0 -104.667 -20 -198.334 -60 -281.001s-96.333 -147.334 -169 -194.001s-157 -70 -253 -70
s-180.667 23.333 -254 70s-130 111.334 -170 194.001s-60 176.334 -60 281.001v32zM211 524.998c0 -81.333 14.1689 -155.665 42.502 -222.998s70 -120.833 125 -160.5s120.5 -59.5 196.5 -59.5c75.333 0 140.333 19.833 195 59.5s96.167 93.167 124.5 160.5
s42.5 141.666 42.5 222.999v32c0 79.333 -14.333 152.666 -43 219.999s-70.5 121.333 -125.5 162s-120.167 61 -195.5 61c-74.667 0 -139.334 -20.167 -194.001 -60.5s-96.334 -94.333 -125.001 -162s-43 -141.5 -43 -221.5v-31z" />
    <glyph glyph-name="p" unicode="p" horiz-adv-x="1135" 
d="M275 137l-0.000976562 -553h-120v1498h112l6 -153c77.333 115.333 190.333 173 339 173c86.667 0 161.167 -22.5 223.5 -67.5s109.833 -108.833 142.5 -191.5s49 -180 49 -292v-21c0 -108 -16.333 -203.5 -49 -286.5s-80.167 -147.667 -142.5 -194
s-136.166 -69.5 -221.499 -69.5c-147.333 0 -260.333 52.333 -339 157zM390.499 941c-50.333 -38 -88.835 -87.668 -115.502 -149.001v-522c28 -58 67.833 -103.833 119.5 -137.5s115.834 -50.5 192.501 -50.5c70 0 129 19.333 177 58s83.833 91.834 107.5 159.501
s35.5 144.5 35.5 230.5v21c0 86 -11.833 162.667 -35.5 230s-59.5 120.333 -107.5 159s-107.667 58 -179 58c-79.333 0 -144.166 -19 -194.499 -57z" />
    <glyph glyph-name="q" unicode="q" horiz-adv-x="1143" 
d="M979 1082v-1498h-119v550c-78.667 -102.667 -190 -154 -334 -154c-84.667 0 -158.167 22.667 -220.5 68s-110.333 108.666 -144 189.999s-51.167 174.666 -52.5 279.999v33c0 112 16.667 209.333 50 292s81.5 146.5 144.5 191.5s137.833 67.5 224.5 67.5
c144.667 0 256 -55.333 334 -166l5 146h112zM229 530.002c0 -86 11.834 -162.832 35.501 -230.499s59.5 -120.834 107.5 -159.501s107 -58 177 -58c75.333 0 138.666 16.833 189.999 50.5s91.666 79.5 120.999 137.5v528c-28 59.333 -67.167 107.833 -117.5 145.5
s-114.166 56.5 -191.499 56.5c-70.667 0 -130.167 -19.5 -178.5 -58.5s-84.333 -92.333 -108 -160s-35.5 -144.5 -35.5 -230.5v-21z" />
    <glyph glyph-name="r" unicode="r" horiz-adv-x="690" 
d="M383 923c-50.667 -43.333 -86.332 -102.333 -106.999 -177v-746h-120v1082h117l3 -169c64 126 165.333 189 304 189c32 0 58.667 -4 80 -12l-4 -109c-28.667 4.66699 -55.334 7 -80.001 7c-78 0 -142.333 -21.667 -193 -65z" />
    <glyph glyph-name="s" unicode="s" horiz-adv-x="1038" 
d="M751 405c-37.333 41.333 -116.004 74.3311 -236.004 98.998c-85.333 18 -155.166 39.333 -209.499 64s-95.833 56.334 -124.5 95.001s-43 87 -43 145c0 54 15.667 103.333 47 148s75.833 80.167 133.5 106.5s124.5 39.5 200.5 39.5c82 0 153.167 -13.833 213.5 -41.5
s106.5 -66 138.5 -115s48 -104.5 48 -166.5h-121c0 38 -11 74 -33 108s-54.167 61.333 -96.5 82s-92.166 31 -149.499 31c-59.333 0 -108.666 -9 -147.999 -27s-68.166 -41.333 -86.499 -70s-27.5 -59 -27.5 -91c0 -46.667 17.667 -86.667 53 -120
c34.667 -32.667 112.667 -62.667 234 -90c86 -20 156.5 -43 211.5 -69s97 -59.333 126 -100s43.5 -91 43.5 -151c0 -59.333 -16.333 -111.833 -49 -157.5s-79.167 -81.167 -139.5 -106.5s-130.5 -38 -210.5 -38c-88 0 -164 14.833 -228 44.5s-112.667 69.334 -146 119.001
s-50 103.167 -50 160.5h119c5.33301 -78 37.5 -134.5 96.5 -169.5s128.5 -52.5 208.5 -52.5c58 0 108 9 150 27s74 41.667 96 71s33 61.333 33 96c0 45.333 -18 88.333 -54 129z" />
    <glyph glyph-name="t" unicode="t" horiz-adv-x="659" 
d="M586 -4c-30 -10.667 -72.668 -16 -128.001 -16c-75.333 0 -133.5 21.667 -174.5 65s-61.5 116.333 -61.5 219v720h-198v98h198v278h121v-278h223v-98h-223v-720c0 -69.333 12.5 -116.5 37.5 -141.5s59.167 -37.5 102.5 -37.5c24.667 0 57.334 3.66699 98.001 11z" />
    <glyph glyph-name="u" unicode="u" horiz-adv-x="1125" 
d="M855 0l-2.99805 137c-72 -104.667 -186.667 -157 -344 -157c-111.333 0 -198.333 32.5 -261 97.5s-94.334 167.5 -95.001 307.5v697h120v-694c0 -108 22.833 -185.667 68.5 -233s106.167 -71 181.5 -71c90.667 0 162.667 19 216 57s90.666 90 111.999 156v785h120v-1082
h-115z" />
    <glyph glyph-name="v" unicode="v" horiz-adv-x="985" 
d="M946 1082l-405 -1082h-97l-406 1082h124l332 -918l328 918h124z" />
    <glyph glyph-name="w" unicode="w" horiz-adv-x="1545" 
d="M1474 1082l-315 -1082h-102l-279 859l-12 59l-14 -60l-273 -858h-102l-314 1082h123l230 -833l18 -91l23 96l260 828h103l256 -821l29 -113l22 104l223 830h124z" />
    <glyph glyph-name="x" unicode="x" horiz-adv-x="997" 
d="M205 1082l291 -438l293 438h142l-367 -531l382 -551h-140l-309 458l-307 -458h-142l383 551l-367 531h141z" />
    <glyph glyph-name="y" unicode="y" horiz-adv-x="974" 
d="M91 -424l-0.000976562 99.999c16 -4.66699 36.333 -7 61 -7c62.667 0 111.5 15.5 146.5 46.5s64.5 79.833 88.5 146.5l54 147l-408 1073h130l337 -910l315 910h129l-458 -1256c-16 -43.333 -35.167 -83.666 -57.5 -120.999s-51.166 -69.333 -86.499 -96
c-39.333 -30.667 -92.333 -46 -159 -46c-36 0 -66.667 4.33301 -92 13z" />
    <glyph glyph-name="z" unicode="z" horiz-adv-x="997" 
d="M108 979v103h786v-88l-657 -892h702v-102h-851v89l655 890h-635z" />
    <glyph glyph-name="braceleft" unicode="{" horiz-adv-x="677" 
d="M69 648c154 0 231 87.665 231 262.998v221c0 114.667 25.833 211.834 77.5 291.501s138.167 137.5 259.5 173.5l27 -79c-85.333 -26.667 -147.5 -73.5 -186.5 -140.5s-58.5 -148.833 -58.5 -245.5v-218c0 -161.333 -60.667 -267.666 -182 -318.999
c121.333 -49.333 182 -156 182 -320v-216c0 -95.333 20 -176 60 -242s102.667 -113.333 188 -142l-30 -80c-121.333 36 -207.833 94 -259.5 174s-77.5 176.667 -77.5 290v220c0 176 -77 264 -231 264v105z" />
    <glyph glyph-name="bar" unicode="|" horiz-adv-x="453" 
d="M280 1456v-1726h-102v1726h102z" />
    <glyph glyph-name="braceright" unicode="}" horiz-adv-x="677" 
d="M607 543c-154 0 -231 -87.999 -231 -263.999v-220c0 -114 -25.667 -210.833 -77 -290.5s-138 -137.5 -260 -173.5l-29 80c164.667 54.667 247 184.667 247 390v209c0 168 64.333 275 193 321c-128.667 46.667 -193 153 -193 319v218c0 96 -19.5 177.667 -58.5 245
s-100.833 114.333 -185.5 141l26 79c122 -36 208.667 -93.833 260 -173.5s77 -176.834 77 -291.501v-221c0 -175.333 77 -263 231 -263v-105z" />
    <glyph glyph-name="asciitilde" unicode="~" horiz-adv-x="1403" 
d="M1255 765c0 -62 -11.998 -119 -35.998 -171s-58.333 -93.5 -103 -124.5s-97.334 -46.5 -158.001 -46.5c-55.333 0 -104.5 11.5 -147.5 34.5s-92.833 59.833 -149.5 110.5c-50.667 44.667 -90.834 74.667 -120.501 90s-62.834 23 -99.501 23
c-124.667 0 -187 -77 -187 -231l-108 -1c0 63.333 11.667 120.833 35 172.5s57.333 92.334 102 122.001s97.334 44.5 158.001 44.5c55.333 0 105.333 -11.833 150 -35.5s94 -59.834 148 -108.501c48 -44 87.5 -74 118.5 -90s64.5 -24 100.5 -24c60 0 107 21.167 141 63.5
s51 99.5 51 171.5h105z" />
    <glyph glyph-name="uni00A0" unicode="&#xa0;" horiz-adv-x="499" 
 />
    <glyph glyph-name="exclamdown" unicode="&#xa1;" horiz-adv-x="453" 
d="M224 942c-55.333 0 -83 27 -83 81c0 52.667 27.667 79 83 79c54.667 0 82 -26.333 82 -79c0 -54 -27.333 -81 -82 -81zM168 -360l7 1050h111l6 -1050h-124z" />
    <glyph glyph-name="cent" unicode="&#xa2;" horiz-adv-x="1115" 
d="M996 335c-2.66699 -61.333 -20.3301 -117.498 -52.9971 -168.498s-75.834 -92.5 -129.501 -124.5s-112.834 -51.667 -177.501 -59v-228h-120v229c-84.667 10 -156.834 39.5 -216.501 88.5s-104.667 112.167 -135 189.5s-45.5 163.333 -45.5 258v42
c0 95.333 15.167 181.666 45.5 258.999s75.333 140.333 135 189s131.834 78 216.501 88v220h120v-219c68 -8 128.667 -28.5 182 -61.5s95.666 -76.833 126.999 -131.5s48.333 -117.334 51 -188.001h-114c-2.66699 56.667 -17.667 106.334 -45 149.001
s-63.5 75.5 -108.5 98.5s-94.833 34.5 -149.5 34.5c-78 0 -142.5 -19.833 -193.5 -59.5s-88.333 -92.5 -112 -158.5s-35.5 -139.333 -35.5 -220v-42c0 -81.333 11.667 -154.833 35 -220.5s60.5 -118.334 111.5 -158.001s116.167 -59.5 195.5 -59.5
c51.333 0 99.333 9.83301 144 29.5s81.167 48.5 109.5 86.5s44.5 83.667 48.5 137h114z" />
    <glyph glyph-name="sterling" unicode="&#xa3;" horiz-adv-x="1170" 
d="M97 0v103.996h99c32 9.33301 56.167 40.833 72.5 94.5s23.5 110.167 21.5 169.5l-9 277h-188v105h185l-9 289c0 90.667 17 168.834 51 234.501s81.5 115.834 142.5 150.501s131.5 52 211.5 52c82 0 152.5 -16.333 211.5 -49s104 -78.167 135 -136.5
s46.5 -125.833 46.5 -202.5h-122c0 64.667 -12.5 118.334 -37.5 161.001s-58.5 73.834 -100.5 93.501s-89 29.5 -141 29.5c-54.667 0 -102.667 -13 -144 -39s-73.333 -64 -96 -114s-34 -110 -34 -180l9 -289h345v-105h-341l9 -277c2 -114.667 -19.667 -202.667 -65 -264h745
v-104h-997z" />
    <glyph glyph-name="currency" unicode="&#xa4;" horiz-adv-x="1481" 
d="M1376 60l-87.001 -87l-157 160c-52.667 -48.667 -112.5 -86.334 -179.5 -113.001s-137.833 -40 -212.5 -40c-148.667 0 -278.667 50.667 -390 152l-155 -158l-85 86l159 162c-82.667 112.667 -124 241.334 -124 386.001c0 150.667 44.333 283.334 133 398.001l-168 172
l85 86l167 -170c109.333 93.333 235.333 140 378 140c144.667 0 271.334 -47 380.001 -141l169 172l87 -87l-171 -175c86.667 -112.667 130 -244.334 130 -395.001c0 -144 -40.333 -271.667 -121 -383zM322.999 349.5c43.333 -79 102.001 -141.834 176.001 -188.501
s154.333 -70 241 -70s166.5 23 239.5 69s131.833 108.667 176.5 188c43.333 78.667 65 165.334 65 260.001c0 92.667 -21.667 178.5 -65 257.5s-101.833 141.667 -175.5 188s-153.834 69.5 -240.501 69.5s-166.667 -22.833 -240 -68.5s-132 -108.167 -176 -187.5
c-44 -78 -66 -164.333 -66 -259c0 -93.333 21.667 -179.5 65 -258.5z" />
    <glyph glyph-name="yen" unicode="&#xa5;" horiz-adv-x="1057" 
d="M945 324h-358v-324h-124v324h-354v89h354v204h-354v89h314l-399 750h139l365 -725l365 725h137l-399 -750h314v-89h-358v-204h358v-89z" />
    <glyph glyph-name="brokenbar" unicode="&#xa6;" horiz-adv-x="445" 
d="M280 1456v-758h-120v758h120zM280 -270h-120v771h120v-771z" />
    <glyph glyph-name="section" unicode="&#xa7;" horiz-adv-x="1240" 
d="M1017.5 -330c-38.333 -53.333 -92.8369 -94.168 -163.504 -122.501s-153.334 -42.5 -248.001 -42.5c-88 0 -169.667 14.333 -245 43s-136.666 72.667 -183.999 132c-49.333 63.333 -74 148.666 -74 255.999l120 2c0 -80 18.5 -144.667 55.5 -194
s86.833 -84.666 149.5 -105.999c58 -20.667 117.333 -31 178 -31c72.667 0 135.334 10.833 188.001 32.5s92.667 51.5 120 89.5s41 81.333 41 130c0 68.667 -25 123.667 -75 165c-51.333 41.333 -149.666 82.333 -294.999 123c-106 26.667 -193.167 56.167 -261.5 88.5
s-121.166 74 -158.499 125s-56 114.5 -56 190.5c0 136.667 74.333 228.334 223 275.001c-59.333 32.667 -103.833 72.5 -133.5 119.5s-44.5 105.167 -44.5 174.5c0 71.333 19.333 133.833 58 187.5s93.5 95.167 164.5 124.5s153.5 44 247.5 44
c98.667 0 183.334 -16.667 254.001 -50s124.834 -82.166 162.501 -146.499s56.5 -142.5 56.5 -234.5h-119c0 62 -13.833 118 -41.5 168s-68.167 89.5 -121.5 118.5s-117 43.5 -191 43.5c-78 0 -143.167 -11.167 -195.5 -33.5s-91.166 -52.5 -116.499 -90.5
s-38 -80.667 -38 -128c0 -54 12 -97.833 36 -131.5s63 -62.834 117 -87.501s131.667 -50.667 233 -78c106 -28.667 191.167 -58.167 255.5 -88.5s114.166 -69.333 149.499 -117s53.666 -108.167 54.999 -181.5v-8c0 -65.333 -20.5 -121.5 -61.5 -168.5
s-98.167 -81.5 -171.5 -103.5c63.333 -32.667 110.5 -72.5 141.5 -119.5s46.5 -106.5 46.5 -178.5c0 -74 -19.167 -137.667 -57.5 -191zM753.996 213.998c76.667 9.33301 136.834 33.501 180.501 72.501s65.5 86.167 65.5 141.5c0 72.667 -28.667 130 -86 172
c-56 41.333 -162 84.666 -318 129.999c-55.333 14 -102 28 -140 42c-75.333 -9.33301 -132 -33.5 -170 -72.5s-57 -87.833 -57 -146.5c0 -80 28.667 -139.667 86 -179c57.333 -40 168.666 -82.667 333.999 -128z" />
    <glyph glyph-name="dieresis" unicode="&#xa8;" horiz-adv-x="881" 
d="M220 1477c55.333 0 83 -26.667 83 -80s-27.667 -80 -83 -80c-54.667 0 -82 26.667 -82 80s27.333 80 82 80zM657 1477c55.333 0 83 -27 83 -81c0 -52.667 -27.667 -79 -83 -79c-54.667 0 -82 26.333 -82 79c0 54 27.333 81 82 81z" />
    <glyph glyph-name="copyright" unicode="&#xa9;" horiz-adv-x="1638" 
d="M201.5 1107c63 113.333 149.499 203.667 259.499 271c107.333 65.333 226 98 356 98c129.333 0 247.833 -32.5 355.5 -97.5s193.834 -154.5 258.501 -268.5c64 -112.667 96 -239.667 96 -381c0 -138.667 -31.5 -264.834 -94.5 -378.501s-149.167 -204.167 -258.5 -271.5
c-106.667 -66.667 -225.667 -100 -357 -100c-128.667 0 -247 32.833 -355 98.5s-194.333 155.834 -259 270.501c-64 113.333 -96 240.333 -96 381c0 138.667 31.5 264.667 94.5 378zM276.499 394.501c55.667 -101 131.5 -181.165 227.5 -240.498
c94.667 -58.667 199 -88 313 -88c112.667 0 216.5 29.167 311.5 87.5s171.167 138.166 228.5 239.499c56 100 84 212 84 336c0 122 -27.833 233.167 -83.5 333.5s-131.5 180.166 -227.5 239.499c-94.667 58.667 -199 88 -313 88c-112.667 0 -216.5 -29 -311.5 -87
s-170.833 -137.333 -227.5 -238c-56.667 -99.333 -85 -211.333 -85 -336c0 -122 27.833 -233.5 83.5 -334.5zM1122 607.003c0 -102.667 -28 -180.665 -84 -233.998s-133 -80 -231 -80c-66 0 -124.167 16.333 -174.5 49s-89.333 78.167 -117 136.5s-41.5 125.5 -41.5 201.5
v97c0 76 13.833 143.167 41.5 201.5s66.667 103.833 117 136.5s108.5 49 174.5 49c98.667 0 176 -26.667 232 -80s84 -131 84 -233h-99c0 148.667 -72.333 223 -217 223c-49.333 0 -91.5 -12.833 -126.5 -38.5s-61.5 -60.834 -79.5 -105.501s-27 -95.334 -27 -152.001v-98
c0 -57.333 9 -108.333 27 -153s44.5 -79.667 79.5 -105s77.167 -38 126.5 -38c144 0 216 74.333 216 223h99z" />
    <glyph glyph-name="ordfeminine" unicode="&#xaa;" horiz-adv-x="907" 
d="M649 705c-9.33301 30.667 -16.001 61.9971 -20.001 93.9971c-24 -31.333 -55.167 -57.166 -93.5 -77.499s-81.166 -30.5 -128.499 -30.5c-79.333 0 -140.666 19.667 -183.999 59s-65 92.333 -65 159c0 150 103.333 227.333 310 232h158v60c0 119.333 -54 179 -162 179
c-60 0 -107 -12.167 -141 -36.5s-51 -59.833 -51 -106.5l-108 6c0 44.667 12.5 84.667 37.5 120s60.167 63 105.5 83s97.666 30 156.999 30c82.667 0 148.5 -23.667 197.5 -71s73.5 -115.666 73.5 -204.999v-314c0 -63.333 8.66699 -123.666 26 -180.999h-112z
M540.499 818.497c38.333 21 66.834 45.167 85.501 72.5v167h-147c-142 -2 -213 -50.333 -213 -145c0 -84 53.667 -126 161 -126c37.333 0 75.166 10.5 113.499 31.5z" />
    <glyph glyph-name="guillemotleft" unicode="&#xab;" horiz-adv-x="933" 
d="M418 148l-295 379v19l295 379h106l-276 -389l276 -388h-106zM727 148l-295 379v19l295 379h106l-276 -389l276 -388h-106z" />
    <glyph glyph-name="logicalnot" unicode="&#xac;" horiz-adv-x="1118" 
d="M125 776h812v-390h-120v284h-692v106z" />
    <glyph glyph-name="uni00AD" unicode="&#xad;" horiz-adv-x="586" 
d="M528 694v-102h-479v102h479z" />
    <glyph glyph-name="registered" unicode="&#xae;" horiz-adv-x="1642" 
d="M197.5 1107c63 113.333 149.167 203.667 258.5 271c107.333 65.333 226.333 98 357 98c128.667 0 246.834 -32.5 354.501 -97.5s193.834 -154.5 258.501 -268.5c64 -112.667 96 -239.667 96 -381c0 -138.667 -31.5 -264.834 -94.5 -378.501
s-149.167 -204.167 -258.5 -271.5c-106.667 -66.667 -225.334 -100 -356.001 -100c-129.333 0 -247.833 32.833 -355.5 98.5s-193.834 155.834 -258.501 270.501c-64 113.333 -96 240.333 -96 381c0 138.667 31.5 264.667 94.5 378zM271.5 394.501
c55.667 -101 131.499 -181.165 227.499 -240.498c94.667 -58.667 199.334 -88 314.001 -88c112.667 0 216.5 29.167 311.5 87.5s171.167 138.166 228.5 239.499c56 100 84 212 84 336c0 122 -27.833 233.167 -83.5 333.5s-131.5 180.166 -227.5 239.499
c-94.667 58.667 -199 88 -313 88c-113.333 0 -217.5 -29 -312.5 -87s-170.833 -137.333 -227.5 -238c-56.667 -99.333 -85 -211.333 -85 -336c0 -122 27.833 -233.5 83.5 -334.5zM650.999 667.003v-344.999h-98v839h257c204 0 306 -82.667 306 -248
c0 -88.667 -47.333 -154.334 -142 -197.001c86 -28.667 129 -98 129 -208c0 -84.667 5.66699 -141.334 17 -170.001v-16h-102c-9.33301 24.667 -14 85.667 -14 183c0 58.667 -12.667 100.334 -38 125.001s-68 37 -128 37h-187zM650.999 1070v-312.001h180
c53.333 0.666992 97.833 14.334 133.5 41.001s53.5 64 53.5 112c0 38 -6.5 68.5 -19.5 91.5s-34.667 40 -65 51s-71.5 16.5 -123.5 16.5h-159z" />
    <glyph glyph-name="macron" unicode="&#xaf;" horiz-adv-x="875" 
d="M757 1441v-97h-620v97h620z" />
    <glyph glyph-name="degree" unicode="&#xb0;" horiz-adv-x="774" 
d="M176.5 1351c22.333 38 52.333 68.333 90 91s78.5 34 122.5 34c43.333 0 83.5 -11.333 120.5 -34s66.333 -53 88 -91s32.5 -79.333 32.5 -124s-10.833 -86 -32.5 -124s-51 -68 -88 -90s-77.167 -33 -120.5 -33c-44 0 -85 11 -123 33s-68 52 -90 90s-33 79.333 -33 124
s11.167 86 33.5 124zM254 1147.5c14 -23.667 32.833 -42.334 56.5 -56.001s49.834 -20.5 78.501 -20.5s54.5 6.83301 77.5 20.5s41.167 32.334 54.5 56.001s20 50.167 20 79.5c0 30 -6.66699 57.167 -20 81.5s-31.5 43.333 -54.5 57s-48.833 20.5 -77.5 20.5
s-54.834 -7 -78.501 -21s-42.5 -33 -56.5 -57s-21 -51 -21 -81c0 -29.333 7 -55.833 21 -79.5z" />
    <glyph glyph-name="plusminus" unicode="&#xb1;" horiz-adv-x="1086" 
d="M1001 728h-391v-439h-111v439h-414v101h414v438h111v-438h391v-101zM964 102v-102h-835v102h835z" />
    <glyph glyph-name="uni00B2" unicode="&#xb2;" horiz-adv-x="740" 
d="M667 753v-88h-571v76l322 315c69.333 71.333 104 132 104 182c0 42.667 -13.833 76.5 -41.5 101.5s-66.834 37.5 -117.501 37.5c-58.667 0 -103.5 -14.833 -134.5 -44.5s-46.5 -68.5 -46.5 -116.5h-106c0 45.333 11.667 87 35 125s56.5 68.167 99.5 90.5
s93.167 33.5 150.5 33.5c82 0 147 -20.167 195 -60.5s72 -95.5 72 -165.5c0 -46 -15.167 -90.333 -45.5 -133s-76.166 -93.667 -137.499 -153l-215 -200h437z" />
    <glyph glyph-name="uni00B3" unicode="&#xb3;" horiz-adv-x="740" 
d="M268 1026l-0.000976562 81.001h78c58.667 0 104 12.667 136 38s48 57.666 48 96.999c0 40 -14 72.5 -42 97.5s-70 37.5 -126 37.5c-49.333 0 -90.166 -11.833 -122.499 -35.5s-48.5 -55.5 -48.5 -95.5h-106c0 43.333 12.167 81.666 36.5 114.999s57.5 59 99.5 77
s88.667 27 140 27c84 0 150.833 -19.5 200.5 -58.5s74.5 -93.167 74.5 -162.5c0 -82.667 -48 -141 -144 -175c106.667 -28 160 -90.667 160 -188c0 -47.333 -12.5 -88 -37.5 -122s-59.167 -60 -102.5 -78s-92.666 -27 -147.999 -27c-50.667 0 -98.334 8.5 -143.001 25.5
s-80.834 42.833 -108.501 77.5s-41.5 77.334 -41.5 128.001h106c0 -27.333 8.16699 -52 24.5 -74s38.833 -39.167 67.5 -51.5s61.334 -18.5 98.001 -18.5c119.333 0 179 47.667 179 143c0 94.667 -68.667 142 -206 142h-72z" />
    <glyph glyph-name="acute" unicode="&#xb4;" horiz-adv-x="577" 
d="M125 1257l191 279h145l-232 -279h-104z" />
    <glyph glyph-name="uni00B5" unicode="&#xb5;" horiz-adv-x="1141" 
d="M281 106l0.000976562 -521.999h-118v1498h118v-638c0.666992 -134.667 25 -228.834 73 -282.501s111.333 -80.5 190 -80.5c93.333 0 165 20.5 215 61.5s83.667 99.167 101 174.5v765h120v-1082h-109l-7 155c-64.667 -116.667 -168.334 -175 -311.001 -175
c-122 0 -212.667 42 -272 126z" />
    <glyph glyph-name="paragraph" unicode="&#xb6;" horiz-adv-x="974" 
d="M802 0h-120.999v520h-113c-102 0.666992 -189.5 21.167 -262.5 61.5s-128.333 95.666 -166 165.999s-56.5 150.5 -56.5 240.5c0 90.667 19 171.334 57 242.001s94.167 126 168.5 166s163.166 60 266.499 60h227v-1456z" />
    <glyph glyph-name="periodcentered" unicode="&#xb7;" horiz-adv-x="504" 
d="M248 801c26 0 46.833 -8 62.5 -24s23.5 -36 23.5 -60c0 -54 -28.667 -81 -86 -81c-56.667 0 -85 27 -85 81c0 56 28.333 84 85 84z" />
    <glyph glyph-name="cedilla" unicode="&#xb8;" horiz-adv-x="499" 
d="M153 0l93 0.00195312l-11 -65c47.333 -6.66699 86.666 -23.167 117.999 -49.5s47 -66.833 47 -121.5c0 -40 -11.5 -75 -34.5 -105s-56.667 -53.167 -101 -69.5s-97.166 -24.5 -158.499 -24.5l-7 77c54.667 0 101.834 10.167 141.501 30.5s59.5 50.5 59.5 90.5
c0 25.333 -6.16699 45.166 -18.5 59.499s-30.833 25.166 -55.5 32.499s-58.334 13 -101.001 17z" />
    <glyph glyph-name="uni00B9" unicode="&#xb9;" horiz-adv-x="740" 
d="M464 1455v-790h-105v663l-232 -69v90l324 106h13z" />
    <glyph glyph-name="ordmasculine" unicode="&#xba;" horiz-adv-x="923" 
d="M135 1132c0 66.667 13.3281 126 39.9951 178s64.334 92.667 113.001 122s105.334 44 170.001 44c66.667 0 124.334 -14.5 173.001 -43.5s86 -69.5 112 -121.5s39 -111.667 39 -179v-99c0 -66.667 -13 -126 -39 -178s-63.333 -92.5 -112 -121.5s-105.667 -43.5 -171 -43.5
s-122.666 14.5 -171.999 43.5s-87.166 69.5 -113.499 121.5s-39.5 111.333 -39.5 178v99zM243.995 1033c0 -72.667 18.1689 -132 54.502 -178s90.166 -69 161.499 -69c69.333 0 122.333 23.167 159 69.5s55 105.5 55 177.5v99c0 73.333 -18.333 133 -55 179
s-90.334 69 -161.001 69c-69.333 0 -122.333 -23 -159 -69s-55 -105.667 -55 -179v-99z" />
    <glyph glyph-name="guillemotright" unicode="&#xbb;" horiz-adv-x="929" 
d="M222 945l294 -385v-19l-294 -379h-106l276 389l-276 394h106zM541 945l294 -385v-19l-294 -379h-106l276 389l-276 394h106z" />
    <glyph glyph-name="onequarter" unicode="&#xbc;" horiz-adv-x="1484" 
d="M452 1454v-790h-105v663l-232 -69v90l324 106h13zM1126 1267l-711 -1138l-75 48l711 1138zM765 254l397 535h110v-513h127v-89h-127v-187h-105v187h-399zM879 276h288v383l-30 -50z" />
    <glyph glyph-name="onehalf" unicode="&#xbd;" horiz-adv-x="1549" 
d="M437 1454v-790h-105v663l-232 -69v90l324 106h13zM1082 1267l-711 -1138l-75 48l711 1138zM1436 88v-87.998h-571v76l322 315c69.333 71.333 104 132 104 182c0 42.667 -13.833 76.5 -41.5 101.5s-66.834 37.5 -117.501 37.5c-58.667 0 -103.5 -14.833 -134.5 -44.5
s-46.5 -68.5 -46.5 -116.5h-106c0 45.333 11.667 87 35 125s56.5 68.167 99.5 90.5s93.167 33.5 150.5 33.5c82 0 147 -20.167 195 -60.5s72 -95.5 72 -165.5c0 -44.667 -14.667 -88.334 -44 -131.001s-75.666 -94.334 -138.999 -155.001l-215 -200h437z" />
    <glyph glyph-name="threequarters" unicode="&#xbe;" horiz-adv-x="1590" 
d="M315 1026l-0.000976562 81.001h78c58.667 0 104 12.667 136 38s48 57.666 48 96.999c0 40 -14 72.5 -42 97.5s-70 37.5 -126 37.5c-49.333 0 -90.166 -11.833 -122.499 -35.5s-48.5 -55.5 -48.5 -95.5h-106c0 43.333 12.167 81.666 36.5 114.999s57.5 59 99.5 77
s88.667 27 140 27c84 0 150.833 -19.333 200.5 -58s74.5 -93 74.5 -163c0 -82.667 -48 -141 -144 -175c106.667 -28 160 -90.667 160 -188c0 -47.333 -12.5 -88 -37.5 -122s-59.167 -60 -102.5 -78s-92.666 -27 -147.999 -27c-50.667 0 -98.334 8.5 -143.001 25.5
s-80.834 42.833 -108.501 77.5s-41.5 77.334 -41.5 128.001h106c0 -27.333 8.16699 -52 24.5 -74s38.833 -39.167 67.5 -51.5s61.334 -18.5 98.001 -18.5c119.333 0 179 47.667 179 143c0 94.667 -68.667 142 -206 142h-72zM1270 1267l-711 -1138l-75 48l711 1138z
M879.999 254.001l397 535h110v-513h127v-89h-127v-187h-105v187h-399zM993.999 276.001h288v383l-30 -50z" />
    <glyph glyph-name="questiondown" unicode="&#xbf;" horiz-adv-x="941" 
d="M485 941c-24.667 0 -44.667 7.66797 -60 23.001s-23 34.666 -23 57.999c0 52.667 27.667 79 83 79c54.667 0 82 -26.333 82 -79c0 -54 -27.333 -81 -82 -81zM551 688.001c-0.666992 -55.333 -3.83203 -98.5 -9.49902 -129.5s-18 -61 -37 -90s-49.167 -64.5 -90.5 -106.5
l-15 -15c-48.667 -48.667 -85.167 -88 -109.5 -118s-44 -64.167 -59 -102.5s-22.5 -83.5 -22.5 -135.5c0 -178.667 87.333 -268 262 -268c51.333 0 96.833 10.333 136.5 31s70.667 50.334 93 89.001s33.5 84 33.5 136h119c-0.666992 -75.333 -17.834 -140.333 -51.501 -195
s-79.167 -96.167 -136.5 -124.5s-122 -42.5 -194 -42.5c-80 0 -148.667 15 -206 45s-101 73 -131 129s-45 122 -45 198c0 60.667 10.833 117 32.5 169s50.167 99.667 85.5 143s79 89 131 137c28 23.333 48.833 47.166 62.5 71.499s22.5 50 26.5 77s6 60.833 6 101.5h119z
" />
    <glyph glyph-name="Agrave" unicode="&#xc0;" horiz-adv-x="1280" 
d="M525 1851l191 -279h-109l-227 279h145zM31 0l550 1456h117l551 -1456h-128l-150 408h-662l-150 -408h-128zM348 513h584l-292 794z" />
    <glyph glyph-name="Aacute" unicode="&#xc1;" horiz-adv-x="1280" 
d="M571 1572l191 279h145l-232 -279h-104zM31 0l550 1456h117l551 -1456h-128l-150 408h-662l-150 -408h-128zM348 513h584l-292 794z" />
    <glyph glyph-name="Acircumflex" unicode="&#xc2;" horiz-adv-x="1280" 
d="M680 1841l240 -257v-10h-110l-169 183l-167 -183h-108v12l238 255h76zM31 0l550 1456h117l551 -1456h-128l-150 408h-662l-150 -408h-128zM348 513h584l-292 794z" />
    <glyph glyph-name="Atilde" unicode="&#xc3;" horiz-adv-x="1280" 
d="M984 1811c0 -42 -8.66602 -79.166 -25.999 -111.499s-41 -57.333 -71 -75s-63 -26.5 -99 -26.5s-65.833 5.83301 -89.5 17.5s-49.167 28.5 -76.5 50.5l-18 14c-23.333 18.667 -54.333 28 -93 28c-32.667 0 -59.334 -10.667 -80.001 -32s-31 -50.333 -31 -87l-89 4
c0 41.333 8.66699 78.166 26 110.499s40.833 57.333 70.5 75s62.5 26.5 98.5 26.5c42 0 76.667 -9 104 -27l82 -56c26 -18 56.667 -27 92 -27c31.333 0 57.5 11.167 78.5 33.5s31.5 51.833 31.5 88.5zM31.001 0.000976562l550 1456h117l551 -1456h-128l-150 408h-662
l-150 -408h-128zM348.001 513.001h584l-292 794z" />
    <glyph glyph-name="Adieresis" unicode="&#xc4;" horiz-adv-x="1280" 
d="M425 1792c55.333 0 83 -26.667 83 -80s-27.667 -80 -83 -80c-54.667 0 -82 26.667 -82 80s27.333 80 82 80zM862 1792c55.333 0 83 -27 83 -81c0 -52.667 -27.667 -79 -83 -79c-54.667 0 -82 26.333 -82 79c0 54 27.333 81 82 81zM31 0l550 1456h117l551 -1456h-128
l-150 408h-662l-150 -408h-128zM348 513h584l-292 794z" />
    <glyph glyph-name="Aring" unicode="&#xc5;" horiz-adv-x="1280" 
d="M475.5 1812.5c17 29 40.167 52 69.5 69s62 25.5 98 25.5c35.333 0 67.833 -8.5 97.5 -25.5s53 -40 70 -69s25.5 -61.167 25.5 -96.5s-8.5 -67.166 -25.5 -95.499s-40.333 -50.666 -70 -66.999s-62.167 -24.5 -97.5 -24.5c-36 0 -68.667 8.16699 -98 24.5
s-52.5 38.666 -69.5 66.999s-25.5 60.166 -25.5 95.499s8.5 67.5 25.5 96.5zM559.5 1634.5c22.333 -22.333 50.167 -33.5 83.5 -33.5c34 0 61.833 11 83.5 33s32.5 49.333 32.5 82c0 34 -10.833 62.333 -32.5 85s-49.5 34 -83.5 34s-62 -11.333 -84 -34s-33 -51 -33 -85
c0 -32 11.167 -59.167 33.5 -81.5zM31.001 0l550 1456h117l551 -1456h-128l-150 408h-662l-150 -408h-128zM348.001 513h584l-292 794z" />
    <glyph glyph-name="AE" unicode="&#xc6;" horiz-adv-x="1865" 
d="M1824 102v-102h-818l-16 390h-596l-230 -390h-146l881 1456h863v-102h-693l23 -545h589v-101h-585l26 -606h702zM461 502h524l-35 829z" />
    <glyph glyph-name="Ccedilla" unicode="&#xc7;" horiz-adv-x="1330" 
d="M969 175.5c66 61 106.998 153.836 122.998 278.503h123c-14.667 -142 -63.667 -254.167 -147 -336.5s-196.666 -127.833 -339.999 -136.5l-10 -56c47.333 -6.66699 86.666 -23.167 117.999 -49.5s47 -66.833 47 -121.5c0 -40 -11.5 -75 -34.5 -105
s-56.667 -53.167 -101 -69.5s-97.166 -24.5 -158.499 -24.5l-7 77c54.667 0 101.834 10.167 141.501 30.5s59.5 50.5 59.5 90.5c0 25.333 -6.16699 45.166 -18.5 59.499s-30.833 25.166 -55.5 32.499s-58.334 13 -101.001 17l26 120
c-100 7.33301 -187.667 38.666 -263 93.999s-133.666 130.333 -174.999 225s-62.666 203 -63.999 325v193c0 130 22.667 244.667 68 344s110 176.333 194 231s182 82 294 82c154 0 276.5 -41.5 367.5 -124.5s144.167 -199.833 159.5 -350.5h-123
c-30.667 246.667 -165.334 370 -404.001 370c-88.667 0 -165.5 -22.833 -230.5 -68.5s-115 -110 -150 -193s-52.5 -179.167 -52.5 -288.5v-184c0 -107.333 16.667 -202.833 50 -286.5s82 -149 146 -196s140.333 -70.5 229 -70.5c126.667 0 223 30.5 289 91.5z" />
    <glyph glyph-name="Egrave" unicode="&#xc8;" horiz-adv-x="1165" 
d="M502 1856l191 -279h-109l-227 279h145zM185 0v1456h900v-105h-777v-548h680v-105h-680v-594h782v-104h-905z" />
    <glyph glyph-name="Eacute" unicode="&#xc9;" horiz-adv-x="1165" 
d="M548 1577l191 279h145l-232 -279h-104zM185 0v1456h900v-105h-777v-548h680v-105h-680v-594h782v-104h-905z" />
    <glyph glyph-name="Ecircumflex" unicode="&#xca;" horiz-adv-x="1165" 
d="M657 1846l240 -257v-10h-110l-169 183l-167 -183h-108v12l238 255h76zM185 0v1456h900v-105h-777v-548h680v-105h-680v-594h782v-104h-905z" />
    <glyph glyph-name="Edieresis" unicode="&#xcb;" horiz-adv-x="1165" 
d="M402 1797c55.333 0 83 -26.667 83 -80s-27.667 -80 -83 -80c-54.667 0 -82 26.667 -82 80s27.333 80 82 80zM839 1797c55.333 0 83 -27 83 -81c0 -52.667 -27.667 -79 -83 -79c-54.667 0 -82 26.333 -82 79c0 54 27.333 81 82 81zM185 0v1456h900v-105h-777v-548h680
v-105h-680v-594h782v-104h-905z" />
    <glyph glyph-name="Igrave" unicode="&#xcc;" horiz-adv-x="546" 
d="M156 1856l191 -279h-109l-227 279h145zM335 1456v-1456h-123v1456h123z" />
    <glyph glyph-name="Iacute" unicode="&#xcd;" horiz-adv-x="546" 
d="M202 1577l191 279h145l-232 -279h-104zM335 1456v-1456h-123v1456h123z" />
    <glyph glyph-name="Icircumflex" unicode="&#xce;" horiz-adv-x="546" 
d="M311 1846l240 -257v-10h-110l-169 183l-167 -183h-108v12l238 255h76zM335 1456v-1456h-123v1456h123z" />
    <glyph glyph-name="Idieresis" unicode="&#xcf;" horiz-adv-x="546" 
d="M56 1797c55.333 0 83 -26.667 83 -80s-27.667 -80 -83 -80c-54.667 0 -82 26.667 -82 80s27.333 80 82 80zM493 1797c55.333 0 83 -27 83 -81c0 -52.667 -27.667 -79 -83 -79c-54.667 0 -82 26.333 -82 79c0 54 27.333 81 82 81zM335 1456v-1456h-123v1456h123z" />
    <glyph glyph-name="Eth" unicode="&#xd0;" horiz-adv-x="1372" 
d="M64 792l151 0.000976562v664h407c120 0 227.167 -27.333 321.5 -82s167.833 -132.167 220.5 -232.5s79 -215.833 79 -346.5v-134c0 -132 -26.333 -247.833 -79 -347.5s-126.667 -176.834 -222 -231.501s-205 -82 -329 -82h-398v690h-151v102zM675 690.001
l-337.003 -0.00195312v-586h275c102.667 0 192.334 23.333 269.001 70s135.667 112 177 196s62 181 62 291v136c0 110.667 -20.667 207.834 -62 291.501s-99.666 148.334 -174.999 194.001s-162.666 68.5 -261.999 68.5h-284v-559h337v-102z" />
    <glyph glyph-name="Ntilde" unicode="&#xd1;" horiz-adv-x="1455" 
d="M1068 1811c0 -42 -8.66602 -79.166 -25.999 -111.499s-41 -57.333 -71 -75s-63 -26.5 -99 -26.5s-65.833 5.83301 -89.5 17.5s-49.167 28.5 -76.5 50.5l-18 14c-23.333 18.667 -54.333 28 -93 28c-32.667 0 -59.334 -10.667 -80.001 -32s-31 -50.333 -31 -87l-89 4
c0 41.333 8.66699 78.166 26 110.499s40.833 57.333 70.5 75s62.5 26.5 98.5 26.5c42 0 76.667 -9 104 -27l82 -56c26 -18 56.667 -27 92 -27c31.333 0 57.5 11.167 78.5 33.5s31.5 51.833 31.5 88.5zM1269 1456v-1456h-124l-836 1246v-1246h-124v1456h124l837 -1246v1246
h123z" />
    <glyph glyph-name="Ograve" unicode="&#xd2;" horiz-adv-x="1387" 
d="M574 1862l191 -279h-109l-227 279h145zM1260 650c0 -134.667 -23.1689 -252.5 -69.502 -353.5s-112.166 -179 -197.499 -234s-185 -82.5 -299 -82.5c-110.667 0 -208.667 26.833 -294 80.5s-152 130 -200 229s-72.667 214.167 -74 345.5v171c0 134 23.5 251.667 70.5 353
s113.333 179.5 199 234.5s184.5 82.5 296.5 82.5c114 0 213.833 -27.5 299.5 -82.5s151.834 -133 198.501 -234s70 -218.833 70 -353.5v-156zM1138 808c0 114.667 -17.499 214.002 -52.499 298.002s-86 148.667 -153 194s-147.167 68 -240.5 68
c-90.667 0 -169.334 -22.667 -236.001 -68s-117.834 -110.166 -153.501 -194.499s-53.5 -183.5 -53.5 -297.5v-158c0 -114.667 18 -214.334 54 -299.001s87.5 -149.667 154.5 -195s145.833 -68 236.5 -68c93.333 0 173.333 22.667 240 68s117.334 110.166 152.001 194.499
s52 184.166 52 299.499v158z" />
    <glyph glyph-name="Oacute" unicode="&#xd3;" horiz-adv-x="1387" 
d="M620 1583l191 279h145l-232 -279h-104zM1260 650c0 -134.667 -23.1689 -252.5 -69.502 -353.5s-112.166 -179 -197.499 -234s-185 -82.5 -299 -82.5c-110.667 0 -208.667 26.833 -294 80.5s-152 130 -200 229s-72.667 214.167 -74 345.5v171c0 134 23.5 251.667 70.5 353
s113.333 179.5 199 234.5s184.5 82.5 296.5 82.5c114 0 213.833 -27.5 299.5 -82.5s151.834 -133 198.501 -234s70 -218.833 70 -353.5v-156zM1138 808c0 114.667 -17.499 214.002 -52.499 298.002s-86 148.667 -153 194s-147.167 68 -240.5 68
c-90.667 0 -169.334 -22.667 -236.001 -68s-117.834 -110.166 -153.501 -194.499s-53.5 -183.5 -53.5 -297.5v-158c0 -114.667 18 -214.334 54 -299.001s87.5 -149.667 154.5 -195s145.833 -68 236.5 -68c93.333 0 173.333 22.667 240 68s117.334 110.166 152.001 194.499
s52 184.166 52 299.499v158z" />
    <glyph glyph-name="Ocircumflex" unicode="&#xd4;" horiz-adv-x="1387" 
d="M729 1852l240 -257v-10h-110l-169 183l-167 -183h-108v12l238 255h76zM1260 650c0 -134.667 -23.1689 -252.5 -69.502 -353.5s-112.166 -179 -197.499 -234s-185 -82.5 -299 -82.5c-110.667 0 -208.667 26.833 -294 80.5s-152 130 -200 229s-72.667 214.167 -74 345.5
v171c0 134 23.5 251.667 70.5 353s113.333 179.5 199 234.5s184.5 82.5 296.5 82.5c114 0 213.833 -27.5 299.5 -82.5s151.834 -133 198.501 -234s70 -218.833 70 -353.5v-156zM1138 808c0 114.667 -17.499 214.002 -52.499 298.002s-86 148.667 -153 194
s-147.167 68 -240.5 68c-90.667 0 -169.334 -22.667 -236.001 -68s-117.834 -110.166 -153.501 -194.499s-53.5 -183.5 -53.5 -297.5v-158c0 -114.667 18 -214.334 54 -299.001s87.5 -149.667 154.5 -195s145.833 -68 236.5 -68c93.333 0 173.333 22.667 240 68
s117.334 110.166 152.001 194.499s52 184.166 52 299.499v158z" />
    <glyph glyph-name="Otilde" unicode="&#xd5;" horiz-adv-x="1387" 
d="M1033 1822c0 -42 -8.66699 -79.166 -26 -111.499s-41 -57.333 -71 -75s-63 -26.5 -99 -26.5s-65.833 5.83301 -89.5 17.5s-49.167 28.5 -76.5 50.5l-18 14c-23.333 18.667 -54.333 28 -93 28c-32.667 0 -59.334 -10.667 -80.001 -32s-31 -50.333 -31 -87l-89 4
c0 41.333 8.66699 78.166 26 110.499s40.833 57.333 70.5 75s62.5 26.5 98.5 26.5c42.667 0 77.334 -9 104.001 -27l82 -56c26 -18 56.667 -27 92 -27c31.333 0 57.5 11.167 78.5 33.5s31.5 51.833 31.5 88.5zM1260 650.001c0 -134.667 -23.1689 -252.5 -69.502 -353.5
s-112.166 -179 -197.499 -234s-185 -82.5 -299 -82.5c-110.667 0 -208.667 26.833 -294 80.5s-152 130 -200 229s-72.667 214.167 -74 345.5v171c0 134 23.5 251.667 70.5 353s113.333 179.5 199 234.5s184.5 82.5 296.5 82.5c114 0 213.833 -27.5 299.5 -82.5
s151.834 -133 198.501 -234s70 -218.833 70 -353.5v-156zM1138 808.001c0 114.667 -17.499 214.002 -52.499 298.002s-86 148.667 -153 194s-147.167 68 -240.5 68c-90.667 0 -169.334 -22.667 -236.001 -68s-117.834 -110.166 -153.501 -194.499s-53.5 -183.5 -53.5 -297.5
v-158c0 -114.667 18 -214.334 54 -299.001s87.5 -149.667 154.5 -195s145.833 -68 236.5 -68c93.333 0 173.333 22.667 240 68s117.334 110.166 152.001 194.499s52 184.166 52 299.499v158z" />
    <glyph glyph-name="Odieresis" unicode="&#xd6;" horiz-adv-x="1387" 
d="M474 1803c55.333 0 83 -26.667 83 -80s-27.667 -80 -83 -80c-54.667 0 -82 26.667 -82 80s27.333 80 82 80zM911 1803c55.333 0 83 -27 83 -81c0 -52.667 -27.667 -79 -83 -79c-54.667 0 -82 26.333 -82 79c0 54 27.333 81 82 81zM1260 650
c0 -134.667 -23.1689 -252.5 -69.502 -353.5s-112.166 -179 -197.499 -234s-185 -82.5 -299 -82.5c-110.667 0 -208.667 26.833 -294 80.5s-152 130 -200 229s-72.667 214.167 -74 345.5v171c0 134 23.5 251.667 70.5 353s113.333 179.5 199 234.5s184.5 82.5 296.5 82.5
c114 0 213.833 -27.5 299.5 -82.5s151.834 -133 198.501 -234s70 -218.833 70 -353.5v-156zM1138 808c0 114.667 -17.499 214.002 -52.499 298.002s-86 148.667 -153 194s-147.167 68 -240.5 68c-90.667 0 -169.334 -22.667 -236.001 -68
s-117.834 -110.166 -153.501 -194.499s-53.5 -183.5 -53.5 -297.5v-158c0 -114.667 18 -214.334 54 -299.001s87.5 -149.667 154.5 -195s145.833 -68 236.5 -68c93.333 0 173.333 22.667 240 68s117.334 110.166 152.001 194.499s52 184.166 52 299.499v158z" />
    <glyph glyph-name="multiply" unicode="&#xd7;" horiz-adv-x="1072" 
d="M967 180l-79 -80l-358 364l-357 -364l-79 80l357 365l-343 349l79 81l343 -350l343 350l79 -81l-343 -349z" />
    <glyph glyph-name="Oslash" unicode="&#xd8;" horiz-adv-x="1387" 
d="M376 77l-101 -161h-104l137 218c-118 120 -178.667 287.333 -182 502v170c0 134 23.5 251.667 70.5 353s113.333 179.5 199 234.5s184.5 82.5 296.5 82.5c149.333 0 273.666 -46.667 372.999 -140l106 169h104l-149 -237c87.333 -117.333 132 -267.333 134 -450v-168
c0 -134.667 -23.167 -252.5 -69.5 -353.5s-112.166 -179 -197.499 -234s-185 -82.5 -299 -82.5c-121.333 0 -227.333 32.333 -318 97zM249 650c0 -175.333 41.002 -313.668 123.002 -415.001l631 1003c-78 86.667 -181.667 130 -311 130
c-90.667 0 -169.334 -22.667 -236.001 -68s-117.834 -110.166 -153.501 -194.499s-53.5 -183.5 -53.5 -297.5v-158zM1138 807.998c0 140.667 -26.668 258.335 -80.001 353.002l-622 -989c71.333 -56 157.333 -84 258 -84c93.333 0 173.333 22.667 240 68
s117.334 110.166 152.001 194.499s52 184.166 52 299.499v158z" />
    <glyph glyph-name="Ugrave" unicode="&#xd9;" horiz-adv-x="1347" 
d="M565 1851l191 -279h-109l-227 279h145zM1064 1456l123 -0.000976562v-986c0 -106 -22.5 -195.667 -67.5 -269s-106.333 -128.5 -184 -165.5s-164.834 -55.5 -261.501 -55.5c-98.667 0 -186.5 18.333 -263.5 55s-137.5 91.834 -181.5 165.501s-66 163.5 -66 269.5v986h122
v-986c0 -82.667 16.5 -153 49.5 -211s78.833 -101.667 137.5 -131s126 -44 202 -44c76.667 0 144.334 14.667 203.001 44s104.5 73 137.5 131s49.5 128.333 49.5 211v986z" />
    <glyph glyph-name="Uacute" unicode="&#xda;" horiz-adv-x="1347" 
d="M611 1572l191 279h145l-232 -279h-104zM1064 1456l123 -0.000976562v-986c0 -106 -22.5 -195.667 -67.5 -269s-106.333 -128.5 -184 -165.5s-164.834 -55.5 -261.501 -55.5c-98.667 0 -186.5 18.333 -263.5 55s-137.5 91.834 -181.5 165.501s-66 163.5 -66 269.5v986h122
v-986c0 -82.667 16.5 -153 49.5 -211s78.833 -101.667 137.5 -131s126 -44 202 -44c76.667 0 144.334 14.667 203.001 44s104.5 73 137.5 131s49.5 128.333 49.5 211v986z" />
    <glyph glyph-name="Ucircumflex" unicode="&#xdb;" horiz-adv-x="1347" 
d="M720 1841l240 -257v-10h-110l-169 183l-167 -183h-108v12l238 255h76zM1064 1456l123 -0.000976562v-986c0 -106 -22.5 -195.667 -67.5 -269s-106.333 -128.5 -184 -165.5s-164.834 -55.5 -261.501 -55.5c-98.667 0 -186.5 18.333 -263.5 55
s-137.5 91.834 -181.5 165.501s-66 163.5 -66 269.5v986h122v-986c0 -82.667 16.5 -153 49.5 -211s78.833 -101.667 137.5 -131s126 -44 202 -44c76.667 0 144.334 14.667 203.001 44s104.5 73 137.5 131s49.5 128.333 49.5 211v986z" />
    <glyph glyph-name="Udieresis" unicode="&#xdc;" horiz-adv-x="1347" 
d="M465 1792c55.333 0 83 -26.667 83 -80s-27.667 -80 -83 -80c-54.667 0 -82 26.667 -82 80s27.333 80 82 80zM902 1792c55.333 0 83 -27 83 -81c0 -52.667 -27.667 -79 -83 -79c-54.667 0 -82 26.333 -82 79c0 54 27.333 81 82 81zM1064 1456l123 -0.000976562v-986
c0 -106 -22.5 -195.667 -67.5 -269s-106.333 -128.5 -184 -165.5s-164.834 -55.5 -261.501 -55.5c-98.667 0 -186.5 18.333 -263.5 55s-137.5 91.834 -181.5 165.501s-66 163.5 -66 269.5v986h122v-986c0 -82.667 16.5 -153 49.5 -211s78.833 -101.667 137.5 -131
s126 -44 202 -44c76.667 0 144.334 14.667 203.001 44s104.5 73 137.5 131s49.5 128.333 49.5 211v986z" />
    <glyph glyph-name="Yacute" unicode="&#xdd;" horiz-adv-x="1227" 
d="M542 1566l191 279h145l-232 -279h-104zM170 1456l441 -794l445 794h143l-526 -907v-549h-123v549l-526 907h146z" />
    <glyph glyph-name="Thorn" unicode="&#xde;" horiz-adv-x="1215" 
d="M303 324v-324h-120v1456h120v-303h328c97.333 0 181 -18 251 -54s123.167 -85.333 159.5 -148s54.5 -133.667 54.5 -213c0 -80 -18.333 -151.167 -55 -213.5s-90.167 -111.333 -160.5 -147s-154.833 -53.5 -253.5 -53.5h-324zM303 1051v-625.001h324
c78.667 0 144.167 14.833 196.5 44.5s90.833 68 115.5 115s37 97.167 37 150.5c0 55.333 -12.333 106.833 -37 154.5s-63.167 86.334 -115.5 116.001s-117.833 44.5 -196.5 44.5h-324z" />
    <glyph glyph-name="germandbls" unicode="&#xdf;" horiz-adv-x="1201" 
d="M271 0l-118.998 0.00292969v1128c0 89.333 14.5 165.166 43.5 227.499s70.5 109.333 124.5 141s118.333 47.5 193 47.5c64 0 122 -12 174 -36s93.333 -59.167 124 -105.5s46 -101.5 46 -165.5c0 -51.333 -6.5 -94.166 -19.5 -128.499s-31.833 -72.166 -56.5 -113.499
l-9 -16l-7 -12c-20 -34 -30.667 -79.333 -32 -136v-6c0 -30.667 8 -59.167 24 -85.5s36.5 -50.333 61.5 -72s57.167 -46.834 96.5 -75.501c56.667 -40.667 101 -83.334 133 -128.001s48 -97 48 -157c0 -68.667 -17.333 -127.834 -52 -177.501s-80.667 -87.167 -138 -112.5
s-119.333 -38 -186 -38c-56 0 -114.333 8.16699 -175 24.5s-104 35.166 -130 56.499l33 101c27.333 -20 65.666 -38.333 114.999 -55s97 -25 143 -25c56 0 104.5 10.167 145.5 30.5s72.167 47.666 93.5 81.999s32 72.166 32 113.499c0 32.667 -8 62.834 -24 90.501
s-36.5 52.834 -61.5 75.501s-57.167 48 -96.5 76c-57.333 40.667 -102 82.5 -134 125.5s-48 93.833 -48 152.5c0 45.333 6.33301 84.833 19 118.5s31.667 72.167 57 115.5l18 30c20 36 30.667 81 32 135v5c0 42 -9.83301 79 -29.5 111s-46 56.833 -79 74.5
s-68.833 26.5 -107.5 26.5c-80.667 0 -142.834 -25.5 -186.501 -76.5s-65.5 -130.5 -65.5 -238.5v-1128z" />
    <glyph glyph-name="agrave" unicode="&#xe0;" horiz-adv-x="1098" 
d="M462 1535l191 -279h-109l-227 279h145zM840 0c-13.333 36 -21.333 86.333 -24 151c-39.333 -50.667 -90.166 -91.834 -152.499 -123.501s-133.5 -47.5 -213.5 -47.5c-69.333 0 -130.333 13.167 -183 39.5s-93.5 62.833 -122.5 109.5s-43.5 99.334 -43.5 158.001
c0 70 19.833 130.833 59.5 182.5s96.667 91.334 171 119.001s161.833 41.5 262.5 41.5h221v122c0 78 -24.167 139.167 -72.5 183.5s-117.166 66.5 -206.499 66.5c-54.667 0 -104.167 -9.83301 -148.5 -29.5s-79 -46.167 -104 -79.5s-37.5 -70 -37.5 -110l-120 1
c0 54.667 17.667 106.5 53 155.5s84.666 88.333 147.999 118s134.666 44.5 213.999 44.5c78 0 146.667 -13.167 206 -39.5s105.5 -65.833 138.5 -118.5s49.5 -117.334 49.5 -194.001v-500c0 -106.667 11 -185.667 33 -237v-13h-128zM681 145.5
c62 39.667 106.666 90.833 133.999 153.5v239h-211c-80 0 -148.667 -9.83301 -206 -29.5s-101.333 -47.5 -132 -83.5s-46 -78.667 -46 -128c0 -39.333 9.83301 -75 29.5 -107s47.834 -57.333 84.501 -76s79.667 -28 129 -28c83.333 0 156 19.833 218 59.5z" />
    <glyph glyph-name="aacute" unicode="&#xe1;" horiz-adv-x="1098" 
d="M508 1256l191 279h145l-232 -279h-104zM840 0c-13.333 36 -21.333 86.333 -24 151c-39.333 -50.667 -90.166 -91.834 -152.499 -123.501s-133.5 -47.5 -213.5 -47.5c-69.333 0 -130.333 13.167 -183 39.5s-93.5 62.833 -122.5 109.5s-43.5 99.334 -43.5 158.001
c0 70 19.833 130.833 59.5 182.5s96.667 91.334 171 119.001s161.833 41.5 262.5 41.5h221v122c0 78 -24.167 139.167 -72.5 183.5s-117.166 66.5 -206.499 66.5c-54.667 0 -104.167 -9.83301 -148.5 -29.5s-79 -46.167 -104 -79.5s-37.5 -70 -37.5 -110l-120 1
c0 54.667 17.667 106.5 53 155.5s84.666 88.333 147.999 118s134.666 44.5 213.999 44.5c78 0 146.667 -13.167 206 -39.5s105.5 -65.833 138.5 -118.5s49.5 -117.334 49.5 -194.001v-500c0 -106.667 11 -185.667 33 -237v-13h-128zM681 145.5
c62 39.667 106.666 90.833 133.999 153.5v239h-211c-80 0 -148.667 -9.83301 -206 -29.5s-101.333 -47.5 -132 -83.5s-46 -78.667 -46 -128c0 -39.333 9.83301 -75 29.5 -107s47.834 -57.333 84.501 -76s79.667 -28 129 -28c83.333 0 156 19.833 218 59.5z" />
    <glyph glyph-name="acircumflex" unicode="&#xe2;" horiz-adv-x="1098" 
d="M617 1525l240 -257v-10h-110l-169 183l-167 -183h-108v12l238 255h76zM840 0c-13.333 36 -21.333 86.333 -24 151c-39.333 -50.667 -90.166 -91.834 -152.499 -123.501s-133.5 -47.5 -213.5 -47.5c-69.333 0 -130.333 13.167 -183 39.5s-93.5 62.833 -122.5 109.5
s-43.5 99.334 -43.5 158.001c0 70 19.833 130.833 59.5 182.5s96.667 91.334 171 119.001s161.833 41.5 262.5 41.5h221v122c0 78 -24.167 139.167 -72.5 183.5s-117.166 66.5 -206.499 66.5c-54.667 0 -104.167 -9.83301 -148.5 -29.5s-79 -46.167 -104 -79.5
s-37.5 -70 -37.5 -110l-120 1c0 54.667 17.667 106.5 53 155.5s84.666 88.333 147.999 118s134.666 44.5 213.999 44.5c78 0 146.667 -13.167 206 -39.5s105.5 -65.833 138.5 -118.5s49.5 -117.334 49.5 -194.001v-500c0 -106.667 11 -185.667 33 -237v-13h-128zM681 145.5
c62 39.667 106.666 90.833 133.999 153.5v239h-211c-80 0 -148.667 -9.83301 -206 -29.5s-101.333 -47.5 -132 -83.5s-46 -78.667 -46 -128c0 -39.333 9.83301 -75 29.5 -107s47.834 -57.333 84.501 -76s79.667 -28 129 -28c83.333 0 156 19.833 218 59.5z" />
    <glyph glyph-name="atilde" unicode="&#xe3;" horiz-adv-x="1098" 
d="M921 1495c0 -42 -8.66602 -79.166 -25.999 -111.499s-41 -57.333 -71 -75s-63 -26.5 -99 -26.5s-65.833 5.83301 -89.5 17.5s-49.167 28.5 -76.5 50.5l-18 14c-23.333 18.667 -54.333 28 -93 28c-32.667 0 -59.334 -10.667 -80.001 -32s-31 -50.333 -31 -87l-89 4
c0 41.333 8.66699 78.166 26 110.499s40.833 57.333 70.5 75s62.5 26.5 98.5 26.5c42 0 76.667 -9 104 -27l82 -56c26 -18 56.667 -27 92 -27c31.333 0 57.5 11.167 78.5 33.5s31.5 51.833 31.5 88.5zM840.001 0.000976562c-13.333 36 -21.333 86.333 -24 151
c-39.333 -50.667 -90.166 -91.834 -152.499 -123.501s-133.5 -47.5 -213.5 -47.5c-69.333 0 -130.333 13.167 -183 39.5s-93.5 62.833 -122.5 109.5s-43.5 99.334 -43.5 158.001c0 70 19.833 130.833 59.5 182.5s96.667 91.334 171 119.001s161.833 41.5 262.5 41.5h221v122
c0 78 -24.167 139.167 -72.5 183.5s-117.166 66.5 -206.499 66.5c-54.667 0 -104.167 -9.83301 -148.5 -29.5s-79 -46.167 -104 -79.5s-37.5 -70 -37.5 -110l-120 1c0 54.667 17.667 106.5 53 155.5s84.666 88.333 147.999 118s134.666 44.5 213.999 44.5
c78 0 146.667 -13.167 206 -39.5s105.5 -65.833 138.5 -118.5s49.5 -117.334 49.5 -194.001v-500c0 -106.667 11 -185.667 33 -237v-13h-128zM681.001 145.501c62 39.667 106.666 90.833 133.999 153.5v239h-211c-80 0 -148.667 -9.83301 -206 -29.5
s-101.333 -47.5 -132 -83.5s-46 -78.667 -46 -128c0 -39.333 9.83301 -75 29.5 -107s47.834 -57.333 84.501 -76s79.667 -28 129 -28c83.333 0 156 19.833 218 59.5z" />
    <glyph glyph-name="adieresis" unicode="&#xe4;" horiz-adv-x="1098" 
d="M362 1476c55.333 0 83 -26.667 83 -80s-27.667 -80 -83 -80c-54.667 0 -82 26.667 -82 80s27.333 80 82 80zM799 1476c55.333 0 83 -27 83 -81c0 -52.667 -27.667 -79 -83 -79c-54.667 0 -82 26.333 -82 79c0 54 27.333 81 82 81zM840 0
c-13.333 36 -21.333 86.333 -24 151c-39.333 -50.667 -90.166 -91.834 -152.499 -123.501s-133.5 -47.5 -213.5 -47.5c-69.333 0 -130.333 13.167 -183 39.5s-93.5 62.833 -122.5 109.5s-43.5 99.334 -43.5 158.001c0 70 19.833 130.833 59.5 182.5
s96.667 91.334 171 119.001s161.833 41.5 262.5 41.5h221v122c0 78 -24.167 139.167 -72.5 183.5s-117.166 66.5 -206.499 66.5c-54.667 0 -104.167 -9.83301 -148.5 -29.5s-79 -46.167 -104 -79.5s-37.5 -70 -37.5 -110l-120 1c0 54.667 17.667 106.5 53 155.5
s84.666 88.333 147.999 118s134.666 44.5 213.999 44.5c78 0 146.667 -13.167 206 -39.5s105.5 -65.833 138.5 -118.5s49.5 -117.334 49.5 -194.001v-500c0 -106.667 11 -185.667 33 -237v-13h-128zM681 145.5c62 39.667 106.666 90.833 133.999 153.5v239h-211
c-80 0 -148.667 -9.83301 -206 -29.5s-101.333 -47.5 -132 -83.5s-46 -78.667 -46 -128c0 -39.333 9.83301 -75 29.5 -107s47.834 -57.333 84.501 -76s79.667 -28 129 -28c83.333 0 156 19.833 218 59.5z" />
    <glyph glyph-name="aring" unicode="&#xe5;" horiz-adv-x="1098" 
d="M412.5 1496.5c17 29 40.167 52 69.5 69s62 25.5 98 25.5c35.333 0 67.833 -8.5 97.5 -25.5s53 -40 70 -69s25.5 -61.167 25.5 -96.5s-8.5 -67.166 -25.5 -95.499s-40.333 -50.666 -70 -66.999s-62.167 -24.5 -97.5 -24.5c-36 0 -68.667 8.16699 -98 24.5
s-52.5 38.666 -69.5 66.999s-25.5 60.166 -25.5 95.499s8.5 67.5 25.5 96.5zM496.5 1318.5c22.333 -22.333 50.167 -33.5 83.5 -33.5c34 0 61.833 11 83.5 33s32.5 49.333 32.5 82c0 34 -10.833 62.333 -32.5 85s-49.5 34 -83.5 34s-62 -11.333 -84 -34s-33 -51 -33 -85
c0 -32 11.167 -59.167 33.5 -81.5zM840.001 0c-13.333 36 -21.333 86.333 -24 151c-39.333 -50.667 -90.166 -91.834 -152.499 -123.501s-133.5 -47.5 -213.5 -47.5c-69.333 0 -130.333 13.167 -183 39.5s-93.5 62.833 -122.5 109.5s-43.5 99.334 -43.5 158.001
c0 70 19.833 130.833 59.5 182.5s96.667 91.334 171 119.001s161.833 41.5 262.5 41.5h221v122c0 78 -24.167 139.167 -72.5 183.5s-117.166 66.5 -206.499 66.5c-54.667 0 -104.167 -9.83301 -148.5 -29.5s-79 -46.167 -104 -79.5s-37.5 -70 -37.5 -110l-120 1
c0 54.667 17.667 106.5 53 155.5s84.666 88.333 147.999 118s134.666 44.5 213.999 44.5c78 0 146.667 -13.167 206 -39.5s105.5 -65.833 138.5 -118.5s49.5 -117.334 49.5 -194.001v-500c0 -106.667 11 -185.667 33 -237v-13h-128zM681.001 145.5
c62 39.667 106.666 90.833 133.999 153.5v239h-211c-80 0 -148.667 -9.83301 -206 -29.5s-101.333 -47.5 -132 -83.5s-46 -78.667 -46 -128c0 -39.333 9.83301 -75 29.5 -107s47.834 -57.333 84.501 -76s79.667 -28 129 -28c83.333 0 156 19.833 218 59.5z" />
    <glyph glyph-name="ae" unicode="&#xe6;" horiz-adv-x="1732" 
d="M1636 112c-94.667 -88 -218.331 -132 -370.998 -132c-90 0 -168.5 18.167 -235.5 54.5s-120.833 87.5 -161.5 153.5c-21.333 -36 -51.333 -69.667 -90 -101s-86.5 -57 -143.5 -77s-121.5 -30 -193.5 -30c-75.333 0 -139.5 13 -192.5 39s-93.333 62.5 -121 109.5
s-41.5 102.167 -41.5 165.5c0 69.333 16.667 129.5 50 180.5s82.833 90.167 148.5 117.5s145.834 41 240.501 41h256v87c0 89.333 -21.5 158.333 -64.5 207s-105.833 73 -188.5 73c-60 0 -112.333 -10.333 -157 -31s-78.834 -48.667 -102.501 -84s-35.5 -75 -35.5 -119
l-119 12c0 62 17.167 117.667 51.5 167s82.833 87.833 145.5 115.5s135 41.5 217 41.5c84 0 155.667 -18 215 -54s102 -88.667 128 -158c40.667 66.667 92.5 118.667 155.5 156s132.833 56 209.5 56c88.667 0 164.667 -18.667 228 -56s111.666 -90.833 144.999 -160.5
s50 -152.167 50 -247.5v-100h-757v-28c0 -82 12.833 -155.167 38.5 -219.5s65.667 -115.333 120 -153s122.5 -56.5 204.5 -56.5c69.333 0 130.166 10.833 182.499 32.5s99.5 50.5 141.5 86.5zM1073 953c-47.333 -31.333 -85.1699 -74.5 -113.503 -129.5
s-46.166 -117.5 -53.499 -187.5h633v32c0 63.333 -11 120 -33 170s-55.667 89.5 -101 118.5s-101.666 43.5 -168.999 43.5c-61.333 0 -115.666 -15.667 -162.999 -47zM587.499 103c43 15.333 81.498 35 115.498 59s60 48.333 78 73v301h-254
c-69.333 0 -128.166 -11.167 -176.499 -33.5s-84.5 -52 -108.5 -89s-36 -78.167 -36 -123.5c0 -64 21.833 -115 65.5 -153s105.834 -57 186.501 -57c43.333 0 86.5 7.66699 129.5 23z" />
    <glyph glyph-name="ccedilla" unicode="&#xe7;" horiz-adv-x="1056" 
d="M700.5 111.5c44.333 19.667 80.6719 48.502 109.005 86.502s44.5 83.667 48.5 137h114c-3.33301 -64 -22.333 -122.167 -57 -174.5s-80.667 -94.333 -138 -126s-120.333 -49.5 -189 -53.5l-9 -56c47.333 -6.66699 86.666 -23.167 117.999 -49.5s47 -66.833 47 -121.5
c0 -40 -11.5 -75 -34.5 -105s-56.667 -53.167 -101 -69.5s-97.166 -24.5 -158.499 -24.5l-7 77c54.667 0 101.834 10.167 141.501 30.5s59.5 50.5 59.5 90.5c0 25.333 -6.16699 45.166 -18.5 59.499s-30.833 25.166 -55.5 32.499s-58.334 13 -101.001 17l27 121
c-84.667 10 -157 39 -217 87s-105.333 110.167 -136 186.5s-46.667 161.833 -48 256.5v49c0 102.667 17.667 194.834 53 276.501s87.666 146 156.999 193s152.666 70.5 249.999 70.5c77.333 0 146.833 -15.667 208.5 -47s111 -76.166 148 -134.499
s57.167 -125.833 60.5 -202.5h-114c-3.33301 57.333 -18.666 107.166 -45.999 149.499s-63.333 75 -108 98s-94.334 34.5 -149.001 34.5c-78.667 0 -143.5 -19.833 -194.5 -59.5s-88.167 -92.5 -111.5 -158.5s-35 -139.333 -35 -220v-42
c0 -81.333 11.667 -154.833 35 -220.5s60.666 -118.334 111.999 -158.001s116.666 -59.5 195.999 -59.5c51.333 0 99.166 9.83301 143.499 29.5z" />
    <glyph glyph-name="egrave" unicode="&#xe8;" horiz-adv-x="1059" 
d="M449 1535l191 -279h-109l-227 279h145zM959 172c-39.333 -58 -90.665 -104.498 -153.998 -139.498s-140 -52.5 -230 -52.5c-92.667 0 -175.834 22.667 -249.501 68s-131.334 108.333 -173.001 189s-62.5 172 -62.5 274v43c0 107.333 21.167 202.666 63.5 285.999
s99 147.833 170 193.5s147.833 68.5 230.5 68.5c89.333 0 166.333 -21 231 -63s113.667 -100.333 147 -175s50 -160.334 50 -257.001v-73h-772v-23c0 -79.333 15.667 -151.833 47 -217.5s75 -117.5 131 -155.5s120 -57 192 -57c127.333 0 228.333 49.333 303 148z
M391.501 955.002c-48.333 -30 -87.833 -72.499 -118.5 -127.499s-50 -118.833 -58 -191.5h647v13c-1.33301 62.667 -13.833 120.667 -37.5 174s-58.5 96.166 -104.5 128.499s-101.333 48.5 -166 48.5c-60 0 -114.167 -15 -162.5 -45z" />
    <glyph glyph-name="eacute" unicode="&#xe9;" horiz-adv-x="1059" 
d="M495 1256l191 279h145l-232 -279h-104zM959 172c-39.333 -58 -90.665 -104.498 -153.998 -139.498s-140 -52.5 -230 -52.5c-92.667 0 -175.834 22.667 -249.501 68s-131.334 108.333 -173.001 189s-62.5 172 -62.5 274v43c0 107.333 21.167 202.666 63.5 285.999
s99 147.833 170 193.5s147.833 68.5 230.5 68.5c89.333 0 166.333 -21 231 -63s113.667 -100.333 147 -175s50 -160.334 50 -257.001v-73h-772v-23c0 -79.333 15.667 -151.833 47 -217.5s75 -117.5 131 -155.5s120 -57 192 -57c127.333 0 228.333 49.333 303 148z
M391.501 955.002c-48.333 -30 -87.833 -72.499 -118.5 -127.499s-50 -118.833 -58 -191.5h647v13c-1.33301 62.667 -13.833 120.667 -37.5 174s-58.5 96.166 -104.5 128.499s-101.333 48.5 -166 48.5c-60 0 -114.167 -15 -162.5 -45z" />
    <glyph glyph-name="ecircumflex" unicode="&#xea;" horiz-adv-x="1059" 
d="M604 1525l240 -257v-10h-110l-169 183l-167 -183h-108v12l238 255h76zM959 172c-39.333 -58 -90.665 -104.498 -153.998 -139.498s-140 -52.5 -230 -52.5c-92.667 0 -175.834 22.667 -249.501 68s-131.334 108.333 -173.001 189s-62.5 172 -62.5 274v43
c0 107.333 21.167 202.666 63.5 285.999s99 147.833 170 193.5s147.833 68.5 230.5 68.5c89.333 0 166.333 -21 231 -63s113.667 -100.333 147 -175s50 -160.334 50 -257.001v-73h-772v-23c0 -79.333 15.667 -151.833 47 -217.5s75 -117.5 131 -155.5s120 -57 192 -57
c127.333 0 228.333 49.333 303 148zM391.501 955.002c-48.333 -30 -87.833 -72.499 -118.5 -127.499s-50 -118.833 -58 -191.5h647v13c-1.33301 62.667 -13.833 120.667 -37.5 174s-58.5 96.166 -104.5 128.499s-101.333 48.5 -166 48.5c-60 0 -114.167 -15 -162.5 -45z" />
    <glyph glyph-name="edieresis" unicode="&#xeb;" horiz-adv-x="1059" 
d="M349 1476c55.333 0 83 -26.667 83 -80s-27.667 -80 -83 -80c-54.667 0 -82 26.667 -82 80s27.333 80 82 80zM786 1476c55.333 0 83 -27 83 -81c0 -52.667 -27.667 -79 -83 -79c-54.667 0 -82 26.333 -82 79c0 54 27.333 81 82 81zM959 172
c-39.333 -58 -90.665 -104.498 -153.998 -139.498s-140 -52.5 -230 -52.5c-92.667 0 -175.834 22.667 -249.501 68s-131.334 108.333 -173.001 189s-62.5 172 -62.5 274v43c0 107.333 21.167 202.666 63.5 285.999s99 147.833 170 193.5s147.833 68.5 230.5 68.5
c89.333 0 166.333 -21 231 -63s113.667 -100.333 147 -175s50 -160.334 50 -257.001v-73h-772v-23c0 -79.333 15.667 -151.833 47 -217.5s75 -117.5 131 -155.5s120 -57 192 -57c127.333 0 228.333 49.333 303 148zM391.501 955.002
c-48.333 -30 -87.833 -72.499 -118.5 -127.499s-50 -118.833 -58 -191.5h647v13c-1.33301 62.667 -13.833 120.667 -37.5 174s-58.5 96.166 -104.5 128.499s-101.333 48.5 -166 48.5c-60 0 -114.167 -15 -162.5 -45z" />
    <glyph glyph-name="igrave" unicode="&#xec;" horiz-adv-x="456" 
d="M114 1522l191 -279h-109l-227 279h145zM288 1082v-1082h-120v1082h120z" />
    <glyph glyph-name="iacute" unicode="&#xed;" horiz-adv-x="456" 
d="M160 1243l191 279h145l-232 -279h-104zM288 1082v-1082h-120v1082h120z" />
    <glyph glyph-name="icircumflex" unicode="&#xee;" horiz-adv-x="456" 
d="M269 1512l240 -257v-10h-110l-169 183l-167 -183h-108v12l238 255h76zM288 1082v-1082h-120v1082h120z" />
    <glyph glyph-name="idieresis" unicode="&#xef;" horiz-adv-x="456" 
d="M14 1463c55.333 0 83 -26.667 83 -80s-27.667 -80 -83 -80c-54.667 0 -82 26.667 -82 80s27.333 80 82 80zM451 1463c55.333 0 83 -27 83 -81c0 -52.667 -27.667 -79 -83 -79c-54.667 0 -82 26.333 -82 79c0 54 27.333 81 82 81zM288 1082v-1082h-120v1082h120z" />
    <glyph glyph-name="eth" unicode="&#xf0;" horiz-adv-x="1192" 
d="M1055 535c0 -108 -18.8291 -204.167 -56.4961 -288.5s-89.834 -149.833 -156.501 -196.5s-142 -70 -226 -70c-90 0 -170.333 21.5 -241 64.5s-125.834 101.5 -165.501 175.5s-59.5 156 -59.5 246c0 102 18 190.5 54 265.5s87.167 132.667 153.5 173
s143.166 60.5 230.499 60.5c137.333 0 248 -47.667 332 -143c-29.333 169.333 -99.333 309 -210 419l-226 -140l-50 74l206 128c-92.667 72 -207 129.333 -343 172l38 104c165.333 -50 301.666 -120.667 408.999 -212l195 121l51 -73l-179 -111
c160.667 -167.333 242 -391 244 -671v-98zM311.504 281c27.667 -58.667 67.999 -106.168 120.999 -142.501s115.5 -54.5 187.5 -54.5c64 0 119.833 19.333 167.5 58s84.334 92.167 110.001 160.5s38.5 145.833 38.5 232.5v91l-1 55c-24 50.667 -63.667 93.334 -119 128.001
s-124 52 -206 52c-74 0 -136.5 -16.667 -187.5 -50s-89.167 -79.666 -114.5 -138.999s-38 -128 -38 -206c0 -64.667 13.833 -126.334 41.5 -185.001z" />
    <glyph glyph-name="ntilde" unicode="&#xf1;" horiz-adv-x="1126" 
d="M917 1494c0 -42 -8.66699 -79.166 -26 -111.499s-41 -57.333 -71 -75s-63 -26.5 -99 -26.5s-65.833 5.83301 -89.5 17.5s-49.167 28.5 -76.5 50.5l-18 14c-23.333 18.667 -54.333 28 -93 28c-32.667 0 -59.334 -10.667 -80.001 -32s-31 -50.333 -31 -87l-89 4
c0 41.333 8.66699 78.166 26 110.499s40.833 57.333 70.5 75s62.5 26.5 98.5 26.5c42.667 0 77.334 -9 104.001 -27l82 -56c26 -18 56.667 -27 92 -27c31.333 0 57.5 11.167 78.5 33.5s31.5 51.833 31.5 88.5zM397.5 926.001c-55 -48.667 -95.501 -109.333 -121.501 -182
v-744h-120v1082h115l4 -183c38.667 63.333 88.334 113 149.001 149s128.667 54 204 54c110.667 0 195.667 -31.333 255 -94s89.333 -162 90 -298v-710h-120v710c-0.666992 104.667 -22.667 179 -66 223s-106.333 66 -189 66c-78.667 0 -145.5 -24.333 -200.5 -73z" />
    <glyph glyph-name="ograve" unicode="&#xf2;" horiz-adv-x="1148" 
d="M454 1534l191 -279h-109l-227 279h145zM91 557c0 104.667 20 198.332 60 280.999s96.5 147.334 169.5 194.001s157.167 70 252.5 70s179.5 -23 252.5 -69s129.5 -109.5 169.5 -190.5s60.667 -172.833 62 -275.5v-42c0 -104.667 -20 -198.334 -60 -281.001
s-96.333 -147.334 -169 -194.001s-157 -70 -253 -70s-180.667 23.333 -254 70s-130 111.334 -170 194.001s-60 176.334 -60 281.001v32zM211 524.998c0 -81.333 14.1689 -155.665 42.502 -222.998s70 -120.833 125 -160.5s120.5 -59.5 196.5 -59.5
c75.333 0 140.333 19.833 195 59.5s96.167 93.167 124.5 160.5s42.5 141.666 42.5 222.999v32c0 79.333 -14.333 152.666 -43 219.999s-70.5 121.333 -125.5 162s-120.167 61 -195.5 61c-74.667 0 -139.334 -20.167 -194.001 -60.5s-96.334 -94.333 -125.001 -162
s-43 -141.5 -43 -221.5v-31z" />
    <glyph glyph-name="oacute" unicode="&#xf3;" horiz-adv-x="1148" 
d="M500 1255l191 279h145l-232 -279h-104zM91 557c0 104.667 20 198.332 60 280.999s96.5 147.334 169.5 194.001s157.167 70 252.5 70s179.5 -23 252.5 -69s129.5 -109.5 169.5 -190.5s60.667 -172.833 62 -275.5v-42c0 -104.667 -20 -198.334 -60 -281.001
s-96.333 -147.334 -169 -194.001s-157 -70 -253 -70s-180.667 23.333 -254 70s-130 111.334 -170 194.001s-60 176.334 -60 281.001v32zM211 524.998c0 -81.333 14.1689 -155.665 42.502 -222.998s70 -120.833 125 -160.5s120.5 -59.5 196.5 -59.5
c75.333 0 140.333 19.833 195 59.5s96.167 93.167 124.5 160.5s42.5 141.666 42.5 222.999v32c0 79.333 -14.333 152.666 -43 219.999s-70.5 121.333 -125.5 162s-120.167 61 -195.5 61c-74.667 0 -139.334 -20.167 -194.001 -60.5s-96.334 -94.333 -125.001 -162
s-43 -141.5 -43 -221.5v-31z" />
    <glyph glyph-name="ocircumflex" unicode="&#xf4;" horiz-adv-x="1148" 
d="M609 1524l240 -257v-10h-110l-169 183l-167 -183h-108v12l238 255h76zM91 557c0 104.667 20 198.332 60 280.999s96.5 147.334 169.5 194.001s157.167 70 252.5 70s179.5 -23 252.5 -69s129.5 -109.5 169.5 -190.5s60.667 -172.833 62 -275.5v-42
c0 -104.667 -20 -198.334 -60 -281.001s-96.333 -147.334 -169 -194.001s-157 -70 -253 -70s-180.667 23.333 -254 70s-130 111.334 -170 194.001s-60 176.334 -60 281.001v32zM211 524.998c0 -81.333 14.1689 -155.665 42.502 -222.998s70 -120.833 125 -160.5
s120.5 -59.5 196.5 -59.5c75.333 0 140.333 19.833 195 59.5s96.167 93.167 124.5 160.5s42.5 141.666 42.5 222.999v32c0 79.333 -14.333 152.666 -43 219.999s-70.5 121.333 -125.5 162s-120.167 61 -195.5 61c-74.667 0 -139.334 -20.167 -194.001 -60.5
s-96.334 -94.333 -125.001 -162s-43 -141.5 -43 -221.5v-31z" />
    <glyph glyph-name="otilde" unicode="&#xf5;" horiz-adv-x="1148" 
d="M913 1494c0 -42 -8.66602 -79.166 -25.999 -111.499s-41 -57.333 -71 -75s-63 -26.5 -99 -26.5s-65.833 5.83301 -89.5 17.5s-49.167 28.5 -76.5 50.5l-18 14c-23.333 18.667 -54.333 28 -93 28c-32.667 0 -59.334 -10.667 -80.001 -32s-31 -50.333 -31 -87l-89 4
c0 41.333 8.66699 78.166 26 110.499s40.833 57.333 70.5 75s62.5 26.5 98.5 26.5c42 0 76.667 -9 104 -27l82 -56c26 -18 56.667 -27 92 -27c31.333 0 57.5 11.167 78.5 33.5s31.5 51.833 31.5 88.5zM91.001 557.001c0 104.667 20 198.332 60 280.999
s96.5 147.334 169.5 194.001s157.167 70 252.5 70s179.5 -23 252.5 -69s129.5 -109.5 169.5 -190.5s60.667 -172.833 62 -275.5v-42c0 -104.667 -20 -198.334 -60 -281.001s-96.333 -147.334 -169 -194.001s-157 -70 -253 -70s-180.667 23.333 -254 70
s-130 111.334 -170 194.001s-60 176.334 -60 281.001v32zM211.001 524.999c0 -81.333 14.1689 -155.665 42.502 -222.998s70 -120.833 125 -160.5s120.5 -59.5 196.5 -59.5c75.333 0 140.333 19.833 195 59.5s96.167 93.167 124.5 160.5s42.5 141.666 42.5 222.999v32
c0 79.333 -14.333 152.666 -43 219.999s-70.5 121.333 -125.5 162s-120.167 61 -195.5 61c-74.667 0 -139.334 -20.167 -194.001 -60.5s-96.334 -94.333 -125.001 -162s-43 -141.5 -43 -221.5v-31z" />
    <glyph glyph-name="odieresis" unicode="&#xf6;" horiz-adv-x="1148" 
d="M354 1475c55.333 0 83 -26.667 83 -80s-27.667 -80 -83 -80c-54.667 0 -82 26.667 -82 80s27.333 80 82 80zM791 1475c55.333 0 83 -27 83 -81c0 -52.667 -27.667 -79 -83 -79c-54.667 0 -82 26.333 -82 79c0 54 27.333 81 82 81zM91 557
c0 104.667 20 198.332 60 280.999s96.5 147.334 169.5 194.001s157.167 70 252.5 70s179.5 -23 252.5 -69s129.5 -109.5 169.5 -190.5s60.667 -172.833 62 -275.5v-42c0 -104.667 -20 -198.334 -60 -281.001s-96.333 -147.334 -169 -194.001s-157 -70 -253 -70
s-180.667 23.333 -254 70s-130 111.334 -170 194.001s-60 176.334 -60 281.001v32zM211 524.998c0 -81.333 14.1689 -155.665 42.502 -222.998s70 -120.833 125 -160.5s120.5 -59.5 196.5 -59.5c75.333 0 140.333 19.833 195 59.5s96.167 93.167 124.5 160.5
s42.5 141.666 42.5 222.999v32c0 79.333 -14.333 152.666 -43 219.999s-70.5 121.333 -125.5 162s-120.167 61 -195.5 61c-74.667 0 -139.334 -20.167 -194.001 -60.5s-96.334 -94.333 -125.001 -162s-43 -141.5 -43 -221.5v-31z" />
    <glyph glyph-name="divide" unicode="&#xf7;" horiz-adv-x="1164" 
d="M580 1172c26 0 46.833 -8.00098 62.5 -24.001s23.5 -36 23.5 -60c0 -23.333 -7.83301 -42.666 -23.5 -57.999s-36.5 -23 -62.5 -23c-56.667 0 -85 27 -85 81c0 56 28.333 84 85 84zM1070 760.999v-117h-998v117h998zM518 350.999c15.333 16 36 24 62 24
s46.833 -8 62.5 -24s23.5 -35.667 23.5 -59c0 -54.667 -28.667 -82 -86 -82c-56.667 0 -85 27.333 -85 82c0 23.333 7.66699 43 23 59z" />
    <glyph glyph-name="oslash" unicode="&#xf8;" horiz-adv-x="1141" 
d="M373 21l-79 -161h-93l99 203c-138.667 96.667 -209 247.667 -211 453v41c0 104.667 20 198.334 60 281.001s96.5 147.334 169.5 194.001s157.167 70 252.5 70c78 0 149.667 -16 215 -48l78 160h93l-100 -204c128.667 -98.667 194.667 -245.667 198 -441v-44
c0 -104.667 -19.833 -198.334 -59.5 -281.001s-96 -147.334 -169 -194.001s-157.5 -70 -253.5 -70c-71.333 0 -138 13.667 -200 41zM209 525c0 -74.667 12.0029 -143.667 36.0029 -207s59 -115 105 -155l388 795c-48.667 28 -104.334 42 -167.001 42
c-74.667 0 -139.334 -20.167 -194.001 -60.5s-96.334 -94.333 -125.001 -162s-43 -141.5 -43 -221.5v-31zM935.003 557c0 70 -11 135.501 -33 196.501s-54 111.833 -96 152.5l-387 -790c46 -22.667 97.333 -34 154 -34c75.333 0 140.333 19.833 195 59.5
s96.167 93.167 124.5 160.5s42.5 141.666 42.5 222.999v32z" />
    <glyph glyph-name="ugrave" unicode="&#xf9;" horiz-adv-x="1125" 
d="M457 1536l191 -279h-109l-227 279h145zM855 0l-2.99805 137c-72 -104.667 -186.667 -157 -344 -157c-111.333 0 -198.333 32.5 -261 97.5s-94.334 167.5 -95.001 307.5v697h120v-694c0 -108 22.833 -185.667 68.5 -233s106.167 -71 181.5 -71c90.667 0 162.667 19 216 57
s90.666 90 111.999 156v785h120v-1082h-115z" />
    <glyph glyph-name="uacute" unicode="&#xfa;" horiz-adv-x="1125" 
d="M503 1257l191 279h145l-232 -279h-104zM855 0l-2.99805 137c-72 -104.667 -186.667 -157 -344 -157c-111.333 0 -198.333 32.5 -261 97.5s-94.334 167.5 -95.001 307.5v697h120v-694c0 -108 22.833 -185.667 68.5 -233s106.167 -71 181.5 -71c90.667 0 162.667 19 216 57
s90.666 90 111.999 156v785h120v-1082h-115z" />
    <glyph glyph-name="ucircumflex" unicode="&#xfb;" horiz-adv-x="1125" 
d="M612 1526l240 -257v-10h-110l-169 183l-167 -183h-108v12l238 255h76zM855 0l-2.99805 137c-72 -104.667 -186.667 -157 -344 -157c-111.333 0 -198.333 32.5 -261 97.5s-94.334 167.5 -95.001 307.5v697h120v-694c0 -108 22.833 -185.667 68.5 -233
s106.167 -71 181.5 -71c90.667 0 162.667 19 216 57s90.666 90 111.999 156v785h120v-1082h-115z" />
    <glyph glyph-name="udieresis" unicode="&#xfc;" horiz-adv-x="1125" 
d="M357 1477c55.333 0 83 -26.667 83 -80s-27.667 -80 -83 -80c-54.667 0 -82 26.667 -82 80s27.333 80 82 80zM794 1477c55.333 0 83 -27 83 -81c0 -52.667 -27.667 -79 -83 -79c-54.667 0 -82 26.333 -82 79c0 54 27.333 81 82 81zM855 0l-2.99805 137
c-72 -104.667 -186.667 -157 -344 -157c-111.333 0 -198.333 32.5 -261 97.5s-94.334 167.5 -95.001 307.5v697h120v-694c0 -108 22.833 -185.667 68.5 -233s106.167 -71 181.5 -71c90.667 0 162.667 19 216 57s90.666 90 111.999 156v785h120v-1082h-115z" />
    <glyph glyph-name="yacute" unicode="&#xfd;" horiz-adv-x="974" 
d="M443 1257l191 279h145l-232 -279h-104zM91 -424l-0.000976562 99.999c16 -4.66699 36.333 -7 61 -7c62.667 0 111.5 15.5 146.5 46.5s64.5 79.833 88.5 146.5l54 147l-408 1073h130l337 -910l315 910h129l-458 -1256c-16 -43.333 -35.167 -83.666 -57.5 -120.999
s-51.166 -69.333 -86.499 -96c-39.333 -30.667 -92.333 -46 -159 -46c-36 0 -66.667 4.33301 -92 13z" />
    <glyph glyph-name="thorn" unicode="&#xfe;" horiz-adv-x="1151" 
d="M279 137l0.00195312 -552.999h-119v1952h119v-604c78 113.333 190.333 170 337 170c87.333 0 162.166 -22.5 224.499 -67.5s109.666 -108.833 141.999 -191.5s48.5 -180.334 48.5 -293.001v-20c0 -108 -16.167 -203.5 -48.5 -286.5s-79.5 -147.667 -141.5 -194
s-136 -69.5 -222 -69.5c-148 0 -261.333 52.333 -340 157zM394.502 940.501c-50.333 -38.333 -88.835 -88.501 -115.502 -150.501v-519c28.667 -58 68.834 -104 120.501 -138s115.5 -51 191.5 -51c70 0 129 19.333 177 58s83.833 91.834 107.5 159.501
s35.5 144.5 35.5 230.5v21c0 86 -11.833 162.667 -35.5 230s-59.5 120.333 -107.5 159s-107.667 58 -179 58c-79.333 0 -144.166 -19.167 -194.499 -57.5z" />
    <glyph glyph-name="ydieresis" unicode="&#xff;" horiz-adv-x="974" 
d="M297 1477c55.333 0 83 -26.667 83 -80s-27.667 -80 -83 -80c-54.667 0 -82 26.667 -82 80s27.333 80 82 80zM734 1477c55.333 0 83 -27 83 -81c0 -52.667 -27.667 -79 -83 -79c-54.667 0 -82 26.333 -82 79c0 54 27.333 81 82 81zM91 -424l-0.000976562 99.999
c16 -4.66699 36.333 -7 61 -7c62.667 0 111.5 15.5 146.5 46.5s64.5 79.833 88.5 146.5l54 147l-408 1073h130l337 -910l315 910h129l-458 -1256c-16 -43.333 -35.167 -83.666 -57.5 -120.999s-51.166 -69.333 -86.499 -96c-39.333 -30.667 -92.333 -46 -159 -46
c-36 0 -66.667 4.33301 -92 13z" />
    <glyph glyph-name="dotlessi" unicode="&#x131;" horiz-adv-x="456" 
d="M288 1082v-1082h-120v1082h120z" />
    <glyph glyph-name="OE" unicode="&#x152;" horiz-adv-x="1913" 
d="M1801 104l0.000976562 -103.999h-844c-124 -14 -227.667 -21 -311 -21c-104.667 0 -197.667 25.167 -279 75.5s-144.833 120.833 -190.5 211.5s-68.5 194 -68.5 310v304c0 116 22.667 219.167 68 309.5s108.5 160.666 189.5 210.999s173.833 75.5 278.5 75.5
c87.333 0 191.666 -6.66699 312.999 -20h839v-105h-777v-548h680v-105h-680v-594h782zM228.001 576.001c0 -100 17.167 -187.333 51.5 -262s83 -132.167 146 -172.5s136.5 -60.5 220.5 -60.5c84.667 0 168 4.66699 250 14v1266c-78 9.33301 -162 14 -252 14
c-84 0 -157.333 -19.833 -220 -59.5s-111 -96.5 -145 -170.5s-51 -161.667 -51 -263v-306z" />
    <glyph glyph-name="oe" unicode="&#x153;" horiz-adv-x="1892" 
d="M1788 118c-89.333 -92 -214.667 -137.999 -376 -137.999c-91.333 0 -173.833 24.167 -247.5 72.5s-129.834 113.833 -168.501 196.5c-38.667 -84 -94.5 -149.833 -167.5 -197.5s-157.833 -71.5 -254.5 -71.5c-96 0 -180.167 23.333 -252.5 70
s-128.166 111.167 -167.499 193.5s-59 176.166 -59 281.499v32c0 104.667 19.667 198.334 59 281.001s95 147.334 167 194.001s155.667 70 251 70c98 0 183.667 -24 257 -72s129.333 -114.667 168 -200c38.667 84 93.667 150.5 165 199.5s149.333 73.167 234 72.5
c88.667 0 165.167 -19 229.5 -57s113.5 -91.833 147.5 -161.5s51 -150.834 51 -243.501v-102h-765v-28c0 -78.667 14.667 -150.834 44 -216.501s70.833 -117.5 124.5 -155.5s115.167 -57 184.5 -57c138 0 246.333 40 325 120zM213.999 525.001
c0 -81.333 13.833 -155.666 41.5 -222.999s68.667 -121 123 -161s119.5 -60 195.5 -60c75.333 0 140 20 194 60s94.833 93.667 122.5 161s41.5 141.666 41.5 222.999v32c0 79.333 -14 152.833 -42 220.5s-69 121.667 -123 162s-119 60.5 -195 60.5
c-75.333 0 -140 -20.167 -194 -60.5s-94.833 -94.333 -122.5 -162s-41.5 -141.167 -41.5 -220.5v-32zM1237 953.001c-47.333 -31.333 -85.833 -74.167 -115.5 -128.5s-48.834 -115.833 -57.501 -184.5h640v29c0 62 -12.167 118 -36.5 168s-59.666 89.667 -105.999 119
s-101.5 44 -165.5 44c-58.667 0 -111.667 -15.667 -159 -47z" />
    <glyph glyph-name="circumflex" unicode="&#x2c6;" horiz-adv-x="880" 
d="M475 1526l240 -257v-10h-110l-169 183l-167 -183h-108v12l238 255h76z" />
    <glyph glyph-name="ring" unicode="&#x2da;" horiz-adv-x="636" 
d="M143.5 1491.5c17 29 40.167 52 69.5 69s62 25.5 98 25.5c35.333 0 67.833 -8.5 97.5 -25.5s53 -40 70 -69s25.5 -61.167 25.5 -96.5s-8.5 -67.166 -25.5 -95.499s-40.333 -50.666 -70 -66.999s-62.167 -24.5 -97.5 -24.5c-36 0 -68.667 8.16699 -98 24.5
s-52.5 38.666 -69.5 66.999s-25.5 60.166 -25.5 95.499s8.5 67.5 25.5 96.5zM227.5 1313.5c22.333 -22.333 50.167 -33.5 83.5 -33.5c34 0 61.833 11 83.5 33s32.5 49.333 32.5 82c0 34 -10.833 62.333 -32.5 85s-49.5 34 -83.5 34s-62 -11.333 -84 -34s-33 -51 -33 -85
c0 -32 11.167 -59.167 33.5 -81.5z" />
    <glyph glyph-name="tilde" unicode="&#x2dc;" horiz-adv-x="892" 
d="M780 1486c0 -42 -8.66602 -79.166 -25.999 -111.499s-41 -57.333 -71 -75s-63 -26.5 -99 -26.5s-65.833 5.83301 -89.5 17.5s-49.167 28.5 -76.5 50.5l-18 14c-23.333 18.667 -54.333 28 -93 28c-32.667 0 -59.334 -10.667 -80.001 -32s-31 -50.333 -31 -87l-89 4
c0 41.333 8.66699 78.166 26 110.499s40.833 57.333 70.5 75s62.5 26.5 98.5 26.5c42 0 76.667 -9 104 -27l82 -56c26 -18 56.667 -27 92 -27c31.333 0 57.5 11.167 78.5 33.5s31.5 51.833 31.5 88.5z" />
    <glyph glyph-name="uni0531" unicode="&#x531;" horiz-adv-x="1538" 
d="M1467 -33l-309.001 291.998c-37.333 -91.333 -98 -160.666 -182 -207.999s-181.333 -71 -292 -71c-98.667 0 -186.5 18.333 -263.5 55s-137.5 91.834 -181.5 165.501s-66 163.5 -66 269.5v1066h122v-1066c0 -82.667 16.5 -153 49.5 -211s78.833 -101.667 137.5 -131
s126 -44 202 -44c76.667 0 144.334 14.667 203.001 44s104.5 73 137.5 131s49.5 128.333 49.5 211v1066h123v-1066c0 -32 -2 -62 -6 -90l276 -262v-151z" />
    <glyph glyph-name="uni0532" unicode="&#x532;" horiz-adv-x="1359" 
d="M1263 454l-968 -0.000976562v-454h-122v1066c0 106 22 195.833 66 269.5s104.5 128.834 181.5 165.501s164.833 55 263.5 55c96.667 0 183.834 -18.5 261.501 -55.5s139 -92.167 184 -165.5s67.5 -163 67.5 -269v-160h-123v160c0 82.667 -16.5 153 -49.5 211
s-78.833 101.667 -137.5 131s-126.334 44 -203.001 44c-76 0 -143.333 -14.667 -202 -44s-104.5 -73 -137.5 -131s-49.5 -128.333 -49.5 -211v-507h968v-105z" />
    <glyph glyph-name="uni0533" unicode="&#x533;" horiz-adv-x="1520" 
d="M1490 534l-313 -0.000976562v-534h-122v611c-49.333 -59.333 -109.833 -105.666 -181.5 -138.999s-151.167 -50 -238.5 -50c-107.333 0 -202.5 22 -285.5 66s-147.667 107 -194 189s-69.5 178.333 -69.5 289v46c0 110 23.167 206.167 69.5 288.5s111 145.5 194 189.5
s178.167 66 285.5 66s201.833 -22 283.5 -66s145.167 -107 190.5 -189s68 -178.333 68 -289v-373h313v-105zM867 582.499c62.667 35 109.668 84.499 141.001 148.499s47 139.333 47 226v60c0 136 -35.5 241.833 -106.5 317.5s-175.5 113.5 -313.5 113.5
c-92.667 0 -170.834 -17.333 -234.501 -52s-111.667 -84.167 -144 -148.5s-48.5 -141.166 -48.5 -230.499v-60c0 -86.667 16.167 -162 48.5 -226s80.5 -113.5 144.5 -148.5s142 -52.5 234 -52.5s169.333 17.5 232 52.5z" />
    <glyph glyph-name="uni0534" unicode="&#x534;" horiz-adv-x="1509" 
d="M1479 534l-312 -0.000976562v-534h-123v1066c0 82.667 -16.5 153 -49.5 211s-78.833 101.667 -137.5 131s-126.334 44 -203.001 44c-76 0 -143.333 -14.667 -202 -44s-104.5 -73 -137.5 -131s-49.5 -128.333 -49.5 -211v-410h-122v410c0 106 22 195.833 66 269.5
s104.5 128.834 181.5 165.501s164.833 55 263.5 55c96.667 0 183.834 -18.5 261.501 -55.5s139 -92.167 184 -165.5s67.5 -163 67.5 -269v-427h312v-105z" />
    <glyph glyph-name="uni0535" unicode="&#x535;" horiz-adv-x="1359" 
d="M295 977v-507.001c0 -82.667 16.5 -153 49.5 -211s78.833 -101.667 137.5 -131s126 -44 202 -44c76.667 0 144.334 14.667 203.001 44s104.5 73 137.5 131s49.5 128.333 49.5 211v160h123v-160c0 -106 -22.5 -195.667 -67.5 -269s-106.333 -128.5 -184 -165.5
s-164.834 -55.5 -261.501 -55.5c-98.667 0 -186.5 18.333 -263.5 55s-137.5 91.834 -181.5 165.501s-66 163.5 -66 269.5v1066h122v-454h968v-105h-968z" />
    <glyph glyph-name="uni0536" unicode="&#x536;" horiz-adv-x="1381" 
d="M1291 2l-0.00292969 -2.00098h-122c0 77.333 -21 138 -63 182s-108.667 66 -200 66h-634v-248h-122v599h122v-246h212c86.667 25.333 176.334 60.333 269.001 105s178.5 112.334 257.5 203.001s118.5 203 118.5 337c0 90.667 -16.333 170.167 -49 238.5
s-79.667 121.333 -141 159s-134.333 56.5 -219 56.5c-128 0 -228.167 -34.167 -300.5 -102.5s-108.5 -175.166 -108.5 -320.499v-83h-122v85c0 169.333 43.833 299.166 131.5 389.499s220.834 135.5 399.501 135.5c116 0 213.667 -24 293 -72s138.833 -115 178.5 -201
s59.5 -186.667 59.5 -302c0 -126 -31.5 -233.667 -94.5 -323s-131.667 -157.5 -206 -204.5s-139.166 -80.5 -194.499 -100.5h176c239.333 0 359 -117 359 -351z" />
    <glyph glyph-name="uni0537" unicode="&#x537;" horiz-adv-x="1217" 
d="M306 977v-872h324c123.333 0 216.333 -24 279 -72s94 -118.667 94 -212h-123c0 57.333 -21.333 101.5 -64 132.5s-104.667 46.5 -186 46.5h-447v1536h123v-454h815v-105h-815z" />
    <glyph glyph-name="uni0538" unicode="&#x538;" horiz-adv-x="1359" 
d="M1263 105v-104.999h-1090v1066c0 106 22.5 195.667 67.5 269s106.333 128.5 184 165.5s164.834 55.5 261.501 55.5c98.667 0 186.5 -18.333 263.5 -55s137.5 -91.834 181.5 -165.501s66 -163.5 66 -269.5v-410h-122v410c0 82.667 -16.5 153 -49.5 211
s-78.833 101.667 -137.5 131s-126 44 -202 44c-76.667 0 -144.334 -14.667 -203.001 -44s-104.5 -73 -137.5 -131s-49.5 -128.333 -49.5 -211v-961h967z" />
    <glyph glyph-name="uni0539" unicode="&#x539;" horiz-adv-x="1852" 
d="M1756 837v-105h-227v-312c0 -134 -34.333 -240.833 -103 -320.5s-178 -119.5 -328 -119.5c-90.667 0 -169.334 17 -236.001 51s-117.667 82.167 -153 144.5s-53 135.5 -53 219.5v28c0 84 17.667 157 53 219s86.333 110 153 144s145.334 51 236.001 51h308v204
c0 82.667 -24.833 155.167 -74.5 217.5s-116.667 110.166 -201 143.499s-177.166 50 -278.499 50c-102.667 0 -196.334 -16.667 -281.001 -50s-151.667 -81.166 -201 -143.499s-74 -134.833 -74 -217.5v-1041h-123v1041c0 106.667 29.667 198.834 89 276.501
s140.5 136.834 243.5 177.501s218.5 61 346.5 61c130 0 246.333 -20.333 349 -61s183 -99.834 241 -177.501s87 -169.834 87 -276.501v-204h227zM1406 732h-308c-70.667 0 -129.834 -14.5 -177.501 -43.5s-83.167 -68.333 -106.5 -118s-35 -105.834 -35 -168.501
c0 -60.667 11.833 -115 35.5 -163s59.334 -85.833 107.001 -113.5s106.5 -41.5 176.5 -41.5c104 0 181.333 30.333 232 91s76 142.334 76 245.001v312z" />
    <glyph glyph-name="uni053A" unicode="&#x53a;" horiz-adv-x="1497" 
d="M1401 977l-313.002 0.00195312v-437c0 -185.333 -37.167 -325 -111.5 -419s-196.5 -141 -366.5 -141c-107.333 0 -200.166 21.667 -278.499 65s-138.166 105.166 -179.499 185.499s-62 175.166 -62 284.499v32c0 110 20.833 205 62.5 285s102.667 141.667 183 185
s177.5 65 291.5 65h338v454h123v-454h313v-105zM964.998 977.002h-337.999c-135.333 0 -238.166 -38.667 -308.499 -116s-105.5 -187.666 -105.5 -330.999c0 -142 34 -251.833 102 -329.5s165.333 -116.5 292 -116.5c91.333 0 163.166 17.667 215.499 53
s89.166 86.166 110.499 152.499s32 149.833 32 250.5v437z" />
    <glyph glyph-name="uni053B" unicode="&#x53b;" horiz-adv-x="1345" 
d="M955.5 1124.5c77.667 -37 139 -92.1689 184 -165.502s67.5 -163 67.5 -269v-306h-123v306c0 82.667 -16.5 153 -49.5 211s-78.833 101.667 -137.5 131s-126.334 44 -203.001 44c-71.333 0 -135.5 -16.333 -192.5 -49s-102.667 -78.667 -137 -138
s-53.833 -127.666 -58.5 -204.999v-684h-123v1536h123v-539c47.333 56.667 104.5 101.334 171.5 134.001s139.167 49 216.5 49c96.667 0 183.834 -18.5 261.501 -55.5z" />
    <glyph glyph-name="uni053C" unicode="&#x53c;" horiz-adv-x="1053" 
d="M1037.5 31.5c70.333 -49 105.5 -119.167 105.5 -210.5h-123c0 56 -26.5 99.833 -79.5 131.5s-124.5 47.5 -214.5 47.5h-543v1536h123v-1431h445c120.667 0 216.167 -24.5 286.5 -73.5z" />
    <glyph glyph-name="uni053D" unicode="&#x53d;" horiz-adv-x="1806" 
d="M1633 1082l0.00292969 -612.001c0 -105.333 -19.833 -194.833 -59.5 -268.5s-93.334 -129 -161.001 -166s-142.834 -55.5 -225.501 -55.5c-84.667 0 -160.5 18.333 -227.5 55s-119.833 91.834 -158.5 165.501s-58 163.5 -58 269.5v507h-437v-977h-123v1536h123v-454h560
v-612c0 -83.333 13.333 -153.833 40 -211.5s64 -101.167 112 -130.5s104.333 -44 169 -44c65.333 0 122.166 14.667 170.499 44s85.833 72.833 112.5 130.5s40 128.167 40 211.5v612h123z" />
    <glyph glyph-name="uni053E" unicode="&#x53e;" horiz-adv-x="1370" 
d="M1430 1196l-377.001 -0.000976562c70 -51.333 124 -118.666 162 -201.999s57 -178.333 57 -285v-138c0 -118.667 -23.167 -222.667 -69.5 -312s-112.166 -158.166 -197.499 -206.499s-185 -72.5 -299 -72.5c-110.667 0 -208.667 23.667 -294 71
s-152 114.666 -200 201.999s-72.667 189 -74 305v151c0 106 19.167 200.667 57.5 284s92.5 151 162.5 203h-66c-78 0 -146.5 14 -205.5 42s-104.833 67.667 -137.5 119s-49 111 -49 179h123c0 -44 12.167 -84 36.5 -120s58.833 -64.167 103.5 -84.5s96 -30.5 154 -30.5h1113
v-105zM1097.5 966.999c-35 72.667 -85.999 128.501 -152.999 167.501s-147.167 58.5 -240.5 58.5c-90.667 0 -169.334 -19.667 -236.001 -59s-117.834 -95.333 -153.501 -168s-53.5 -158.334 -53.5 -257.001v-137c0 -98.667 18 -184.5 54 -257.5s87.5 -129 154.5 -168
s145.833 -58.5 236.5 -58.5c93.333 0 173.333 19.5 240 58.5s117.334 94.833 152.001 167.5s52 158.667 52 258v137c0 99.333 -17.5 185.333 -52.5 258z" />
    <glyph glyph-name="uni053F" unicode="&#x53f;" horiz-adv-x="1335" 
d="M1162 1082v-1082h-123v539c-47.333 -56.667 -104.5 -101.334 -171.5 -134.001s-139.167 -49 -216.5 -49c-96.667 0 -183.834 18.5 -261.501 55.5s-139 92.167 -184 165.5s-67.5 163 -67.5 269v690h123v-690c0 -82.667 16.5 -153 49.5 -211s78.833 -101.667 137.5 -131
s126.334 -44 203.001 -44c71.333 0 135.5 16.333 192.5 49s102.667 78.667 137 138s53.833 127.666 58.5 204.999v230h123z" />
    <glyph glyph-name="uni0540" unicode="&#x540;" horiz-adv-x="1232" 
d="M108 1536l463 -0.000976562c162.667 0 285 -32.333 367 -97s123.667 -166.667 125 -306c0 -42.667 -8.5 -86.167 -25.5 -130.5s-41 -85.166 -72 -122.499s-66.833 -67.333 -107.5 -90c84.667 -33.333 144.834 -76.833 180.501 -130.5s53.5 -121.167 53.5 -202.5v-458
h-123v438c0 99.333 -31.5 175 -94.5 227s-164.167 78 -303.5 78h-413v105h413c125.333 0 218.166 25.333 278.499 76s90.5 121.667 90.5 213c0 89.333 -30.5 160.833 -91.5 214.5s-153.5 80.5 -277.5 80.5h-463v105z" />
    <glyph glyph-name="uni0541" unicode="&#x541;" horiz-adv-x="1394" 
d="M1240 -25c-9.33301 10.667 -20.666 25.335 -33.999 44.002c-66 88 -123.667 158.667 -173 212c-74 -79.333 -157.667 -141 -251 -185s-189.333 -66 -288 -66c-74.667 0 -142.667 12.167 -204 36.5s-110.333 61.666 -147 111.999s-55 112.5 -55 186.5
s18.333 136.5 55 187.5s85.667 89 147 114s129.333 37.5 204 37.5c170.667 0 344.667 -83.667 522 -251c47.333 71.333 84 148.833 110 232.5s39 168.167 39 253.5v29c0 90 -16 175.667 -48 257s-81.833 147.666 -149.5 198.999s-151.834 77 -252.501 77
c-103.333 0 -189.333 -15.833 -258 -47.5s-119.5 -75.167 -152.5 -130.5s-49.5 -119.333 -49.5 -192v-33h-123v35c0 88 20.5 167.5 61.5 238.5s105.167 127.833 192.5 170.5s197 64 329 64c130.667 0 238.834 -29.833 324.501 -89.5s148.5 -137.167 188.5 -232.5
s60 -197.333 60 -306v-29c0 -109.333 -16.333 -213.833 -49 -313.5s-78.334 -189.834 -137.001 -270.501c56 -61.333 116.667 -136.666 182 -225.999l30 -39zM738 146.501c78.667 41 149.333 97.835 212 170.502c-163.333 154.667 -315.333 232 -456 232
c-50.667 0 -97.5 -8.83301 -140.5 -26.5s-77.5 -44.167 -103.5 -79.5s-39 -78 -39 -128c0 -48.667 13 -90.334 39 -125.001s60.5 -60.834 103.5 -78.501s89.833 -26.5 140.5 -26.5c84 0 165.333 20.5 244 61.5z" />
    <glyph glyph-name="uni0542" unicode="&#x542;" horiz-adv-x="1539" 
d="M1479 105v-105.001h-435v1066c0 82.667 -16.5 153 -49.5 211s-78.833 101.667 -137.5 131s-126.334 44 -203.001 44c-76 0 -143.333 -14.667 -202 -44s-104.5 -73 -137.5 -131s-49.5 -128.333 -49.5 -211v-410h-122v410c0 106 22 195.833 66 269.5
s104.5 128.834 181.5 165.501s164.833 55 263.5 55c96.667 0 183.834 -18.5 261.501 -55.5s139 -92.167 184 -165.5s67.5 -163 67.5 -269v-961h312z" />
    <glyph glyph-name="uni0543" unicode="&#x543;" horiz-adv-x="1499" 
d="M1106.5 1005.5c91 -51 159.832 -121.001 206.499 -210.001s70 -190.167 70 -303.5v-492h-1123v573c0 150.667 13.333 285.334 40 404.001h-270v105h298c51.333 159.333 129.833 278.166 235.5 356.499s233.5 117.5 383.5 117.5c72.667 0 141.334 -5.33301 206.001 -16
s119.167 -22.167 163.5 -34.5s66.5 -19.166 66.5 -20.499l-15 -107c0 1.33301 -21 8.5 -63 21.5s-94.167 25 -156.5 36s-129.5 16.5 -201.5 16.5c-244.667 0 -409.667 -123.333 -495 -370h326c128 0 237.5 -25.5 328.5 -76.5zM1260 462.999
c0 160.667 -41.5 286.501 -124.5 377.501s-212.167 136.5 -387.5 136.5h-326c-26 -112.667 -39 -247.334 -39 -404.001v-468h877v358z" />
    <glyph glyph-name="uni0544" unicode="&#x544;" horiz-adv-x="1550" 
d="M1510 1431l-313 0.000976562v-961c0 -106 -22 -195.833 -66 -269.5s-104.5 -128.834 -181.5 -165.501s-164.833 -55 -263.5 -55c-96.667 0 -183.834 18.5 -261.501 55.5s-139 92.167 -184 165.5s-67.5 163 -67.5 269v1066h123v-1066c0 -82.667 16.5 -153 49.5 -211
s78.833 -101.667 137.5 -131s126.334 -44 203.001 -44c76 0 143.333 14.667 202 44s104.5 73 137.5 131s49.5 128.333 49.5 211v1066h435v-105z" />
    <glyph glyph-name="uni0545" unicode="&#x545;" horiz-adv-x="1388" 
d="M126 732l-0.00292969 104.993h584c135.333 0 236.5 26.833 303.5 80.5s100.5 126.5 100.5 218.5c0 60.667 -15.167 114.834 -45.5 162.501s-76.5 85.334 -138.5 113.001s-139 41.5 -231 41.5c-72 0 -138.5 -13.5 -199.5 -40.5s-109.5 -64.833 -145.5 -113.5
s-54 -104 -54 -166h-123c0 84.667 23.333 159.167 70 223.5s109.834 113.833 189.501 148.5s167.167 52 262.5 52c110 0 205.333 -16.167 286 -48.5s142.834 -80.333 186.501 -144s65.5 -141.167 65.5 -232.5c0 -76 -23.833 -144.5 -71.5 -205.5
s-115.5 -107.167 -203.5 -138.5c102 -27.333 179.167 -71.666 231.5 -132.999s78.5 -139.666 78.5 -234.999c0 -91.333 -24 -170.166 -72 -236.499s-115.167 -116.833 -201.5 -151.5s-186.166 -52 -299.499 -52c-106 0 -201 18 -285 54s-149.833 87.833 -197.5 155.5
s-71.5 147.167 -71.5 238.5h123c0 -63.333 18.167 -121.166 54.5 -173.499s87.333 -93.833 153 -124.5s140.167 -46 223.5 -46c94 0 174.833 13.833 242.5 41.5s119.167 66.334 154.5 116.001s53 107.5 53 173.5c0 107.333 -38.333 187 -115 239s-187 78 -331 78h-577z" />
    <glyph glyph-name="uni0546" unicode="&#x546;" horiz-adv-x="1519" 
d="M1376 880v-409.999c0 -106 -22 -195.833 -66 -269.5s-104.5 -128.834 -181.5 -165.501s-164.833 -55 -263.5 -55c-96.667 0 -183.834 18.5 -261.501 55.5s-139 92.167 -184 165.5s-67.5 163 -67.5 269v961h-312v105h435v-1066c0 -82.667 16.5 -153 49.5 -211
s78.833 -101.667 137.5 -131s126.334 -44 203.001 -44c76 0 143.333 14.667 202 44s104.5 73 137.5 131s49.5 128.333 49.5 211v410h122z" />
    <glyph glyph-name="uni0547" unicode="&#x547;" horiz-adv-x="1362" 
d="M562 1077c-85.333 -36 -162.331 -96.332 -230.998 -180.999s-103 -197 -103 -337c0 -86.667 18.5 -166.167 55.5 -238.5s89.5 -129.833 157.5 -172.5s146.333 -64 235 -64c89.333 0 165.833 17.167 229.5 51.5s112.167 83.333 145.5 147s50 138.5 50 224.5v23h122v-25
c0 -111.333 -21.167 -206.333 -63.5 -285s-104.333 -138.334 -186 -179.001s-180.834 -61 -297.501 -61c-117.333 0 -218.833 24.167 -304.5 72.5s-151.334 116.833 -197.001 205.5s-68.5 191.334 -68.5 308.001c0.666992 153.333 35.5 277.166 104.5 371.499
s144.5 161.833 226.5 202.5s159.667 69 233 85l-410 210v121l996 -511v-121l-443 227c-82 -13.333 -165.667 -38 -251 -74z" />
    <glyph glyph-name="uni0548" unicode="&#x548;" horiz-adv-x="1370" 
d="M1024.5 1277c-33 58 -78.833 101.666 -137.5 130.999s-126.334 44 -203.001 44c-76 0 -143.333 -14.667 -202 -44s-104.5 -73 -137.5 -131s-49.5 -128.333 -49.5 -211v-1066h-122v1066c0 106 22 195.833 66 269.5s104.5 128.834 181.5 165.501s164.833 55 263.5 55
c96.667 0 183.834 -18.5 261.501 -55.5s139 -92.167 184 -165.5s67.5 -163 67.5 -269v-1066h-123v1066c0 82.667 -16.5 153 -49.5 211z" />
    <glyph glyph-name="uni0549" unicode="&#x549;" horiz-adv-x="1362" 
d="M1150 632.5c-70.667 -103.667 -147.332 -181.001 -229.999 -232.001s-160.334 -89.167 -233.001 -114.5l415 -213v-121l-996 511v121l430 -221c80.667 18.667 164.167 48.5 250.5 89.5s165.833 108.833 238.5 203.5s109 218.334 109 371.001
c0 85.333 -18.333 160 -55 224s-88.667 113.5 -156 148.5s-146.333 52.5 -237 52.5c-89.333 0 -165.833 -17.167 -229.5 -51.5s-112.167 -83.333 -145.5 -147s-50 -138.5 -50 -224.5v-23h-122v25c0 111.333 21.167 206.333 63.5 285s104.333 138.334 186 179.001
s180.834 61 297.501 61c119.333 0 221.666 -20.333 306.999 -61s150.5 -101 195.5 -181s67.5 -178 67.5 -294c0 -154.667 -35.333 -283.834 -106 -387.501z" />
    <glyph glyph-name="uni054A" unicode="&#x54a;" horiz-adv-x="1672" 
d="M1174 1493c102.667 -42 182.5 -102.669 239.5 -182.002s85.5 -172.666 85.5 -279.999v-1031h-123v1031c0 78 -20.667 147.5 -62 208.5s-99.166 109.667 -173.499 146s-160.166 57.833 -257.499 64.5v-997h-123v997c-96.667 -6 -182.334 -27.167 -257.001 -63.5
s-132.834 -85.166 -174.501 -146.499s-62.5 -131 -62.5 -209v-273h-123v273c0 108 28 201.5 84 280.5s135 139.5 237 181.5s220.667 63 356 63c133.333 0 251.333 -21 354 -63z" />
    <glyph glyph-name="uni054B" unicode="&#x54b;" horiz-adv-x="1388" 
d="M1298 2l0.000976562 -2.00098h-122c0 77.333 -21 138 -63 182s-108.667 66 -200 66h-641v-248h-122v579h122v-226h257c6 2 14.5 4.66699 25.5 8s25.5 8.33301 43.5 15c33.333 42 50 83.333 50 124c0 78 -59.667 145 -179 201c-60.667 28.667 -110 55.834 -148 81.501
s-70.167 61.167 -96.5 106.5s-39.5 103 -39.5 173c0 101.333 19.833 189 59.5 263s99 131 178 171s175.5 60 289.5 60c112 0 209.167 -23.833 291.5 -71.5s145.166 -113 188.499 -196s65 -176.167 65 -279.5c0 -129.333 -29.167 -240.333 -87.5 -333
s-121.5 -163.5 -189.5 -212.5s-129.667 -85.833 -185 -110.5h144c239.333 0 359 -117 359 -351zM713.501 663.499c31.667 -39 47.499 -83.502 47.499 -133.502c0 -27.333 -5 -56.666 -15 -87.999c110 59.333 202.333 135.833 277 229.5s112 208.834 112 345.501
c0 78.667 -15.5 150.667 -46.5 216s-78.167 117.5 -141.5 156.5s-141.666 58.5 -234.999 58.5c-269.333 0 -404 -128 -404 -384c0 -52 9 -94.167 27 -126.5s41.167 -58.166 69.5 -77.499s69.5 -42 123.5 -68c4.66699 -2.66699 19.667 -10.334 45 -23.001
c62 -31.333 108.833 -66.5 140.5 -105.5z" />
    <glyph glyph-name="uni054C" unicode="&#x54c;" horiz-adv-x="1539" 
d="M1509 534l-312 -0.000976562v-534h-123v1066c0 82.667 -16.5 153 -49.5 211s-78.833 101.667 -137.5 131s-126.334 44 -203.001 44c-76 0 -143.333 -14.667 -202 -44s-104.5 -73 -137.5 -131s-49.5 -128.333 -49.5 -211v-1066h-122v1066c0 106 22 195.833 66 269.5
s104.5 128.834 181.5 165.501s164.833 55 263.5 55c96.667 0 183.834 -18.5 261.501 -55.5s139 -92.167 184 -165.5s67.5 -163 67.5 -269v-427h312v-105z" />
    <glyph glyph-name="uni054D" unicode="&#x54d;" horiz-adv-x="1370" 
d="M1074 1536l123 -0.000976562v-1066c0 -106 -22.5 -195.667 -67.5 -269s-106.333 -128.5 -184 -165.5s-164.834 -55.5 -261.501 -55.5c-98.667 0 -186.5 18.333 -263.5 55s-137.5 91.834 -181.5 165.501s-66 163.5 -66 269.5v1066h122v-1066
c0 -82.667 16.5 -153 49.5 -211s78.833 -101.667 137.5 -131s126 -44 202 -44c76.667 0 144.334 14.667 203.001 44s104.5 73 137.5 131s49.5 128.333 49.5 211v1066z" />
    <glyph glyph-name="uni054E" unicode="&#x54e;" horiz-adv-x="1534" 
d="M1474 105v-104.998h-435v539c-47.333 -56.667 -104.5 -101.334 -171.5 -134.001s-139.167 -49 -216.5 -49c-96.667 0 -183.834 18.5 -261.501 55.5s-139 92.167 -184 165.5s-67.5 163 -67.5 269v236h123v-236c0 -82.667 16.5 -153 49.5 -211s78.833 -101.667 137.5 -131
s126.334 -44 203.001 -44c71.333 0 135.5 16.333 192.5 49s102.667 78.667 137 138s53.833 127.666 58.5 204.999v684h123v-1431h312z" />
    <glyph glyph-name="uni054F" unicode="&#x54f;" horiz-adv-x="1241" 
d="M983 526.5c-24 40.333 -63.9961 76.0029 -119.996 107.003s-134 61.5 -234 91.5c-108 32 -196.833 66.167 -266.5 102.5s-123.834 81.333 -162.501 135s-58 119.167 -58 196.5s21.167 146.166 63.5 206.499s101 107.166 176 140.499s159.833 50 254.5 50
c100.667 0 188.167 -18.667 262.5 -56s131.5 -89.333 171.5 -156s60 -142.667 60 -228h-123c0 67.333 -15 126.166 -45 176.499s-73.167 89.333 -129.5 117s-123.5 41.5 -201.5 41.5c-77.333 0 -143.5 -13.167 -198.5 -39.5s-96.5 -61.333 -124.5 -105
s-42 -91.834 -42 -144.501c0 -58.667 17.667 -108.667 53 -150s81.833 -75.666 139.5 -102.999s128.5 -53 212.5 -77c107.333 -30.667 195.166 -65.334 263.499 -104.001s120.166 -86.167 155.499 -142.5s53 -124.833 53 -205.5c0 -82 -21.333 -153.167 -64 -213.5
s-101.834 -106.5 -177.501 -138.5s-162.167 -48 -259.5 -48c-103.333 0 -196 18.333 -278 55s-146.833 91 -194.5 163s-71.5 159 -71.5 261h124c0 -82 18 -151 54 -207s85.5 -98 148.5 -126s135.5 -42 217.5 -42c75.333 0 141.5 12.333 198.5 37s101 59.334 132 104.001
s46.5 95.667 46.5 153c0 58.667 -12 108.167 -36 148.5z" />
    <glyph glyph-name="uni0550" unicode="&#x550;" horiz-adv-x="1340" 
d="M296 0l-123 0.000976562v1066c0 106 22.5 195.667 67.5 269s106.333 128.5 184 165.5s164.834 55.5 261.501 55.5c98.667 0 186.5 -18.333 263.5 -55s137.5 -91.834 181.5 -165.501s66 -163.5 66 -269.5v-410h-122v410c0 82.667 -16.5 153 -49.5 211
s-78.833 101.667 -137.5 131s-126 44 -202 44c-76.667 0 -144.334 -14.667 -203.001 -44s-104.5 -73 -137.5 -131s-49.5 -128.333 -49.5 -211v-1066z" />
    <glyph glyph-name="uni0551" unicode="&#x551;" horiz-adv-x="1388" 
d="M126 838l269 -0.000976562c-36 27.333 -63.5 70.166 -82.5 128.499s-28.5 119.166 -28.5 182.499c0 130 35.833 230.333 107.5 301s176.834 106 315.501 106c139.333 0 244.666 -36.5 315.999 -109.5s107 -178.833 107 -317.5c0 -72 -14.5 -137 -43.5 -195
s-72.167 -105 -129.5 -141c105.333 -28 184.166 -73.333 236.499 -136s78.5 -141.667 78.5 -237c0 -91.333 -24 -170.166 -72 -236.499s-115.167 -116.833 -201.5 -151.5s-186.166 -52 -299.499 -52c-106 0 -201 18 -285 54s-149.833 87.833 -197.5 155.5
s-71.5 147.167 -71.5 238.5h123c0 -63.333 18.167 -121.166 54.5 -173.499s87.333 -93.833 153 -124.5s140.167 -46 223.5 -46c94 0 174.833 13.833 242.5 41.5s119.167 66.334 154.5 116.001s53 107.5 53 173.5c0 107.333 -38.333 187 -115 239s-187 78 -331 78h-577v106z
M477.5 915.999c47 -52 123.167 -78 228.5 -78c107.333 0 184.333 26 231 78s70 128.333 70 229c0 99.333 -23.833 175.666 -71.5 228.999s-124.167 80 -229.5 80c-104.667 0 -180.667 -26.667 -228 -80s-71 -129.666 -71 -228.999c0 -100.667 23.5 -177 70.5 -229z" />
    <glyph glyph-name="uni0552" unicode="&#x552;" horiz-adv-x="628" 
d="M598 716h-312v-716h-123v1536h123v-715h312v-105z" />
    <glyph glyph-name="uni0553" unicode="&#x553;" horiz-adv-x="1563" 
d="M841 203v-203.001h-121v203h-33c-118.667 0 -223.667 24.333 -315 73s-162 116 -212 202s-75 183.333 -75 292s25 206 75 292s120.333 153.5 211 202.5s195.334 73.5 314.001 73.5h35v198h121v-198h34c118.667 0 223.667 -24.167 315 -72.5
s162.166 -115.5 212.499 -201.5s75.5 -183.333 75.5 -292c0 -109.333 -25.5 -207.166 -76.5 -293.499s-122.667 -153.833 -215 -202.5s-198.5 -73 -318.5 -73h-27zM720 304.999v932h-26c-102.667 0 -190.834 -19.5 -264.501 -58.5s-129.667 -93.667 -168 -164
s-57.5 -151.833 -57.5 -244.5s19.167 -174 57.5 -244s94.333 -124.333 168 -163s161.834 -58 264.501 -58h26zM841 1237v-932h29c102 0 189.667 19.5 263 58.5s129.166 93.667 167.499 164s57.5 151.833 57.5 244.5c0 92 -19.167 173.167 -57.5 243.5
s-94.166 124.833 -167.499 163.5s-161 58 -263 58h-29z" />
    <glyph glyph-name="uni0554" unicode="&#x554;" horiz-adv-x="1538" 
d="M1442 233l-1053 0.000976562v-233h-122v233h-243v105h243v733c0 98.667 22.667 184.5 68 257.5s108.833 129.167 190.5 168.5s176.167 59 283.5 59s202.5 -19.667 285.5 -59s147.667 -95.5 194 -168.5s69.5 -158.833 69.5 -257.5v-40
c0 -98.667 -23.167 -184.5 -69.5 -257.5s-111 -129.167 -194 -168.5s-178.167 -59 -285.5 -59c-87.333 0 -166.833 14.667 -238.5 44s-132.167 70.666 -181.5 123.999v-376h1053v-105zM389 1024c0 -74.667 15.667 -139.834 47 -195.501s78.333 -98.667 141 -129
s140 -45.5 232 -45.5s170 15.167 234 45.5s112.167 73.333 144.5 129s48.5 120.834 48.5 195.501v51c0 117.333 -36.5 208.833 -109.5 274.5s-178.833 98.5 -317.5 98.5c-138 0 -242.5 -32.667 -313.5 -98s-106.5 -157 -106.5 -275v-51z" />
    <glyph glyph-name="uni0555" unicode="&#x555;" horiz-adv-x="1406" 
d="M1270 686c0 -142 -23.1689 -266.331 -69.502 -372.998s-112.166 -188.834 -197.499 -246.501s-185 -86.5 -299 -86.5c-111.333 0 -209.833 28.333 -295.5 85s-152.5 137.167 -200.5 241.5s-72 225.5 -72 363.5v181c0 141.333 23.5 265.166 70.5 371.499
s113.333 188.5 199 246.5s184.5 87 296.5 87c114 0 213.833 -28.833 299.5 -86.5s151.834 -139.667 198.501 -246s70 -230.5 70 -372.5v-165zM1148 853.002c0 122 -17.499 227.664 -52.499 316.997s-86 158 -153 206s-147.167 72 -240.5 72
c-90.667 0 -169.334 -24.167 -236.001 -72.5s-117.834 -117.166 -153.501 -206.499s-53.5 -194.666 -53.5 -315.999v-167c0 -122 18 -228 54 -318s87.5 -159.167 154.5 -207.5s145.833 -72.5 236.5 -72.5c93.333 0 173.333 24.167 240 72.5s117.334 117.333 152.001 207
s52 195.834 52 318.501v167z" />
    <glyph glyph-name="uni0556" unicode="&#x556;" horiz-adv-x="1512" 
d="M1207 874c78.667 -34.667 138.832 -85.8311 180.499 -153.498s62.5 -149.834 62.5 -246.501v-35c0 -150.667 -54 -264.834 -162 -342.501s-277.667 -116.5 -509 -116.5c-233.333 0 -407.166 45.5 -521.499 136.5s-171.5 220.833 -171.5 389.5h123v-8
c0 -80 18.5 -151 55.5 -213s92 -110.667 165 -146s160.833 -53 263.5 -53h24v736h-84c-140.667 0 -251 28.5 -331 85.5s-120 148.167 -120 273.5c0 123.333 40.333 213.333 121 270s190.667 85 330 85h207v-610h84c110 0 204.333 -17.333 283 -52zM716.998 926.003v506h-84
c-100.667 0 -180.5 -20 -239.5 -60s-88.5 -104.333 -88.5 -193s29.5 -153 88.5 -193s138.833 -60 239.5 -60h84zM1327 480.003c0 70 -17 130.667 -51 182s-81.333 90.833 -142 118.5s-130.667 41.5 -210 41.5h-84v-736h23c156.667 0 273.167 30.167 349.5 90.5
s114.5 151.5 114.5 273.5v30z" />
    <glyph glyph-name="uni0559" unicode="&#x559;" horiz-adv-x="385" 
d="M221 1618c4.66699 -78.667 35 -155.333 91 -230l-71 -52c-93.333 84 -140 191 -140 321v115h119z" />
    <glyph glyph-name="uni055A" unicode="&#x55a;" horiz-adv-x="385" 
d="M284 1772v-115.001c0 -130 -46.667 -237 -140 -321l-71 52c56 74.667 86.333 151.334 91 230.001l1 154h119z" />
    <glyph glyph-name="uni055B" unicode="&#x55b;" horiz-adv-x="224" 
d="M-56 1772l-282 -497h-97l232 497h147z" />
    <glyph glyph-name="uni055C" unicode="&#x55c;" horiz-adv-x="265" 
d="M-435 1311c0 30 7.33203 64 21.999 102s36 73.667 64 107s61 58 99 74c34 14.667 59.333 32 76 52s27.334 40.833 32.001 62.5s7 47.5 7 77.5v9h120v-25c0 -128.667 -62.667 -216.667 -188 -264c-51.333 -19.333 -84.5 -51 -99.5 -95s-22.5 -93.333 -22.5 -148v-9h-110
v57z" />
    <glyph glyph-name="uni055D" unicode="&#x55d;" horiz-adv-x="149" 
d="M149 1275h-97l-282 497h147z" />
    <glyph glyph-name="uni055E" unicode="&#x55e;" horiz-adv-x="491" 
d="M51.5 1457c39.667 33.333 59.502 86.667 59.502 160c0 32 -7.83301 63.167 -23.5 93.5s-39 55.5 -70 75.5s-68.5 30 -112.5 30c-74.667 0 -133.334 -21 -176.001 -63s-64 -113.667 -64 -215v-283h-100v296c0 124 31 214.667 93 272s144.333 86 247 86
c63.333 0 118.166 -13 164.499 -39s81.5 -61.167 105.5 -105.5s36 -93.5 36 -147.5c0 -94.667 -26.833 -168 -80.5 -220s-128.5 -78 -224.5 -78v88c57.333 0 105.833 16.667 145.5 50z" />
    <glyph glyph-name="uni055F" unicode="&#x55f;" horiz-adv-x="875" 
d="M151.5 1401.5c-63 61 -94.499 135.501 -94.499 223.501c0 53.333 11.833 103 35.5 149s61.167 83.333 112.5 112s115.666 43 192.999 43h88v-90h-31c-107.333 0 -183 -18.167 -227 -54.5s-66 -89.5 -66 -159.5c0 -48.667 9.33301 -89.334 28 -122.001s51 -58 97 -76
s109 -27 189 -27h339v-90h-339c-153.333 0 -261.5 30.5 -324.5 91.5z" />
    <glyph glyph-name="uni0561" unicode="&#x561;" horiz-adv-x="1834" 
d="M1437 155.5c52 48.333 88.999 109.17 110.999 182.503v744h120v-1082h-116l-3 176c-37.333 -61.333 -85.666 -109.333 -144.999 -144s-128 -52 -206 -52c-170.667 0 -278.667 70 -324 210c-36 -64 -85.833 -115 -149.5 -153s-137.167 -57 -220.5 -57
c-115.333 0 -203 31.5 -263 94.5s-90.333 162.167 -91 297.5v710h119v-711c0 -104.667 22.5 -178.834 67.5 -222.501s109.167 -65.5 192.5 -65.5c64 0 119.5 14.167 166.5 42.5s83.5 64.166 109.5 107.499s41 87.666 45 132.999v716h120v-716
c0 -102 22.833 -174.667 68.5 -218s110.5 -65 194.5 -65s152 24.167 204 72.5z" />
    <glyph glyph-name="uni0562" unicode="&#x562;" horiz-adv-x="1117" 
d="M1067 0l-781.002 0.000976562v-416h-120v1498h115l4 -183c38.667 63.333 88.334 113 149.001 149s128.667 54 204 54c110.667 0 195.667 -31.333 255 -94s89.333 -162 90 -298v-310h-120v310c0 104.667 -21.667 179 -65 223s-106.666 66 -189.999 66
c-78.667 0 -145.5 -24.333 -200.5 -73s-95.5 -109.334 -121.5 -182.001v-642h781v-102z" />
    <glyph glyph-name="uni0563" unicode="&#x563;" horiz-adv-x="1314" 
d="M1264 0l-274 0.00195312v-416h-119v550c-78.667 -102.667 -190 -154 -334 -154c-84.667 0 -158.167 22.667 -220.5 68s-110.333 108.666 -144 189.999s-51.167 174.666 -52.5 279.999v33c0 112 16.667 209.333 50 292s81.5 146.5 144.5 191.5s137.833 67.5 224.5 67.5
c144.667 0 256 -55.333 334 -166l5 146h112v-980h274v-102zM750 132.502c51.333 33.667 91.667 79.501 121 137.501v528c-28 59.333 -67.167 107.833 -117.5 145.5s-114.166 56.5 -191.499 56.5c-70.667 0 -130.167 -19.5 -178.5 -58.5s-84.333 -92.333 -108 -160
s-35.5 -144.5 -35.5 -230.5v-21c0 -86 11.833 -162.833 35.5 -230.5s59.5 -120.834 107.5 -159.501s107 -58 177 -58c75.333 0 138.666 16.833 189.999 50.5z" />
    <glyph glyph-name="uni0564" unicode="&#x564;" horiz-adv-x="1307" 
d="M1257 0l-274.002 0.000976562v-416h-120v1126c0 104.667 -21.667 179 -65 223s-106.666 66 -189.999 66c-78.667 0 -145.5 -24.333 -200.5 -73s-95.5 -109.334 -121.5 -182.001v-744h-120v1082h115l4 -183c38.667 63.333 88.334 113 149.001 149s128.667 54 204 54
c110.667 0 195.667 -31.333 255 -94s89.333 -162 90 -298v-608h274v-102z" />
    <glyph glyph-name="uni0565" unicode="&#x565;" horiz-adv-x="1101" 
d="M270 980l0.00195312 -592c0 -108 22.833 -185.667 68.5 -233s106.167 -71 181.5 -71c90.667 0 162.667 19 216 57s90.666 90 111.999 156v385h120v-682h-115l-3 137c-72 -104.667 -186.667 -157 -344 -157c-111.333 0 -198.333 32.5 -261 97.5
s-94.334 167.5 -95.001 307.5v1151h120v-454h781v-102h-781z" />
    <glyph glyph-name="uni0566" unicode="&#x566;" horiz-adv-x="1244" 
d="M1264 -314v-101.998h-393v550c-78.667 -102.667 -190 -154 -334 -154c-84.667 0 -158.167 22.667 -220.5 68s-110.333 108.666 -144 189.999s-51.167 174.666 -52.5 279.999v33c0 112 16.667 209.333 50 292s81.5 146.5 144.5 191.5s137.833 67.5 224.5 67.5
c144.667 0 256 -55.333 334 -166l5 146h112v-1396h274zM750 132.502c51.333 33.667 91.667 79.501 121 137.501v528c-28 59.333 -67.167 107.833 -117.5 145.5s-114.166 56.5 -191.499 56.5c-70.667 0 -130.167 -19.5 -178.5 -58.5s-84.333 -92.333 -108 -160
s-35.5 -144.5 -35.5 -230.5v-21c0 -86 11.833 -162.833 35.5 -230.5s59.5 -120.834 107.5 -159.501s107 -58 177 -58c75.333 0 138.666 16.833 189.999 50.5z" />
    <glyph glyph-name="uni0567" unicode="&#x567;" horiz-adv-x="951" 
d="M285 980v-877l162 1c54 0.666992 103 -8.66602 147 -27.999s78.833 -47.833 104.5 -85.5s38.5 -82.834 38.5 -135.501s-12.833 -97.667 -38.5 -135s-60.667 -65.5 -105 -84.5s-94.5 -28.5 -150.5 -28.5v102c56.667 0 100 13.667 130 41s45 62.333 45 105
s-15 77.5 -45 104.5s-73.333 40.5 -130 40.5h-277v1536h119v-454h616v-102h-616z" />
    <glyph glyph-name="uni0568" unicode="&#x568;" horiz-adv-x="1117" 
d="M1067 -314l-0.00195312 -101.999h-901v1498h115l4 -183c38.667 63.333 88.334 113 149.001 149s128.667 54 204 54c110.667 0 195.667 -31.333 255 -94s89.333 -162 90 -298v-710h-120v710c0 104.667 -21.667 179 -65 223s-106.666 66 -189.999 66
c-78.667 0 -145.5 -24.333 -200.5 -73s-95.5 -109.334 -121.5 -182.001v-1058h781z" />
    <glyph glyph-name="uni0569" unicode="&#x569;" horiz-adv-x="1542" 
d="M1289 590l-0.999023 0.00195312l1 -239c0.666992 -73.333 -13.833 -138 -43.5 -194s-73.5 -99.5 -131.5 -130.5s-127.667 -46.5 -209 -46.5c-80 0 -150.5 16.167 -211.5 48.5s-108.167 76.666 -141.5 132.999s-50 119.5 -50 189.5c0 75.333 16.333 140 49 194
s79.334 95.167 140.001 123.5s132 42.5 214 42.5h264c-0.666992 98 -43.834 170.5 -129.501 217.5s-195.5 70.5 -329.5 70.5c-64 0 -125.5 -12 -184.5 -36s-109.667 -55.5 -152 -94.5s-71.5 -80.5 -87.5 -124.5v-1160h-120v1498h115l4 -183c24.667 40 61 75.333 109 106
s102.333 54.5 163 71.5s121.667 25.5 183 25.5c104 0 197.167 -14.167 279.5 -42.5s147.666 -71.833 195.999 -130.5s72.833 -131.334 73.5 -218.001h203v-102h-203v-19zM1169 609.002h-264.002c-96 0 -167.167 -24.167 -213.5 -72.5s-69.5 -110.166 -69.5 -185.499
c0 -48 10 -92.333 30 -133s51.333 -73.5 94 -98.5s96.334 -37.5 161.001 -37.5c52 0 97.833 11.167 137.5 33.5s70.334 53.666 92.001 93.999s32.5 87.5 32.5 141.5v258z" />
    <glyph glyph-name="uni056A" unicode="&#x56a;" horiz-adv-x="1322" 
d="M883 119.5c-77.333 -93 -189.333 -139.5 -336 -139.5c-93.333 0 -175.833 22.667 -247.5 68s-127.334 109.333 -167.001 192s-59.5 177.667 -59.5 285v32c0 105.333 23.833 197.833 71.5 277.5s112 141 193 184s170.167 64.5 267.5 64.5h274v453h119v-453h274v-102h-274
v-456c0.666992 -177.333 -37.666 -312.5 -114.999 -405.5zM879 981h-273.999c-76.667 0 -146.5 -18.333 -209.5 -55s-112.5 -87.5 -148.5 -152.5s-54 -137.5 -54 -217.5v-31c0 -84 14 -159.5 42 -226.5s68.667 -119.833 122 -158.5s116.666 -58 189.999 -58
c221.333 0 332 147.667 332 443v456z" />
    <glyph glyph-name="uni056B" unicode="&#x56b;" horiz-adv-x="1133" 
d="M407.5 926c-55 -48.667 -95.5 -109.333 -121.5 -182v-1160h-120v1952h120v-637c38 63.333 87.333 113 148 149s128.667 54 204 54c110.667 0 195.667 -31.333 255 -94s89.333 -162 90 -298v-710h-120v710c-0.666992 104.667 -22.667 179 -66 223s-106.333 66 -189 66
c-78.667 0 -145.5 -24.333 -200.5 -73z" />
    <glyph glyph-name="uni056C" unicode="&#x56c;" horiz-adv-x="539" 
d="M559 -314v-102h-393v1498h119v-1396h274z" />
    <glyph glyph-name="uni056D" unicode="&#x56d;" horiz-adv-x="1689" 
d="M1523 1082l0.000976562 -1082h-115l-3 137c-72 -104.667 -186.667 -157 -344 -157c-111.333 0 -198.5 32.5 -261.5 97.5s-94.5 167.5 -94.5 307.5v595h-420v-1396h-119v1952h119v-454h540v-694c0 -108 22.833 -185.667 68.5 -233s106.167 -71 181.5 -71
c90.667 0 162.667 19 216 57s90.666 90 111.999 156v785h120z" />
    <glyph glyph-name="uni056E" unicode="&#x56e;" horiz-adv-x="1147" 
d="M837 980c56 -58.667 100.173 -123.169 132.506 -193.502s48.833 -152.166 49.5 -245.499v-16c0 -106 -18.333 -200.167 -55 -282.5s-89.834 -146.666 -159.501 -192.999s-152.167 -69.5 -247.5 -69.5c-98.667 0 -184.5 23.167 -257.5 69.5s-129 110.833 -168 193.5
s-58.5 176.667 -58.5 282v32c0 104 19 195.5 57 274.5s92.167 140.333 162.5 184s153.166 65.834 248.499 66.501c-43.333 35.333 -79.333 68.333 -108 99s-51.834 64.167 -69.501 100.5s-26.5 76.166 -26.5 119.499c0 26.667 1.16699 50 3.5 70
s4.66602 35.167 6.99902 45.5s3.83301 16.833 4.5 19.5h120l-5 -15c-2.66699 -8 -5.33398 -20.5 -8.00098 -37.5s-4 -38.167 -4 -63.5c0 -38 9.5 -73.167 28.5 -105.5s42.667 -61.833 71 -88.5s68.166 -60.667 119.499 -102l51 -42h372v-102h-260zM868.006 715.498
c-20.667 53 -47.832 100 -81.499 141s-74.167 82.167 -121.5 123.5h-119h-1c-75.333 0 -139.5 -18.667 -192.5 -56s-92.833 -88 -119.5 -152s-40 -136 -40 -216v-31c0 -82 13.5 -156.5 40.5 -223.5s68 -120.333 123 -160s121.833 -59.5 200.5 -59.5
c74.667 0 137.667 19.833 189 59.5s89.666 93 114.999 160s38 141.5 38 223.5v12c0 66 -10.333 125.5 -31 178.5z" />
    <glyph glyph-name="uni056F" unicode="&#x56f;" horiz-adv-x="1134" 
d="M848 -416l0.00195312 553c-70 -104.667 -184 -157 -342 -157c-111.333 0 -198.333 32.5 -261 97.5s-94.334 167.5 -95.001 307.5v1151h120v-1148c0 -108 22.833 -185.667 68.5 -233s106.167 -71 181.5 -71c90.667 0 162.667 19 216 57s90.666 90 111.999 156v785h120
v-1498h-120z" />
    <glyph glyph-name="uni0570" unicode="&#x570;" horiz-adv-x="1133" 
d="M407.5 926c-55 -48.667 -95.499 -109.334 -121.499 -182.001v-744h-120v1536h120v-635c38.667 62.667 88.167 111.834 148.5 147.501s128.166 53.5 203.499 53.5c110.667 0 195.667 -31.333 255 -94s89.333 -162 90 -298v-710h-120v710
c-0.666992 104.667 -22.667 179 -66 223s-106.333 66 -189 66c-78.667 0 -145.5 -24.333 -200.5 -73z" />
    <glyph glyph-name="uni0571" unicode="&#x571;" horiz-adv-x="1110" 
d="M868 0l-8 106.998c-40.667 -40 -90.667 -71.167 -150 -93.5s-123 -33.5 -191 -33.5c-85.333 0 -161 20.833 -227 62.5s-117.5 101.5 -154.5 179.5s-55.5 170.333 -55.5 277l1 17c0 92.667 24.333 177 73 253s110.834 145 186.501 207s179.5 137.333 311.5 226l129 87
h-365c-44.667 0 -84.334 8.66699 -119.001 26s-61.667 41.333 -81 72s-29 65 -29 103v43h119c0 -94.667 59 -142 177 -142h292c50.667 0 87.5 -5.66699 110.5 -17s34.5 -30.666 34.5 -57.999v-5c0 -23.333 -10.833 -46.166 -32.5 -68.499s-61.834 -54.166 -120.501 -95.499
l-120 -85l-30 -21c74.667 -20.667 139.167 -57.334 193.5 -110.001s95.333 -113.5 123 -182.5s41.834 -137.5 42.501 -205.5l2 -543h-112zM733 116.998c52.667 23.333 94.668 58.332 126.001 104.999v281c0 74.667 -12.333 144.834 -37 210.501s-62.834 121 -114.501 166
s-115.834 73.167 -192.501 84.5c-80.667 -62.667 -142.834 -117.5 -186.501 -164.5s-74.5 -93.167 -92.5 -138.5s-27 -97 -27 -155v-12c-0.666992 -76 11.833 -145.167 37.5 -207.5s63.834 -112 114.501 -149s112.334 -55.5 185.001 -55.5c72 0 134.333 11.667 187 35z" />
    <glyph glyph-name="uni0572" unicode="&#x572;" horiz-adv-x="1237" 
d="M1257 -314l-0.00195312 -101.999h-394v1126c0 104.667 -21.667 179 -65 223s-106.666 66 -189.999 66c-78.667 0 -145.5 -24.333 -200.5 -73s-95.5 -109.334 -121.5 -182.001v-744h-120v1082h115l4 -183c38.667 63.333 88.334 113 149.001 149s128.667 54 204 54
c110.667 0 195.667 -31.333 255 -94s89.333 -162 90 -298v-1024h274z" />
    <glyph glyph-name="uni0573" unicode="&#x573;" horiz-adv-x="1242" 
d="M646 1355c-79.333 -64.667 -142.001 -155.666 -188.001 -272.999h173c174.667 0 301.834 -44.667 381.501 -134s119.5 -218 119.5 -386v-562h-113l-6 145c-29.333 -39.333 -59 -70.666 -89 -93.999s-66.333 -41 -109 -53s-95.334 -18 -158.001 -18
c-82 0 -154.333 18.167 -217 54.5s-111.5 89.166 -146.5 158.499s-52.5 152.333 -52.5 249c0 205.333 20 386 60 542h-211v98h241c52.667 152.667 128.5 270 227.5 352s221.167 123 366.5 123c46 0 86.5 -2.33301 121.5 -7s70.833 -11.334 107.5 -20.001l-8 -100
c-60 14.667 -129.333 22 -208 22c-115.333 0 -212.666 -32.333 -291.999 -97zM424.999 984.001c-43.333 -152 -64.999 -333.332 -64.999 -543.999c0 -112.667 27.667 -200.334 83 -263.001s134.333 -94 237 -94c82 0 149.667 17.333 203 52s96.666 82.667 129.999 144v253
c0 108 -11.5 194 -34.5 258s-66.667 112.333 -131 145s-157.5 49 -279.5 49h-143z" />
    <glyph glyph-name="uni0574" unicode="&#x574;" 
d="M1241 1434h-272.998v-1434h-115l-3 137c-72 -104.667 -186.667 -157 -344 -157c-111.333 0 -198.333 32.5 -261 97.5s-94.334 167.5 -95.001 307.5v697h120v-694c0 -108 22.833 -185.667 68.5 -233s106.167 -71 181.5 -71c90.667 0 162.667 19 216 57
s90.666 90 111.999 156v1239h393v-102z" />
    <glyph glyph-name="uni0575" unicode="&#x575;" horiz-adv-x="512" 
d="M226 1082h120v-1211c0 -205.333 -94.667 -308 -284 -308c-38.667 0 -74 6.33301 -106 19l1 99c34 -9.33301 64 -14 90 -14c119.333 0 179 68 179 204v1211z" />
    <glyph glyph-name="uni0576" unicode="&#x576;" horiz-adv-x="1159" 
d="M993 1082l0.00195312 -1082h-115l-3 137c-72 -104.667 -186.667 -157 -344 -157c-111.333 0 -198.333 32.5 -261 97.5s-94.334 167.5 -95.001 307.5v1049h-273v102h393v-1148c0 -108 22.833 -185.667 68.5 -233s106.167 -71 181.5 -71c90.667 0 162.667 19 216 57
s90.666 90 111.999 156v785h120z" />
    <glyph glyph-name="uni0577" unicode="&#x577;" horiz-adv-x="1151" 
d="M270.5 -249.5c31.667 -27.667 69.833 -45.332 114.5 -52.999s97.334 -11.5 158.001 -11.5h506v-102h-506c-86 0 -160.833 7.5 -224.5 22.5s-115.5 43.833 -155.5 86.5s-60 103 -60 181c0 63.333 16.5 118.166 49.5 164.499s73.5 85.166 121.5 116.499
s113.667 68.666 197 111.999l78 41l57 30c70 36.667 124.5 68.167 163.5 94.5s71.5 60.5 97.5 102.5s39 94 39 156c0 46 -11.333 92.833 -34 140.5s-58 87.5 -106 119.5s-107.667 48 -179 48c-74 0 -134.667 -16 -182 -48s-81.666 -71.5 -102.999 -118.5
s-32 -94.167 -32 -141.5v-38h-120v38c0 66 17.333 130.667 52 194s85.167 115.333 151.5 156s144.166 61 233.499 61s167.166 -20.333 233.499 -61s117.166 -92.667 152.499 -156s53 -128 53 -194c0 -82 -17.667 -151.167 -53 -207.5s-78.5 -102.166 -129.5 -137.499
s-120.167 -75.666 -207.5 -120.999c-8.66699 -4 -21.667 -10.667 -39 -20c-9.33301 -5.33301 -19.666 -10.833 -30.999 -16.5s-23 -11.834 -35 -18.501c-72 -36.667 -128.333 -67.667 -169 -93s-74 -54.666 -100 -87.999s-39 -71.666 -39 -114.999
c0 -54.667 15.833 -95.834 47.5 -123.501z" />
    <glyph glyph-name="uni0578" unicode="&#x578;" horiz-adv-x="1133" 
d="M407.5 926c-55 -48.667 -95.501 -109.333 -121.501 -182v-744h-120v1082h115l4 -183c38.667 63.333 88.334 113 149.001 149s128.667 54 204 54c110.667 0 195.667 -31.333 255 -94s89.333 -162 90 -298v-710h-120v710c-0.666992 104.667 -22.667 179 -66 223
s-106.333 66 -189 66c-78.667 0 -145.5 -24.333 -200.5 -73z" />
    <glyph glyph-name="uni0579" unicode="&#x579;" horiz-adv-x="959" 
d="M143 22c28.667 58 66.8291 112.333 114.496 163s118.834 119.334 213.501 206.001c-6 -6 20.667 18.667 80 74c6.66699 6 10 13.333 10 22c0 7.33301 -3.33301 15 -10 23c-16 16 -36.167 33 -60.5 51l-44.5 33c-46 33.333 -83.333 62.666 -112 87.999
s-53.167 55 -73.5 89s-30.5 71.667 -30.5 113c0 28.667 7.16699 57.667 21.5 87s30.333 55.666 48 78.999s26.5 34 26.5 32h126c0 2 -9.5 -7.5 -28.5 -28.5s-36 -46.333 -51 -76s-22.5 -61.5 -22.5 -95.5c0 -26.667 9.33301 -52.5 28 -77.5s40.834 -47.667 66.501 -68
s59.834 -45.166 102.501 -74.499c57.333 -38.667 96.333 -68.667 117 -90c25.333 -26.667 38 -53.334 38 -80.001c0 -31.333 -16.333 -62.333 -49 -93l-121 -114c-78.667 -73.333 -138.167 -131.166 -178.5 -173.499s-72.666 -85.666 -96.999 -129.999
s-36.5 -90.5 -36.5 -138.5c0 -34.667 10 -63.834 30 -87.501s45.5 -41.167 76.5 -52.5s62.833 -17 95.5 -17h437v-102h-473c-42.667 0 -86.167 9.5 -130.5 28.5s-81.333 47 -111 84s-44.5 81.167 -44.5 132.5c0 70.667 14.333 135 43 193z" />
    <glyph glyph-name="uni057A" unicode="&#x57a;" horiz-adv-x="1834" 
d="M1437 155.5c52 48.333 89 109.17 111 182.503v744h120v-1498h-120v592c-36.667 -61.333 -84.667 -109.333 -144 -144s-128 -52 -206 -52c-170.667 0 -278.667 70 -324 210c-36 -64 -85.833 -115 -149.5 -153s-137.167 -57 -220.5 -57c-115.333 0 -203 31.5 -263 94.5
s-90.333 162.167 -91 297.5v710h119v-711c0 -104.667 22.5 -178.834 67.5 -222.501s109.167 -65.5 192.5 -65.5c64 0 119.5 14.167 166.5 42.5s83.5 64.166 109.5 107.499s41 87.666 45 132.999v716h120v-716c0 -102 22.833 -174.667 68.5 -218s110.5 -65 194.5 -65
s152 24.167 204 72.5z" />
    <glyph glyph-name="uni057B" unicode="&#x57b;" horiz-adv-x="1120" 
d="M137 -24.5c22.667 37.667 56.1689 73.1699 100.502 106.503s102.833 69.666 175.5 108.999c12.667 17.333 19 33.666 19 48.999c0 17.333 -7 32.833 -21 46.5s-37 32.167 -69 55.5c-40.667 29.333 -74.334 56.833 -101.001 82.5s-50 59.667 -70 102s-30 92.833 -30 151.5
c0 76.667 16 147.167 48 211.5s81.167 115.833 147.5 154.5s148.166 58 245.499 58c90.667 0 169 -19.5 235 -58.5s116.167 -90.833 150.5 -155.5s51.5 -134.667 51.5 -210c0 -96.667 -22.667 -179.334 -68 -248.001s-97.833 -123.167 -157.5 -163.5
s-134.834 -83.5 -225.501 -129.5c-9.33301 -4.66699 -27 -13 -53 -25c-56 -26 -103.667 -50.5 -143 -73.5s-74 -50.833 -104 -83.5s-45 -68.334 -45 -107.001c0 -60 25.333 -102 76 -126s117.667 -36 201 -36h540v-102h-593c-58 0 -113.167 9 -165.5 27
s-95.166 46.833 -128.499 86.5s-50 90.167 -50 151.5c0 46.667 11.333 88.834 34 126.501zM282.502 569.503c14.333 -29.667 31.668 -53.666 52.001 -71.999s47.166 -39.166 80.499 -62.499c27.333 -18.667 49 -34.834 65 -48.501s29.333 -30.334 40 -50.001
s16 -42.834 16 -69.501c0 -8.66699 -0.333008 -15.334 -1 -20.001c70 33.333 130.167 67 180.5 101s93.5 78.333 129.5 133s54 120.334 54 197.001c0 61.333 -12.667 116.333 -38 165s-62 86.834 -110 114.501s-104.333 41.5 -169 41.5c-70.667 0 -130 -13.667 -178 -41
s-83.833 -65.166 -107.5 -113.499s-35.5 -103.833 -35.5 -166.5c0 -42.667 7.16699 -78.834 21.5 -108.501z" />
    <glyph glyph-name="uni057C" unicode="&#x57c;" horiz-adv-x="1069" 
d="M1019 102l-0.00195312 -101.999h-433v102c0 -6.66699 25.667 22.333 77 87s97.5 142 138.5 232s61.5 186.333 61.5 289c0 104.667 -21.667 179 -65 223s-106.666 66 -189.999 66c-78.667 0 -145.5 -24.333 -200.5 -73s-95.5 -109.334 -121.5 -182.001v-744h-120v1082h115
l4 -183c38.667 63.333 88.334 113 149.001 149s128.667 54 204 54c110.667 0 195.667 -31.333 255 -94s89.333 -162 90 -298c0 -102.667 -20.5 -199 -61.5 -289s-87.167 -167.333 -138.5 -232s-77 -93.667 -77 -87h313z" />
    <glyph glyph-name="uni057D" unicode="&#x57d;" horiz-adv-x="1134" 
d="M853 0l-2.99805 137c-72 -104.667 -186.667 -157 -344 -157c-111.333 0 -198.333 32.5 -261 97.5s-94.334 167.5 -95.001 307.5v697h120v-694c0 -108 22.833 -185.667 68.5 -233s106.167 -71 181.5 -71c90.667 0 162.667 19 216 57s90.666 90 111.999 156v785h120v-1082
h-115z" />
    <glyph glyph-name="uni057E" unicode="&#x57e;" horiz-adv-x="1221" 
d="M1241 -314l0.00195312 -102h-393v553c-70 -104.667 -184 -157 -342 -157c-111.333 0 -198.333 32.5 -261 97.5s-94.334 167.5 -95.001 307.5v697h120v-694c0 -108 22.833 -185.667 68.5 -233s106.167 -71 181.5 -71c90.667 0 162.667 19 216 57s90.666 90 111.999 156
v1239h120v-1850h273z" />
    <glyph glyph-name="uni057F" unicode="&#x57f;" horiz-adv-x="1816" 
d="M1575 1007.5c60 -63 90.333 -162.167 91 -297.5v-710h-119v711c0 105.333 -22.833 179.666 -68.5 222.999s-110.834 65 -195.501 65c-84 0 -152 -24.167 -204 -72.5s-89 -109.166 -111 -182.499v-744h-120v171c-38.667 -58 -87.334 -104.333 -146.001 -139
s-124.667 -52 -198 -52c-115.333 0 -203 31.5 -263 94.5s-90.333 162.167 -91 297.5v710h119v-711c0 -105.333 22.833 -179.666 68.5 -222.999s110.834 -65 195.501 -65c84 0 152 24.167 204 72.5s89 109.166 111 182.499v744h120v-171
c38.667 58 87.334 104.333 146.001 139s124.667 52 198 52c115.333 0 203 -31.5 263 -94.5z" />
    <glyph glyph-name="uni0580" unicode="&#x580;" horiz-adv-x="1133" 
d="M407.5 926c-55 -48.667 -95.501 -109.333 -121.501 -182v-1160h-120v1498h115l4 -183c38.667 63.333 88.334 113 149.001 149s128.667 54 204 54c110.667 0 195.667 -31.333 255 -94s89.333 -162 90 -298v-710h-120v710c-0.666992 104.667 -22.667 179 -66 223
s-106.333 66 -189 66c-78.667 0 -145.5 -24.333 -200.5 -73z" />
    <glyph glyph-name="uni0581" unicode="&#x581;" horiz-adv-x="1154" 
d="M343.5 -384c-69 32 -124.502 77.6689 -166.502 137.002l67 73c83.333 -104 184.333 -156 303 -156c102 0 181 30.333 237 91s84 145.334 84 254.001v126c-77.333 -107.333 -189.333 -161 -336 -161c-83.333 0 -156.166 22.667 -218.499 68s-110.333 108.666 -144 189.999
s-51.167 174.666 -52.5 279.999v33c0 111.333 16.667 208.5 50 291.5s81.333 147 144 192s137 67.5 223 67.5c148 0 260.333 -58.333 337 -175l5 155h112v-1063c0 -92.667 -17.833 -172.834 -53.5 -240.501s-86.167 -119.667 -151.5 -156s-141.666 -54.5 -228.999 -54.5
c-71.333 0 -141.5 16 -210.5 48zM236.998 530.002c0 -86 11.667 -162.668 35 -230.001s58.833 -120.166 106.5 -158.499s106.5 -57.5 176.5 -57.5c78 0 142.667 17.833 194 53.5s91 84.5 119 146.5v500c-26 63.333 -64 114.833 -114 154.5s-115.667 59.5 -197 59.5
c-70.667 0 -130 -19.333 -178 -58s-83.667 -91.5 -107 -158.5s-35 -143.833 -35 -230.5v-21z" />
    <glyph glyph-name="uni0582" unicode="&#x582;" horiz-adv-x="523" 
d="M473 102v-102h-393v1082h119v-980h274z" />
    <glyph glyph-name="uni0583" unicode="&#x583;" horiz-adv-x="1816" 
d="M1575 1007.5c60 -63 90.333 -162.167 91 -297.5v-710h-119v711c0 105.333 -22.833 179.666 -68.5 222.999s-110.834 65 -195.501 65c-84 0 -152 -24.167 -204 -72.5s-89 -109.166 -111 -182.499v-1160h-120v587c-38.667 -58 -87.334 -104.333 -146.001 -139
s-124.667 -52 -198 -52c-115.333 0 -203 31.5 -263 94.5s-90.333 162.167 -91 297.5v710h119v-711c0 -105.333 22.833 -179.666 68.5 -222.999s110.834 -65 195.501 -65c84 0 152 24.167 204 72.5s89 109.166 111 182.499v1198h120v-625
c38.667 58 87.334 104.333 146.001 139s124.667 52 198 52c115.333 0 203 -31.5 263 -94.5z" />
    <glyph glyph-name="uni0584" unicode="&#x584;" horiz-adv-x="1191" 
d="M1141 -102l-764 0.000976562v-314h-120v314h-177v102h177v1082h112l6 -153c77.333 115.333 190.333 173 339 173c130 0 231.667 -39.833 305 -119.5s110 -196.834 110 -351.501v-21c0 -90.667 -17 -170 -51 -238s-82.167 -120.333 -144.5 -157s-134.833 -55 -217.5 -55
c-147.333 0 -260.333 52.333 -339 157v-317h764v-102zM377 450.001c28 -58 67.8311 -103.833 119.498 -137.5s115.834 -50.5 192.501 -50.5c66.667 0 124.167 15.333 172.5 46s85 72.5 110 125.5s37.5 111.833 37.5 176.5v21c0 116.667 -27.667 207 -83 271s-135 96 -239 96
c-79.333 0 -144.166 -19 -194.499 -57s-88.833 -87.667 -115.5 -149v-342z" />
    <glyph glyph-name="uni0585" unicode="&#x585;" horiz-adv-x="1168" 
d="M101 557c0 104.667 20 198.332 60 280.999s96.5 147.334 169.5 194.001s157.167 70 252.5 70s179.5 -23 252.5 -69s129.5 -109.5 169.5 -190.5s60.667 -172.833 62 -275.5v-42c0 -104.667 -20 -198.334 -60 -281.001s-96.333 -147.334 -169 -194.001s-157 -70 -253 -70
s-180.667 23.333 -254 70s-130 111.334 -170 194.001s-60 176.334 -60 281.001v32zM221 524.998c0 -81.333 14.1689 -155.665 42.502 -222.998s70 -120.833 125 -160.5s120.5 -59.5 196.5 -59.5c75.333 0 140.333 19.833 195 59.5s96.167 93.167 124.5 160.5
s42.5 141.666 42.5 222.999v32c0 79.333 -14.333 152.666 -43 219.999s-70.5 121.333 -125.5 162s-120.167 61 -195.5 61c-74.667 0 -139.334 -20.167 -194.001 -60.5s-96.334 -94.333 -125.001 -162s-43 -141.5 -43 -221.5v-31z" />
    <glyph glyph-name="uni0586" unicode="&#x586;" horiz-adv-x="1518" 
d="M1324 105.5c-100.667 -76.333 -255.001 -117.833 -463.001 -124.5v-397h-120v397c-222 8 -386 57.667 -492 149s-159 216.666 -159 375.999h120v-8c0 -88 21.5 -163.167 64.5 -225.5s104.333 -109.666 184 -141.999s173.834 -48.5 282.501 -48.5v742
c-184 0 -315.5 30.167 -394.5 90.5s-118.5 148.833 -118.5 265.5s39.5 205.167 118.5 265.5s210.5 90.5 394.5 90.5h120v-610c130.667 0 242 -18.833 334 -56.5s161.5 -90.667 208.5 -159s70.5 -147.5 70.5 -237.5l1 -34c0 -146 -50.333 -257.167 -151 -333.5z
M448.499 983.5c67 -38.333 164.5 -57.5 292.5 -57.5v508c-128 0 -225.5 -19.167 -292.5 -57.5s-100.5 -103.833 -100.5 -196.5s33.5 -158.167 100.5 -196.5zM1135 127.5c74 30.333 129.334 72.334 166.001 126.001s54.667 115.167 54 184.5v30
c-0.666992 70 -19.167 131.667 -55.5 185s-91.333 95.166 -165 125.499s-164.834 45.5 -273.501 45.5v-742c108.667 0 200 15.167 274 45.5z" />
    <glyph glyph-name="uni0587" unicode="&#x587;" horiz-adv-x="1296" 
d="M1246 102l0.00195312 -102h-393l-3 137c-72 -104.667 -186.667 -157 -344 -157c-111.333 0 -198.333 32.5 -261 97.5s-94.334 167.5 -95.001 307.5v1151h120v-1148c0 -108 22.833 -185.667 68.5 -233s106.167 -71 181.5 -71c90.667 0 162.667 19 216 57
s90.666 90 111.999 156v785h120v-980h278z" />
    <glyph glyph-name="uni0589" unicode="&#x589;" horiz-adv-x="446" 
d="M223 1079c57.333 0 86 -27.667 86 -83c0 -54.667 -28.667 -82 -86 -82c-56 0 -84 27.333 -84 82c0 55.333 28 83 84 83zM221 156c57.333 0 86 -27.667 86 -83c0 -54.667 -28.667 -82 -86 -82c-56 0 -84 27.333 -84 82c0 55.333 28 83 84 83z" />
    <glyph glyph-name="uni058A" unicode="&#x58a;" horiz-adv-x="600" 
d="M666 574c-76.667 -17.333 -156.666 -26.002 -239.999 -26.002c-150 0 -276.333 30.667 -379 92l31 117c4.66699 -1.33301 10.167 -3.66602 16.5 -6.99902s11.166 -6 14.499 -8c52.667 -26 112.667 -46 180 -60s136.333 -21 207 -21c63.333 0 124.333 5.5 183 16.5
s111.667 27.833 159 50.5v-96c-38 -21.333 -95.333 -40.666 -172 -57.999z" />
    <glyph glyph-name="uni058F" unicode="&#x58f;" horiz-adv-x="1509" 
d="M1167 614v-215.001h312v-105h-312v-294h-123v294h-312v105h312v215h-312v105h312v347c0 82.667 -16.5 153 -49.5 211s-78.833 101.667 -137.5 131s-126.334 44 -203.001 44c-76 0 -143.333 -14.667 -202 -44s-104.5 -73 -137.5 -131s-49.5 -128.333 -49.5 -211v-410h-122
v410c0 106 22 195.833 66 269.5s104.5 128.834 181.5 165.501s164.833 55 263.5 55c96.667 0 183.834 -18.5 261.501 -55.5s139 -92.167 184 -165.5s67.5 -163 67.5 -269v-347h312v-105h-312z" />
    <glyph glyph-name="endash" unicode="&#x2013;" horiz-adv-x="1334" 
d="M1161 789v-102h-1002v102h1002z" />
    <glyph glyph-name="emdash" unicode="&#x2014;" horiz-adv-x="1580" 
d="M1462 789v-102h-1336v102h1336z" />
    <glyph glyph-name="quoteleft" unicode="&#x2018;" horiz-adv-x="365" 
d="M99 1122v111.999c0 128.667 46.667 235.667 140 321l71 -52c-59.333 -79.333 -90 -163.666 -92 -252.999v-128h-119z" />
    <glyph glyph-name="quoteright" unicode="&#x2019;" horiz-adv-x="365" 
d="M274 1554v-115.001c0 -130 -46.667 -237 -140 -321l-71 52c56 74.667 86.333 151.334 91 230.001l1 154h119z" />
    <glyph glyph-name="quotesinglbase" unicode="&#x201a;" horiz-adv-x="354" 
d="M253 206v-116.002c0 -129.333 -46.667 -236.666 -140 -321.999l-71 52c58.667 78.667 89 163.334 91 254.001v132h120z" />
    <glyph glyph-name="quotedblleft" unicode="&#x201c;" horiz-adv-x="612" 
d="M100 1122v111.999c0 128.667 46.667 235.667 140 321l71 -52c-59.333 -79.333 -90 -163.666 -92 -252.999v-128h-119zM351 1122v111.999c0 128.667 46.667 235.667 140 321l71 -52c-59.333 -79.333 -90 -163.666 -92 -252.999v-128h-119z" />
    <glyph glyph-name="quotedblright" unicode="&#x201d;" horiz-adv-x="617" 
d="M280 1536v-115.001c0 -130 -46.667 -237 -140 -321l-71 52c56 74.667 86.333 151.334 91 230.001l1 154h119zM524 1536v-115.001c0 -130 -46.667 -237 -140 -321l-71 52c56 74.667 86.333 151.334 91 230.001l1 154h119z" />
    <glyph glyph-name="quotedblbase" unicode="&#x201e;" horiz-adv-x="594" 
d="M253 237v-147.001c0 -133.333 -46.667 -243.666 -140 -330.999l-71 52c58.667 82.667 89 170 91 262v164h120zM487 236.999v-147.001c0 -134 -47 -244.333 -141 -331l-71 52c56 76.667 86.333 156.334 91 239.001l1 187h120z" />
    <glyph glyph-name="bullet" unicode="&#x2022;" horiz-adv-x="663" 
d="M147 752c0 52.667 16.668 95.667 50.001 129s78 50 134 50c38 0 71.167 -7.66699 99.5 -23s50 -36.5 65 -63.5s22.5 -57.833 22.5 -92.5v-35c0 -52 -16.833 -94.333 -50.5 -127s-78.834 -49 -135.501 -49s-101.667 16.333 -135 49s-50 75 -50 127v35z" />
    <glyph glyph-name="ellipsis" unicode="&#x2026;" horiz-adv-x="1313" 
d="M251 156c57.333 0 86 -27.667 86 -83c0 -54.667 -28.667 -82 -86 -82c-56 0 -84 27.333 -84 82c0 55.333 28 83 84 83zM661 156c57.333 0 86 -27.667 86 -83c0 -54.667 -28.667 -82 -86 -82c-56 0 -84 27.333 -84 82c0 55.333 28 83 84 83zM1053 156
c57.333 0 86 -27.667 86 -83c0 -54.667 -28.667 -82 -86 -82c-56 0 -84 27.333 -84 82c0 55.333 28 83 84 83z" />
    <glyph glyph-name="guilsinglleft" unicode="&#x2039;" horiz-adv-x="609" 
d="M403 168l-295 379v19l295 379h106l-276 -389l276 -388h-106z" />
    <glyph glyph-name="guilsinglright" unicode="&#x203a;" horiz-adv-x="609" 
d="M204 945l294 -385v-19l-294 -379h-106l276 389l-276 394h106z" />
    <glyph glyph-name="fraction" unicode="&#x2044;" horiz-adv-x="918" 
d="M848 1259l-711 -1138l-75 48l711 1138z" />
    <glyph glyph-name="uni2074" unicode="&#x2074;" horiz-adv-x="740" 
d="M60 919l397 535h110v-513h127v-89h-127v-187h-105v187h-399zM174 941h288v383l-30 -50z" />
    <glyph glyph-name="Euro" unicode="&#x20ac;" 
d="M1042 10c-72 -20.667 -148.665 -30.999 -229.998 -30.999c-106.667 0 -200.334 21.5 -281.001 64.5s-143.5 107 -188.5 192s-67.5 188.833 -67.5 311.5v16h-191v89h191v165h-191v89h191c0 123.333 22.333 227.666 67 312.999s107.167 149.5 187.5 192.5
s174.166 64.5 281.499 64.5c70.667 0 147.667 -10.333 231 -31l-10 -108c-74 23.333 -147.333 35 -220 35c-130 0 -231.333 -39 -304 -117s-109 -194.333 -109 -349h419v-89h-419v-165h419v-89h-419v-16c0 -100.667 16.833 -185.667 50.5 -255s81.5 -121.5 143.5 -156.5
s135.333 -52.5 220 -52.5c78 0 151 11.333 219 34z" />
    <glyph glyph-name="minus" unicode="&#x2212;" horiz-adv-x="1169" 
d="M1001 789v-102h-835v102h835z" />
    </font>
</defs>
</svg>
