<svg xmlns="http://www.w3.org/2000/svg" width="24" height="24" viewBox="0 0 24 24"><g transform="translate(-1800 -858)"><rect width="24" height="24" transform="translate(1800 858)" fill="none"/><path d="M21.756,20.607l-3.437-3.361-.081-.122a.81.81,0,0,0-1.137,0,8.113,8.113,0,0,1-10.519.34A7.679,7.679,0,0,1,4.876,7.31,8.075,8.075,0,0,1,14.953,4.342a7.741,7.741,0,0,1,4.314,9.385.779.779,0,0,0,.182.772.821.821,0,0,0,.774.232.8.8,0,0,0,.593-.54,9.334,9.334,0,0,0-5-11.25A9.754,9.754,0,0,0,3.689,6.085a9.256,9.256,0,0,0,1.36,12.194,9.789,9.789,0,0,0,12.535.515l3.044,2.976a.819.819,0,0,0,1.137,0,.784.784,0,0,0,0-1.12Z" transform="translate(1800 858)" fill="#0f1f2b"/></g></svg>